<svg width="64" height="63" viewBox="0 0 64 63" fill="none" xmlns="http://www.w3.org/2000/svg">
<circle cx="32.0576" cy="31.5146" r="31.0967" fill="#141414"/>
<path d="M46.0972 36.1781C45.9822 36.0003 45.7953 35.8817 45.5854 35.8533C42.8245 35.4927 40.8787 32.9622 41.2393 30.2013C41.4941 28.2511 42.8596 26.6271 44.7372 26.0414C45.1185 25.9192 45.3286 25.5111 45.2064 25.1298C45.1874 25.0704 45.1608 25.0137 45.1273 24.9611C43.8603 22.6746 41.6076 21.102 39.0244 20.7012C37.7227 20.7633 36.4399 21.0381 35.227 21.5146C34.3558 21.8652 33.436 22.0799 32.4996 22.1511C31.5632 22.0799 30.6433 21.8652 29.7722 21.5146C28.5593 21.0381 27.2765 20.7633 25.9748 20.7012C23.2677 20.7012 18 24.5392 18 31.5759C18 38.2631 22.8776 46.8005 26.6998 46.8005C28.1581 46.8135 29.599 46.4816 30.9047 45.8319C31.3964 45.5607 31.9399 45.3966 32.4997 45.3505C33.0593 45.3966 33.6029 45.5607 34.0946 45.8319C35.4003 46.4816 36.8412 46.8135 38.2995 46.8005C41.33 46.8005 44.7504 41.598 46.183 36.7769C46.2429 36.5744 46.2116 36.3557 46.0972 36.1781Z" fill="white"/>
<path d="M31.7757 20.7017C36.1781 20.6969 39.7457 17.1293 39.7505 12.727C39.7505 12.3266 39.4259 12.002 39.0255 12.002C34.6232 12.0068 31.0555 15.5744 31.0508 19.9767C31.0507 20.3771 31.3753 20.7017 31.7757 20.7017Z" fill="white"/>
</svg>
