<svg width="30" height="25" viewBox="0 0 30 25" fill="none" xmlns="http://www.w3.org/2000/svg">
<path d="M18.4304 5.6785C17.7693 5.6785 17.2328 5.14195 17.2328 4.48085V2.68437H12.4422V4.48085C12.4422 5.14195 11.9056 5.6785 11.2445 5.6785C10.5834 5.6785 10.0469 5.14195 10.0469 4.48085V2.68437C10.0469 1.36336 11.1212 0.289062 12.4422 0.289062H17.2328C18.5538 0.289062 19.6281 1.36336 19.6281 2.68437V4.48085C19.6281 5.14195 19.0915 5.6785 18.4304 5.6785Z" fill="#35435E"/>
<path d="M15.687 16.3118C15.4714 16.3956 15.16 16.4555 14.8367 16.4555C14.5133 16.4555 14.2019 16.3956 13.9145 16.2878L0.464844 11.8086V20.9467C0.464844 22.7671 1.93796 24.2402 3.75839 24.2402H25.915C27.7354 24.2402 29.2085 22.7671 29.2085 20.9467V11.8086L15.687 16.3118Z" fill="#35435E"/>
<path d="M29.2085 7.17636V9.91898L15.1241 14.6138C15.0283 14.6497 14.9325 14.6617 14.8367 14.6617C14.7409 14.6617 14.645 14.6497 14.5492 14.6138L0.464844 9.91898V7.17636C0.464844 5.35592 1.93796 3.88281 3.75839 3.88281H25.915C27.7354 3.88281 29.2085 5.35592 29.2085 7.17636Z" fill="#35435E"/>
</svg>
