<svg width="203" height="47" viewBox="0 0 203 47" fill="none" xmlns="http://www.w3.org/2000/svg">
<rect x="0.332031" y="0.337891" width="202.341" height="46.4535" rx="23.2267" fill="#FFC700"/>
<path d="M71.1878 29.6113H73.3761L76.3537 20.0866H76.3896L79.3672 29.6113H81.5556L85.2686 16.9117H82.865L80.3538 26.2391H80.3179L77.5735 16.9117H75.2416L72.4434 26.2391H72.4075L69.9501 16.9117H67.4747L71.1878 29.6113ZM87.6682 24.4454C87.7578 23.2436 88.7803 22.3646 90.0538 22.3646C91.4529 22.3646 92.0808 23.3332 92.0808 24.4454H87.6682ZM94.2332 25.414C94.2332 22.3108 92.4754 20.7503 90.0718 20.7503C87.4708 20.7503 85.5157 22.5799 85.5157 25.3602C85.5157 28.1584 87.4888 29.8625 90.1435 29.8625C91.7758 29.8625 92.9956 29.2885 93.8386 28.1405L92.4036 26.9925C91.9193 27.6741 91.2018 28.1046 90.1256 28.1046C88.87 28.1046 87.7578 27.2077 87.6682 25.988H94.2153C94.2332 25.7907 94.2332 25.6113 94.2332 25.414ZM96.3538 16.0507V29.6113H98.3986V28.3198H98.4345C99.0264 29.3064 100.192 29.8625 101.394 29.8625C104.013 29.8625 105.627 27.7817 105.627 25.2705C105.627 22.7234 103.905 20.7503 101.448 20.7503C99.8695 20.7503 99.0085 21.5395 98.5601 22.0956H98.5063V16.0507H96.3538ZM103.439 25.2705C103.439 26.6158 102.632 28.0687 100.964 28.0687C99.3852 28.0687 98.4345 26.6517 98.4345 25.3064C98.4345 23.9611 99.3852 22.5081 100.964 22.5081C102.632 22.5081 103.439 23.9252 103.439 25.2705ZM113.821 22.0597C113.121 21.1808 111.83 20.7503 110.592 20.7503C108.888 20.7503 107.166 21.5754 107.166 23.4947C107.166 25.109 108.439 25.6292 109.713 25.9342C111.022 26.2391 111.686 26.4543 111.686 27.1718C111.686 27.9432 110.933 28.1943 110.305 28.1943C109.372 28.1943 108.565 27.7279 108.099 27.118L106.682 28.4454C107.507 29.3602 108.888 29.8625 110.215 29.8625C112.099 29.8625 113.803 29.0911 113.803 26.9925C113.803 25.3064 112.296 24.7324 111.022 24.4274C109.821 24.1404 109.157 23.9611 109.157 23.2974C109.157 22.6157 109.856 22.3646 110.538 22.3646C111.327 22.3646 112.045 22.7951 112.421 23.2974L113.821 22.0597ZM115.71 29.6113H117.863V21.0014H115.71V29.6113ZM115.405 18.0776C115.405 18.7592 115.979 19.3691 116.768 19.3691C117.558 19.3691 118.167 18.813 118.167 18.0776C118.167 17.3422 117.558 16.7861 116.768 16.7861C115.979 16.7861 115.405 17.396 115.405 18.0776ZM120.743 22.7234V26.7413C120.743 28.3916 121.263 29.7907 123.541 29.7907C124.025 29.7907 124.599 29.701 124.976 29.5575L124.904 27.8714C124.653 27.997 124.277 28.0508 123.99 28.0508C123.039 28.0508 122.859 27.4947 122.859 26.7234V22.7234H125.012V21.0014H122.859V18.5081H120.743V21.0014H119.236V22.7234H120.743ZM128.22 24.4454C128.31 23.2436 129.332 22.3646 130.606 22.3646C132.005 22.3646 132.633 23.3332 132.633 24.4454H128.22ZM134.785 25.414C134.785 22.3108 133.027 20.7503 130.624 20.7503C128.023 20.7503 126.067 22.5799 126.067 25.3602C126.067 28.1584 128.041 29.8625 130.695 29.8625C132.328 29.8625 133.547 29.2885 134.39 28.1405L132.955 26.9925C132.471 27.6741 131.754 28.1046 130.677 28.1046C129.422 28.1046 128.31 27.2077 128.22 25.988H134.767C134.785 25.7907 134.785 25.6113 134.785 25.414Z" fill="#35435E"/>
</svg>
