<svg width="203" height="48" viewBox="0 0 203 48" fill="none" xmlns="http://www.w3.org/2000/svg">
<rect x="0.328125" y="0.595703" width="202.341" height="46.4535" rx="23.2267" fill="#FFC700"/>
<path d="M53.9359 29.6113H56.0884V19.405H56.1242L59.927 29.6113H61.5055L65.362 19.405H65.3979V29.6113H67.64V16.9117H64.0884L60.8238 25.9342H60.77L57.4695 16.9117H53.9359V29.6113ZM69.827 25.2705C69.827 27.979 71.9077 29.8625 74.5087 29.8625C77.1096 29.8625 79.1903 27.979 79.1903 25.2705C79.1903 22.5619 77.1096 20.7503 74.5087 20.7503C71.9077 20.7503 69.827 22.5619 69.827 25.2705ZM72.0154 25.2705C72.0154 23.9252 72.8046 22.5081 74.5087 22.5081C76.2127 22.5081 77.002 23.9252 77.002 25.2705C77.002 26.6158 76.2127 28.0687 74.5087 28.0687C72.8046 28.0687 72.0154 26.6158 72.0154 25.2705ZM81.3132 16.0507V29.6113H83.3581V28.3198H83.394C83.9859 29.3064 85.1518 29.8625 86.3536 29.8625C88.9725 29.8625 90.5869 27.7817 90.5869 25.2705C90.5869 22.7234 88.8649 20.7503 86.4074 20.7503C84.829 20.7503 83.968 21.5395 83.5195 22.0956H83.4657V16.0507H81.3132ZM88.3985 25.2705C88.3985 26.6158 87.5913 28.0687 85.9231 28.0687C84.3446 28.0687 83.394 26.6517 83.394 25.3064C83.394 23.9611 84.3446 22.5081 85.9231 22.5081C87.5913 22.5081 88.3985 23.9252 88.3985 25.2705ZM92.6993 29.6113H94.8517V21.0014H92.6993V29.6113ZM92.3943 18.0776C92.3943 18.7592 92.9683 19.3691 93.7576 19.3691C94.5468 19.3691 95.1567 18.813 95.1567 18.0776C95.1567 17.3422 94.5468 16.7861 93.7576 16.7861C92.9683 16.7861 92.3943 17.396 92.3943 18.0776ZM97.4989 29.6113H99.6514V16.0507H97.4989V29.6113ZM103.913 24.4454C104.003 23.2436 105.025 22.3646 106.299 22.3646C107.698 22.3646 108.326 23.3332 108.326 24.4454H103.913ZM110.478 25.414C110.478 22.3108 108.72 20.7503 106.317 20.7503C103.716 20.7503 101.76 22.5799 101.76 25.3602C101.76 28.1584 103.734 29.8625 106.388 29.8625C108.021 29.8625 109.24 29.2885 110.083 28.1405L108.648 26.9925C108.164 27.6741 107.447 28.1046 106.37 28.1046C105.115 28.1046 104.003 27.2077 103.913 25.988H110.46C110.478 25.7907 110.478 25.6113 110.478 25.414ZM115.297 29.6113H117.826L118.974 26.7055H124.481L125.665 29.6113H128.248L122.777 16.9117H120.821L115.297 29.6113ZM119.745 24.7682L121.736 19.6023L123.691 24.7682H119.745ZM129.396 21.0014V33.9163H131.549V28.4633H131.585C132.141 29.3243 133.235 29.8625 134.437 29.8625C137.056 29.8625 138.67 27.7817 138.67 25.2705C138.67 22.7234 136.948 20.7503 134.491 20.7503C132.912 20.7503 131.944 21.5216 131.513 22.2032H131.459V21.0014H129.396ZM136.482 25.2705C136.482 26.6158 135.675 28.0687 134.006 28.0687C132.428 28.0687 131.477 26.6517 131.477 25.3064C131.477 23.9611 132.428 22.5081 134.006 22.5081C135.675 22.5081 136.482 23.9252 136.482 25.2705ZM140.747 21.0014V33.9163H142.9V28.4633H142.936C143.492 29.3243 144.586 29.8625 145.788 29.8625C148.407 29.8625 150.021 27.7817 150.021 25.2705C150.021 22.7234 148.299 20.7503 145.842 20.7503C144.263 20.7503 143.295 21.5216 142.864 22.2032H142.81V21.0014H140.747ZM147.833 25.2705C147.833 26.6158 147.026 28.0687 145.357 28.0687C143.779 28.0687 142.828 26.6517 142.828 25.3064C142.828 23.9611 143.779 22.5081 145.357 22.5081C147.026 22.5081 147.833 23.9252 147.833 25.2705Z" fill="#35435E"/>
</svg>
