<svg width="20" height="17" viewBox="0 0 20 17" fill="none" xmlns="http://www.w3.org/2000/svg">
<path d="M8.98398 16.9055C9.90064 16.9055 10.6437 16.1624 10.6437 15.2457C10.6437 14.329 9.90064 13.5859 8.98398 13.5859C8.06732 13.5859 7.32422 14.329 7.32422 15.2457C7.32422 16.1624 8.06732 16.9055 8.98398 16.9055Z" fill="#35435E"/>
<path d="M14.5543 16.9055C15.4709 16.9055 16.214 16.1624 16.214 15.2457C16.214 14.329 15.4709 13.5859 14.5543 13.5859C13.6376 13.5859 12.8945 14.329 12.8945 15.2457C12.8945 16.1624 13.6376 16.9055 14.5543 16.9055Z" fill="#35435E"/>
<path d="M1.20169 1.41513H3.50885L6.17986 10.7655L5.97037 11.1845C5.41874 12.2866 6.21951 13.5866 7.45507 13.5866H16.7664C17.0722 13.5866 17.3197 13.3392 17.3197 13.0334C17.3197 12.7276 17.0722 12.4801 16.7664 12.4801H7.45507C7.04422 12.4801 6.77571 12.0475 6.96017 11.6794L7.11308 11.3736H16.7664C17.0133 11.3736 17.2305 11.2099 17.2986 10.9722L19.5116 3.22669C19.5592 3.05976 19.5257 2.88036 19.4214 2.74153C19.3166 2.60321 19.1529 2.52163 18.9795 2.52163H4.9757L4.45811 0.710032C4.39003 0.472319 4.17286 0.308594 3.92593 0.308594H1.20169C0.895888 0.308594 0.648438 0.556044 0.648438 0.861843C0.648438 1.16764 0.895888 1.41513 1.20169 1.41513Z" fill="#35435E"/>
</svg>
