<svg width="188" height="292" viewBox="0 0 188 292" fill="none" xmlns="http://www.w3.org/2000/svg">
<path d="M1.10637 16.2852H3.36238L4.38638 13.6932H9.29838L10.3544 16.2852H12.6584L7.77838 4.95716H6.03438L1.10637 16.2852ZM5.07438 11.9652L6.85038 7.35716L8.59438 11.9652H5.07438ZM13.7153 16.2852H15.6353V4.18916H13.7153V16.2852ZM17.9965 16.2852H19.9165V4.18916H17.9965V16.2852ZM26.2778 8.60516V16.8292C26.2778 17.7092 26.1497 18.4612 25.2378 18.4612C25.0938 18.4612 24.8857 18.4452 24.7097 18.3972L24.5497 20.0292C24.7417 20.0772 25.0938 20.1252 25.4138 20.1252C27.7018 20.1252 28.1978 18.5892 28.1978 16.7492V8.60516H26.2778ZM26.0058 5.99716C26.0058 6.60516 26.5178 7.14916 27.2218 7.14916C27.9258 7.14916 28.4698 6.65316 28.4698 5.99716C28.4698 5.34116 27.9258 4.84516 27.2218 4.84516C26.5178 4.84516 26.0058 5.38916 26.0058 5.99716ZM30.079 12.4132C30.079 14.8292 31.935 16.5092 34.255 16.5092C36.575 16.5092 38.431 14.8292 38.431 12.4132C38.431 9.99716 36.575 8.38116 34.255 8.38116C31.935 8.38116 30.079 9.99716 30.079 12.4132ZM32.031 12.4132C32.031 11.2132 32.735 9.94916 34.255 9.94916C35.775 9.94916 36.479 11.2132 36.479 12.4132C36.479 13.6132 35.775 14.9092 34.255 14.9092C32.735 14.9092 32.031 13.6132 32.031 12.4132ZM40.3246 4.18916V16.2852H42.1486V15.1332H42.1806C42.7086 16.0132 43.7486 16.5092 44.8206 16.5092C47.1566 16.5092 48.5966 14.6532 48.5966 12.4132C48.5966 10.1412 47.0606 8.38116 44.8686 8.38116C43.4606 8.38116 42.6926 9.08516 42.2926 9.58116H42.2446V4.18916H40.3246ZM46.6446 12.4132C46.6446 13.6132 45.9246 14.9092 44.4366 14.9092C43.0286 14.9092 42.1806 13.6452 42.1806 12.4452C42.1806 11.2452 43.0286 9.94916 44.4366 9.94916C45.9246 9.94916 46.6446 11.2132 46.6446 12.4132ZM55.9049 9.54916C55.2809 8.76516 54.1289 8.38116 53.0249 8.38116C51.5049 8.38116 49.9689 9.11716 49.9689 10.8292C49.9689 12.2692 51.1049 12.7332 52.2409 13.0052C53.4089 13.2772 54.0009 13.4692 54.0009 14.1092C54.0009 14.7972 53.3289 15.0212 52.7689 15.0212C51.9369 15.0212 51.2169 14.6052 50.8009 14.0612L49.5369 15.2452C50.2729 16.0612 51.5049 16.5092 52.6889 16.5092C54.3689 16.5092 55.8889 15.8212 55.8889 13.9492C55.8889 12.4452 54.5449 11.9332 53.4089 11.6612C52.3369 11.4052 51.7449 11.2452 51.7449 10.6532C51.7449 10.0452 52.3689 9.82116 52.9769 9.82116C53.6809 9.82116 54.3209 10.2052 54.6569 10.6532L55.9049 9.54916ZM63.1423 16.2852H65.0943L66.8223 10.9092H66.8543L68.5983 16.2852H70.5503L73.2063 8.60516H71.2063L69.5743 14.1092H69.5423L67.8783 8.60516H65.8303L64.1823 14.1092H64.1503L62.5503 8.60516H60.4703L63.1423 16.2852ZM74.4496 16.2852H76.3696V8.60516H74.4496V16.2852ZM74.1776 5.99716C74.1776 6.60516 74.6896 7.14916 75.3936 7.14916C76.0976 7.14916 76.6416 6.65316 76.6416 5.99716C76.6416 5.34116 76.0976 4.84516 75.3936 4.84516C74.6896 4.84516 74.1776 5.38916 74.1776 5.99716ZM78.7309 16.2852H80.6509V4.18916H78.7309V16.2852ZM83.0121 16.2852H84.9321V4.18916H83.0121V16.2852ZM91.2934 4.18916V16.2852H93.1174V15.1332H93.1494C93.6774 16.0132 94.7174 16.5092 95.7894 16.5092C98.1254 16.5092 99.5654 14.6532 99.5654 12.4132C99.5654 10.1412 98.0294 8.38116 95.8374 8.38116C94.4294 8.38116 93.6614 9.08516 93.2614 9.58116H93.2134V4.18916H91.2934ZM97.6134 12.4132C97.6134 13.6132 96.8934 14.9092 95.4054 14.9092C93.9974 14.9092 93.1494 13.6452 93.1494 12.4452C93.1494 11.2452 93.9974 9.94916 95.4054 9.94916C96.8934 9.94916 97.6134 11.2132 97.6134 12.4132ZM102.89 11.6772C102.97 10.6052 103.882 9.82116 105.018 9.82116C106.266 9.82116 106.826 10.6852 106.826 11.6772H102.89ZM108.746 12.5412C108.746 9.77316 107.178 8.38116 105.034 8.38116C102.714 8.38116 100.97 10.0132 100.97 12.4932C100.97 14.9892 102.73 16.5092 105.098 16.5092C106.554 16.5092 107.642 15.9972 108.394 14.9732L107.114 13.9492C106.682 14.5572 106.042 14.9412 105.082 14.9412C103.962 14.9412 102.97 14.1412 102.89 13.0532H108.73C108.746 12.8772 108.746 12.7172 108.746 12.5412ZM114.605 8.60516V20.1252H116.525V15.2612H116.557C117.053 16.0292 118.029 16.5092 119.101 16.5092C121.437 16.5092 122.877 14.6532 122.877 12.4132C122.877 10.1412 121.341 8.38116 119.149 8.38116C117.741 8.38116 116.877 9.06916 116.493 9.67716H116.445V8.60516H114.605ZM120.925 12.4132C120.925 13.6132 120.205 14.9092 118.717 14.9092C117.309 14.9092 116.461 13.6452 116.461 12.4452C116.461 11.2452 117.309 9.94916 118.717 9.94916C120.205 9.94916 120.925 11.2132 120.925 12.4132ZM124.282 12.4132C124.282 14.8292 126.138 16.5092 128.458 16.5092C130.778 16.5092 132.634 14.8292 132.634 12.4132C132.634 9.99716 130.778 8.38116 128.458 8.38116C126.138 8.38116 124.282 9.99716 124.282 12.4132ZM126.234 12.4132C126.234 11.2132 126.938 9.94916 128.458 9.94916C129.978 9.94916 130.682 11.2132 130.682 12.4132C130.682 13.6132 129.978 14.9092 128.458 14.9092C126.938 14.9092 126.234 13.6132 126.234 12.4132ZM139.952 9.54916C139.328 8.76516 138.176 8.38116 137.072 8.38116C135.552 8.38116 134.016 9.11716 134.016 10.8292C134.016 12.2692 135.152 12.7332 136.288 13.0052C137.456 13.2772 138.048 13.4692 138.048 14.1092C138.048 14.7972 137.376 15.0212 136.816 15.0212C135.984 15.0212 135.264 14.6052 134.848 14.0612L133.584 15.2452C134.32 16.0612 135.552 16.5092 136.736 16.5092C138.416 16.5092 139.936 15.8212 139.936 13.9492C139.936 12.4452 138.592 11.9332 137.456 11.6612C136.384 11.4052 135.792 11.2452 135.792 10.6532C135.792 10.0452 136.416 9.82116 137.024 9.82116C137.728 9.82116 138.368 10.2052 138.704 10.6532L139.952 9.54916ZM141.845 10.1412V13.7252C141.845 15.1972 142.309 16.4452 144.341 16.4452C144.773 16.4452 145.285 16.3652 145.621 16.2372L145.557 14.7332C145.333 14.8452 144.997 14.8932 144.741 14.8932C143.893 14.8932 143.733 14.3972 143.733 13.7092V10.1412H145.653V8.60516H143.733V6.38116H141.845V8.60516H140.501V10.1412H141.845ZM148.515 11.6772C148.595 10.6052 149.507 9.82116 150.643 9.82116C151.891 9.82116 152.451 10.6852 152.451 11.6772H148.515ZM154.371 12.5412C154.371 9.77316 152.803 8.38116 150.659 8.38116C148.339 8.38116 146.595 10.0132 146.595 12.4932C146.595 14.9892 148.355 16.5092 150.723 16.5092C152.179 16.5092 153.267 15.9972 154.019 14.9732L152.739 13.9492C152.307 14.5572 151.667 14.9412 150.707 14.9412C149.587 14.9412 148.595 14.1412 148.515 13.0532H154.355C154.371 12.8772 154.371 12.7172 154.371 12.5412ZM164.038 4.18916H162.118V9.58116H162.07C161.67 9.08516 160.902 8.38116 159.494 8.38116C157.302 8.38116 155.766 10.1412 155.766 12.4132C155.766 14.6532 157.206 16.5092 159.542 16.5092C160.614 16.5092 161.654 16.0132 162.182 15.1332H162.214V16.2852H164.038V4.18916ZM157.718 12.4132C157.718 11.2132 158.438 9.94916 159.926 9.94916C161.334 9.94916 162.182 11.2452 162.182 12.4452C162.182 13.6452 161.334 14.9092 159.926 14.9092C158.438 14.9092 157.718 13.6132 157.718 12.4132ZM170.403 16.2852H172.323V8.60516H170.403V16.2852ZM170.131 5.99716C170.131 6.60516 170.643 7.14916 171.347 7.14916C172.051 7.14916 172.595 6.65316 172.595 5.99716C172.595 5.34116 172.051 4.84516 171.347 4.84516C170.643 4.84516 170.131 5.38916 170.131 5.99716ZM174.652 16.2852H176.572V12.0612C176.572 11.0372 177.148 9.98116 178.364 9.98116C179.596 9.98116 179.804 11.1172 179.804 12.0292V16.2852H181.724V11.4852C181.724 9.91716 180.892 8.38116 178.892 8.38116C177.756 8.38116 176.844 9.06916 176.508 9.83716H176.476V8.60516H174.652V16.2852ZM183.933 15.1652C183.933 15.8532 184.541 16.3812 185.213 16.3812C185.917 16.3812 186.493 15.8212 186.493 15.1332C186.493 14.4452 185.901 13.9172 185.213 13.9172C184.509 13.9172 183.933 14.4772 183.933 15.1652ZM183.933 9.75716C183.933 10.4452 184.541 10.9732 185.213 10.9732C185.917 10.9732 186.493 10.4132 186.493 9.72516C186.493 9.03716 185.901 8.50916 185.213 8.50916C184.509 8.50916 183.933 9.06916 183.933 9.75716Z" fill="#35435E"/>
<path d="M30.4592 44.2424C31.4992 44.2424 31.7872 45.0744 31.7872 45.8904C31.7872 46.9464 31.2432 48.5784 29.7712 48.5784C28.7312 48.5784 28.4912 47.5384 28.4912 46.9304C28.4912 45.6824 29.1952 44.2424 30.4592 44.2424ZM34.9712 49.7144C33.8832 50.7704 32.5392 51.3944 30.6512 51.3944C27.6752 51.3944 25.6272 49.4904 25.6272 46.4664C25.6272 43.6184 27.5952 41.4424 30.5232 41.4424C33.1952 41.4424 35.1312 42.9304 35.1312 45.6984C35.1312 47.3144 34.4112 48.5784 33.3552 48.5784C32.6672 48.5784 32.5712 48.1464 32.5712 47.7784C32.5712 47.4584 32.6832 46.7864 32.7472 46.4984L33.3872 43.5224H32.3952L32.2352 44.2424H32.1712C31.9472 43.7144 31.3232 43.2824 30.5072 43.2824C28.5392 43.2824 27.3232 45.0584 27.3232 46.8664C27.3232 48.4024 28.2032 49.5064 29.6432 49.5064C30.6992 49.5064 31.4352 48.7864 31.6432 48.3384H31.7072C31.7072 48.9464 32.1552 49.5064 33.0992 49.5064C34.7472 49.5064 36.2032 48.1624 36.2032 45.5864C36.2032 42.1464 33.4512 40.4504 30.5392 40.4504C27.1632 40.4504 24.4272 43.0104 24.4272 46.4184C24.4272 49.8904 26.8752 52.3544 30.5392 52.3544C32.5712 52.3544 34.3152 51.7304 35.5632 50.4504L34.9712 49.7144ZM44.5681 41.8264C44.0241 41.0904 42.8881 40.4504 41.3681 40.4504C39.7041 40.4504 37.7521 41.3784 37.7521 43.5704C37.7521 45.6184 39.2881 46.2744 40.7921 46.7384C42.2321 47.1864 43.5601 47.5864 43.5601 49.1704C43.5601 50.6264 42.2161 51.3624 41.0481 51.3624C39.8641 51.3624 38.9521 50.7384 38.4561 49.9384L37.4641 50.6744C38.2801 51.7944 39.6561 52.3544 41.0321 52.3544C42.8241 52.3544 44.7281 51.3624 44.7281 49.0904C44.7281 46.8184 42.9681 46.3064 41.3681 45.7784C40.1041 45.3624 38.9041 44.9944 38.9041 43.5544C38.9041 42.0984 40.2001 41.4264 41.3201 41.4264C42.3921 41.4264 43.1761 41.8744 43.6561 42.5624L44.5681 41.8264ZM48.2393 44.5784H47.1513V52.0664H48.2393V44.5784ZM48.4633 41.6984C48.4633 41.2504 48.0793 40.9304 47.6953 40.9304C47.3113 40.9304 46.9273 41.2504 46.9273 41.6984C46.9273 42.1464 47.3113 42.4664 47.6953 42.4664C48.0793 42.4664 48.4633 42.1464 48.4633 41.6984ZM51.0713 44.5784C51.1193 45.0904 51.1353 45.8264 51.1353 46.2264V52.0664H52.2233V48.2264C52.2233 46.2264 53.3433 45.2984 54.4953 45.2984C56.0633 45.2984 56.5273 46.3544 56.5273 47.9224V52.0664H57.6153V47.4744C57.6153 45.6184 56.6713 44.3864 54.7673 44.3864C53.7113 44.3864 52.6233 44.9944 52.2073 45.8584H52.1753C52.1753 45.5384 52.1433 44.9784 52.1113 44.5784H51.0713ZM60.0482 54.4024C60.9282 55.3304 62.2722 55.9064 63.6482 55.9064C66.9602 55.9064 67.7122 53.6344 67.7122 52.0024V44.5784H66.6242V45.8744H66.5922C66.0002 44.9144 64.8482 44.3864 63.7602 44.3864C61.4242 44.3864 59.8882 46.1304 59.8882 48.2584C59.8882 50.4504 61.4242 52.0664 63.7602 52.0664C64.8482 52.0664 66.0162 51.5224 66.5922 50.5944H66.6242V52.0024C66.6242 53.6184 65.8402 54.9464 63.6962 54.9464C62.5602 54.9464 61.4242 54.3384 60.8322 53.5704L60.0482 54.4024ZM61.0402 48.2264C61.0402 46.6584 62.0642 45.2984 63.8722 45.2984C65.5522 45.2984 66.7522 46.6584 66.7522 48.2264C66.7522 49.9544 65.5522 51.1384 63.8722 51.1384C62.0642 51.1384 61.0402 49.7944 61.0402 48.2264ZM75.2616 47.4744C72.5256 47.4744 69.9816 47.6824 69.9816 49.9864C69.9816 51.6504 71.4376 52.2584 72.5736 52.2584C73.7736 52.2584 74.6056 51.8424 75.2936 50.8504H75.3256C75.3256 51.2504 75.3736 51.6984 75.4376 52.0664H76.4136C76.3336 51.6504 76.2856 50.9624 76.2856 50.3864V47.1064C76.2856 45.2824 74.9896 44.3864 73.3736 44.3864C72.0936 44.3864 71.0376 44.8504 70.4296 45.4584L71.0376 46.1784C71.5656 45.6504 72.3816 45.2984 73.2616 45.2984C74.5576 45.2984 75.2616 45.9384 75.2616 47.2344V47.4744ZM75.2616 48.3224V48.8824C75.2616 50.2104 74.3976 51.3624 72.8616 51.3624C72.0136 51.3624 71.1016 51.0104 71.1016 49.9384C71.1016 48.5144 73.1656 48.3224 74.9416 48.3224H75.2616ZM80.1764 50.8024H80.2244C80.8484 51.7304 81.9684 52.2584 83.0404 52.2584C85.3764 52.2584 86.9124 50.5304 86.9124 48.3224C86.9124 46.1144 85.3764 44.3864 83.0404 44.3864C81.9684 44.3864 80.8484 44.8984 80.2244 45.8744H80.1764V44.5784H79.0884V55.9064H80.1764V50.8024ZM85.7604 48.3224C85.7604 49.9864 84.7364 51.3304 82.9284 51.3304C81.2484 51.3304 80.0484 50.0344 80.0484 48.3224C80.0484 46.6104 81.2484 45.2984 82.9284 45.2984C84.7364 45.2984 85.7604 46.6584 85.7604 48.3224ZM96.6847 48.3224C96.6847 46.0664 95.0207 44.3864 92.6847 44.3864C90.3647 44.3864 88.7007 46.0664 88.7007 48.3224C88.7007 50.5784 90.3647 52.2584 92.6847 52.2584C95.0207 52.2584 96.6847 50.5784 96.6847 48.3224ZM95.5327 48.3224C95.5327 50.0024 94.4287 51.3304 92.6847 51.3304C90.9567 51.3304 89.8527 50.0024 89.8527 48.3224C89.8527 46.6424 90.9567 45.2984 92.6847 45.2984C94.4287 45.2984 95.5327 46.6424 95.5327 48.3224ZM99.0259 46.2264V52.0664H100.114V48.2264C100.114 46.2264 101.154 45.3944 102.306 45.3944C102.594 45.3944 102.946 45.4424 103.074 45.4904L103.218 44.4664C102.994 44.4024 102.77 44.3864 102.498 44.3864C101.442 44.3864 100.514 44.9944 100.098 45.8584H100.066C100.066 45.5384 100.034 44.9784 100.002 44.5784H98.9619C99.0099 45.0904 99.0259 45.8264 99.0259 46.2264ZM105.118 47.7464C105.214 46.4664 106.286 45.2984 107.742 45.2984C109.294 45.2984 110.158 46.3384 110.222 47.7464H105.118ZM111.326 48.0984C111.326 46.0504 110.094 44.3864 107.742 44.3864C105.614 44.3864 103.966 46.0664 103.966 48.3224C103.966 50.5784 105.614 52.2584 107.838 52.2584C109.07 52.2584 110.174 51.7944 111.054 50.6744L110.238 50.0344C109.822 50.7064 108.958 51.3304 107.838 51.3304C106.302 51.3304 105.134 50.1144 105.102 48.6104H111.31C111.326 48.4184 111.326 48.2424 111.326 48.0984ZM112.227 54.0664H120.227V53.2664H112.227V54.0664ZM120.627 50.0504C120.899 51.3944 122.035 52.3544 123.667 52.3544C126.147 52.3544 126.691 50.2744 126.691 48.8024V40.7384H125.539V48.7224C125.539 50.0824 125.123 51.3464 123.539 51.3464C122.531 51.3464 121.875 50.6424 121.699 49.7624L120.627 50.0504ZM136.982 48.3224C136.982 46.0664 135.318 44.3864 132.982 44.3864C130.662 44.3864 128.998 46.0664 128.998 48.3224C128.998 50.5784 130.662 52.2584 132.982 52.2584C135.318 52.2584 136.982 50.5784 136.982 48.3224ZM135.83 48.3224C135.83 50.0024 134.726 51.3304 132.982 51.3304C131.254 51.3304 130.15 50.0024 130.15 48.3224C130.15 46.6424 131.254 45.2984 132.982 45.2984C134.726 45.2984 135.83 46.6424 135.83 48.3224ZM140.475 50.8024C141.115 51.7464 142.235 52.2584 143.307 52.2584C145.643 52.2584 147.179 50.5304 147.179 48.3224C147.179 46.1144 145.643 44.3864 143.307 44.3864C142.235 44.3864 141.115 44.8984 140.475 45.8744H140.443V39.9704H139.355V52.0664H140.443V50.8024H140.475ZM146.027 48.3224C146.027 49.9864 145.003 51.3304 143.195 51.3304C141.515 51.3304 140.315 50.0344 140.315 48.3224C140.315 46.6104 141.515 45.2984 143.195 45.2984C145.003 45.2984 146.027 46.6584 146.027 48.3224ZM154.326 45.7304C153.846 44.8824 152.742 44.3864 151.702 44.3864C150.342 44.3864 149.03 45.0424 149.03 46.5624C149.03 47.9864 150.294 48.3704 151.174 48.5784C152.598 48.9144 153.382 49.2344 153.382 50.0184C153.382 50.9944 152.55 51.3304 151.622 51.3304C150.742 51.3304 149.926 50.8184 149.542 50.1624L148.678 50.8024C149.366 51.8104 150.502 52.2584 151.638 52.2584C153.014 52.2584 154.454 51.6504 154.454 49.9384C154.454 48.7704 153.622 48.1144 151.862 47.7464C150.63 47.4904 150.07 47.1704 150.07 46.4664C150.07 45.6344 150.87 45.2984 151.654 45.2984C152.486 45.2984 153.174 45.7304 153.494 46.3544L154.326 45.7304ZM155.18 54.0664H163.18V53.2664H155.18V54.0664ZM171.084 41.8264C170.54 41.0904 169.404 40.4504 167.884 40.4504C166.22 40.4504 164.268 41.3784 164.268 43.5704C164.268 45.6184 165.804 46.2744 167.308 46.7384C168.748 47.1864 170.076 47.5864 170.076 49.1704C170.076 50.6264 168.732 51.3624 167.564 51.3624C166.38 51.3624 165.468 50.7384 164.972 49.9384L163.98 50.6744C164.796 51.7944 166.172 52.3544 167.548 52.3544C169.34 52.3544 171.244 51.3624 171.244 49.0904C171.244 46.8184 169.484 46.3064 167.884 45.7784C166.62 45.3624 165.42 44.9944 165.42 43.5544C165.42 42.0984 166.716 41.4264 167.836 41.4264C168.908 41.4264 169.692 41.8744 170.172 42.5624L171.084 41.8264ZM183.107 41.9704C182.147 41.0264 180.803 40.4504 179.011 40.4504C175.635 40.4504 173.107 42.9624 173.107 46.4024C173.107 49.8424 175.587 52.3544 179.011 52.3544C180.547 52.3544 182.003 51.9864 183.235 51.2504V46.1464H179.443V47.1544H182.083V50.5944C181.427 51.0264 180.307 51.3304 179.027 51.3304C176.115 51.3304 174.323 49.0424 174.323 46.4024C174.323 43.7624 176.115 41.4584 179.027 41.4584C180.435 41.4584 181.523 41.9384 182.307 42.7704L183.107 41.9704Z" fill="#35435E"/>
<path d="M9.52309 54.6673C14.2745 54.6673 18.1243 50.8175 18.1243 46.0661C18.1243 41.3146 14.2745 37.4648 9.52309 37.4648C4.77164 37.4648 0.921875 41.3146 0.921875 46.0661C0.921875 50.8175 4.77164 54.6673 9.52309 54.6673ZM4.85765 45.8797L13.1507 42.6822C13.5356 42.5431 13.8717 42.7761 13.747 43.3581L13.7477 43.3574L12.3357 50.0097C12.231 50.4813 11.9508 50.596 11.5587 50.3738L9.40841 48.7891L8.37124 49.7882C8.25656 49.9029 8.1598 49.9997 7.9376 49.9997L8.09027 47.8114L12.0755 44.2111C12.249 44.0584 12.0368 43.9724 11.8081 44.1243L6.88323 47.2251L4.76017 46.5628C4.29929 46.4166 4.28925 46.1019 4.85765 45.8797Z" fill="#0CB6EC"/>
<path d="M2.32613 103.188H4.34213V98.4995H5.89413C8.29413 98.4995 10.2941 97.6355 10.2941 95.1395C10.2941 92.7715 8.61413 91.8595 6.02213 91.8595H2.32613V103.188ZM4.34213 96.8035V93.5555H5.81413C7.06213 93.5555 8.26213 93.7955 8.26213 95.1395C8.26213 96.4835 7.06213 96.8035 5.75013 96.8035H4.34213ZM15.8731 103.188H17.6651V98.5155C17.6651 96.9795 16.9931 95.2835 14.2411 95.2835C13.0731 95.2835 11.8571 95.6995 10.9931 96.4995L11.9851 97.6675C12.4811 97.1715 13.2651 96.7875 14.0811 96.7875C15.0411 96.7875 15.8411 97.2515 15.8411 98.1955V98.3875C13.4411 98.3875 10.5611 98.7075 10.5611 100.995C10.5611 102.787 12.2091 103.38 13.4411 103.38C14.5291 103.38 15.4411 102.883 15.8251 102.211H15.8731V103.188ZM15.8411 99.9555C15.8411 101.171 15.1371 101.923 13.8251 101.923C13.1691 101.923 12.4811 101.699 12.4811 100.963C12.4811 99.8275 14.1931 99.6835 15.4091 99.6835H15.8411V99.9555ZM19.902 103.188H21.822V99.0755C21.822 98.5155 22.158 97.0115 23.886 97.0115C24.062 97.0115 24.222 97.0275 24.478 97.0915V95.3315C24.35 95.2995 24.158 95.2835 24.014 95.2835C23.006 95.2835 22.19 95.9075 21.774 96.7875H21.742V95.5075H19.902V103.188ZM25.7826 97.0435V100.627C25.7826 102.099 26.2466 103.348 28.2786 103.348C28.7106 103.348 29.2226 103.268 29.5586 103.139L29.4946 101.635C29.2706 101.747 28.9346 101.795 28.6786 101.795C27.8306 101.795 27.6706 101.299 27.6706 100.611V97.0435H29.5906V95.5075H27.6706V93.2835H25.7826V95.5075H24.4386V97.0435H25.7826ZM35.2201 97.0435V100.627C35.2201 102.099 35.6841 103.348 37.7161 103.348C38.1481 103.348 38.6601 103.268 38.9961 103.139L38.9321 101.635C38.7081 101.747 38.3721 101.795 38.1161 101.795C37.2681 101.795 37.1081 101.299 37.1081 100.611V97.0435H39.0281V95.5075H37.1081V93.2835H35.2201V95.5075H33.8761V97.0435H35.2201ZM40.4496 103.188H42.3696V95.5075H40.4496V103.188ZM40.1776 92.8995C40.1776 93.5075 40.6896 94.0515 41.3936 94.0515C42.0976 94.0515 42.6416 93.5555 42.6416 92.8995C42.6416 92.2435 42.0976 91.7475 41.3936 91.7475C40.6896 91.7475 40.1776 92.2915 40.1776 92.8995ZM53.8669 95.2835C52.7149 95.2835 51.8509 95.8115 51.3389 96.7395C50.9069 95.8755 50.1229 95.2835 48.9389 95.2835C47.7069 95.2835 46.8909 95.9875 46.5549 96.7395H46.5229V95.5075H44.6989V103.188H46.6189V98.9635C46.6189 97.9395 47.1469 96.8835 48.2989 96.8835C49.2749 96.8835 49.7229 97.6035 49.7229 98.5475V103.188H51.6429V98.9955C51.6429 98.0035 52.1389 96.8835 53.3389 96.8835C54.5709 96.8835 54.7789 98.0195 54.7789 98.9315V103.188H56.6989V98.3875C56.6989 96.8195 55.8669 95.2835 53.8669 95.2835ZM60.4053 98.5795C60.4853 97.5075 61.3973 96.7235 62.5333 96.7235C63.7813 96.7235 64.3413 97.5875 64.3413 98.5795H60.4053ZM66.2613 99.4435C66.2613 96.6755 64.6933 95.2835 62.5493 95.2835C60.2293 95.2835 58.4853 96.9155 58.4853 99.3955C58.4853 101.891 60.2453 103.412 62.6133 103.412C64.0693 103.412 65.1573 102.899 65.9093 101.875L64.6293 100.851C64.1973 101.459 63.5573 101.843 62.5973 101.843C61.4773 101.843 60.4853 101.043 60.4053 99.9555H66.2453C66.2613 99.7795 66.2613 99.6195 66.2613 99.4435ZM72.0888 102.067C72.0888 102.755 72.6968 103.284 73.3688 103.284C74.0728 103.284 74.6488 102.723 74.6488 102.035C74.6488 101.347 74.0568 100.819 73.3688 100.819C72.6648 100.819 72.0888 101.379 72.0888 102.067ZM72.0888 96.6595C72.0888 97.3475 72.6968 97.8755 73.3688 97.8755C74.0728 97.8755 74.6488 97.3155 74.6488 96.6275C74.6488 95.9395 74.0568 95.4115 73.3688 95.4115C72.6648 95.4115 72.0888 95.9715 72.0888 96.6595Z" fill="#35435E"/>
<path d="M30.7326 134.446C31.7726 134.446 32.0606 135.278 32.0606 136.094C32.0606 137.15 31.5166 138.782 30.0446 138.782C29.0046 138.782 28.7646 137.742 28.7646 137.134C28.7646 135.886 29.4686 134.446 30.7326 134.446ZM35.2446 139.918C34.1566 140.974 32.8126 141.598 30.9246 141.598C27.9486 141.598 25.9006 139.694 25.9006 136.67C25.9006 133.822 27.8686 131.646 30.7966 131.646C33.4686 131.646 35.4046 133.134 35.4046 135.902C35.4046 137.518 34.6846 138.782 33.6286 138.782C32.9406 138.782 32.8446 138.35 32.8446 137.982C32.8446 137.662 32.9566 136.99 33.0206 136.702L33.6606 133.726H32.6686L32.5086 134.446H32.4446C32.2206 133.918 31.5966 133.486 30.7806 133.486C28.8126 133.486 27.5966 135.262 27.5966 137.07C27.5966 138.606 28.4766 139.71 29.9166 139.71C30.9726 139.71 31.7086 138.99 31.9166 138.542H31.9806C31.9806 139.15 32.4286 139.71 33.3726 139.71C35.0206 139.71 36.4766 138.366 36.4766 135.79C36.4766 132.35 33.7246 130.654 30.8126 130.654C27.4366 130.654 24.7006 133.214 24.7006 136.622C24.7006 140.094 27.1486 142.558 30.8126 142.558C32.8446 142.558 34.5886 141.934 35.8366 140.654L35.2446 139.918ZM44.8415 132.03C44.2975 131.294 43.1615 130.654 41.6415 130.654C39.9775 130.654 38.0255 131.582 38.0255 133.774C38.0255 135.822 39.5615 136.478 41.0655 136.942C42.5055 137.39 43.8335 137.79 43.8335 139.374C43.8335 140.83 42.4895 141.566 41.3215 141.566C40.1375 141.566 39.2255 140.942 38.7295 140.142L37.7375 140.878C38.5535 141.998 39.9295 142.558 41.3055 142.558C43.0975 142.558 45.0015 141.566 45.0015 139.294C45.0015 137.022 43.2415 136.51 41.6415 135.982C40.3775 135.566 39.1775 135.198 39.1775 133.758C39.1775 132.302 40.4735 131.63 41.5935 131.63C42.6655 131.63 43.4495 132.078 43.9295 132.766L44.8415 132.03ZM47.0247 144.606C47.9048 145.534 49.2488 146.11 50.6248 146.11C53.9368 146.11 54.6888 143.838 54.6888 142.206V134.782H53.6008V136.078H53.5688C52.9768 135.118 51.8248 134.59 50.7368 134.59C48.4008 134.59 46.8648 136.334 46.8648 138.462C46.8648 140.654 48.4008 142.27 50.7368 142.27C51.8248 142.27 52.9928 141.726 53.5688 140.798H53.6008V142.206C53.6008 143.822 52.8168 145.15 50.6727 145.15C49.5368 145.15 48.4008 144.542 47.8088 143.774L47.0247 144.606ZM48.0168 138.43C48.0168 136.862 49.0408 135.502 50.8488 135.502C52.5288 135.502 53.7288 136.862 53.7288 138.43C53.7288 140.158 52.5288 141.342 50.8488 141.342C49.0408 141.342 48.0168 139.998 48.0168 138.43ZM57.5821 142.27H58.7341V137.006H60.7501C63.0541 137.006 64.6061 135.998 64.6061 133.966C64.6061 131.934 63.0861 130.942 60.7821 130.942H57.5821V142.27ZM58.7341 131.934H60.6861C62.4301 131.934 63.4541 132.574 63.4541 133.966C63.4541 135.31 62.4781 136.03 60.6861 136.03H58.7341V131.934ZM70.5663 137.678C67.8303 137.678 65.2863 137.886 65.2863 140.19C65.2863 141.854 66.7423 142.462 67.8783 142.462C69.0783 142.462 69.9103 142.046 70.5983 141.054H70.6303C70.6303 141.454 70.6783 141.902 70.7423 142.27H71.7183C71.6383 141.854 71.5903 141.166 71.5903 140.59V137.31C71.5903 135.486 70.2943 134.59 68.6783 134.59C67.3983 134.59 66.3423 135.054 65.7343 135.662L66.3423 136.382C66.8703 135.854 67.6863 135.502 68.5663 135.502C69.8623 135.502 70.5663 136.142 70.5663 137.438V137.678ZM70.5663 138.526V139.086C70.5663 140.414 69.7023 141.566 68.1663 141.566C67.3183 141.566 66.4062 141.214 66.4062 140.142C66.4062 138.718 68.4703 138.526 70.2463 138.526H70.5663ZM74.3931 136.43V142.27H75.4811V138.43C75.4811 136.43 76.5211 135.598 77.6731 135.598C77.9611 135.598 78.3131 135.646 78.4411 135.694L78.5851 134.67C78.3611 134.606 78.1371 134.59 77.8651 134.59C76.8091 134.59 75.8811 135.198 75.4651 136.062H75.4331C75.4331 135.742 75.4011 135.182 75.3691 134.782H74.3291C74.3771 135.294 74.3931 136.03 74.3931 136.43ZM83.3473 134.782H81.2353V132.67H80.1473V134.782H78.5953V135.694H80.1473V140.366C80.1473 142.014 81.2673 142.366 82.0673 142.366C82.5633 142.366 82.9633 142.286 83.3473 142.142L83.2993 141.198C83.0113 141.342 82.6593 141.438 82.3553 141.438C81.6993 141.438 81.2353 141.182 81.2353 140.062V135.694H83.3473V134.782ZM88.7454 131.966H92.5374V130.942H83.8014V131.966H87.5934V142.27H88.7454V131.966ZM95.0909 134.782H94.0029V142.27H95.0909V134.782ZM95.3149 131.902C95.3149 131.454 94.9309 131.134 94.5469 131.134C94.1629 131.134 93.7789 131.454 93.7789 131.902C93.7789 132.35 94.1629 132.67 94.5469 132.67C94.9309 132.67 95.3149 132.35 95.3149 131.902ZM99.0589 136.062H99.0269C99.0269 135.742 98.9949 135.182 98.9629 134.782H97.9229C97.9709 135.294 97.9869 136.03 97.9869 136.43V142.27H99.0749V138.43C99.0749 136.43 100.211 135.502 101.251 135.502C102.707 135.502 103.059 136.446 103.059 137.902V142.27H104.147V138.286C104.147 136.894 104.707 135.502 106.275 135.502C107.683 135.502 108.211 136.558 108.211 138.126V142.27H109.299V137.678C109.299 135.822 108.355 134.59 106.451 134.59C105.251 134.59 104.339 135.15 103.827 136.174C103.331 134.894 102.339 134.59 101.523 134.59C100.451 134.59 99.4909 135.198 99.0589 136.062ZM112.72 137.95C112.816 136.67 113.888 135.502 115.344 135.502C116.896 135.502 117.76 136.542 117.824 137.95H112.72ZM118.928 138.302C118.928 136.254 117.696 134.59 115.344 134.59C113.216 134.59 111.568 136.27 111.568 138.526C111.568 140.782 113.216 142.462 115.44 142.462C116.672 142.462 117.776 141.998 118.656 140.878L117.84 140.238C117.424 140.91 116.56 141.534 115.44 141.534C113.904 141.534 112.736 140.318 112.704 138.814H118.912C118.928 138.622 118.928 138.446 118.928 138.302ZM122.484 139.294H128.34L129.588 142.27H130.868L126.004 130.942H124.884L119.988 142.27H121.252L122.484 139.294ZM125.412 132.222L127.908 138.238H122.916L125.412 132.222ZM132.087 144.606C132.967 145.534 134.311 146.11 135.687 146.11C138.999 146.11 139.751 143.838 139.751 142.206V134.782H138.663V136.078H138.631C138.039 135.118 136.887 134.59 135.799 134.59C133.463 134.59 131.927 136.334 131.927 138.462C131.927 140.654 133.463 142.27 135.799 142.27C136.887 142.27 138.055 141.726 138.631 140.798H138.663V142.206C138.663 143.822 137.879 145.15 135.735 145.15C134.599 145.15 133.463 144.542 132.871 143.774L132.087 144.606ZM133.079 138.43C133.079 136.862 134.103 135.502 135.911 135.502C137.591 135.502 138.791 136.862 138.791 138.43C138.791 140.158 137.591 141.342 135.911 141.342C134.103 141.342 133.079 139.998 133.079 138.43ZM143.189 137.95C143.285 136.67 144.357 135.502 145.813 135.502C147.365 135.502 148.229 136.542 148.293 137.95H143.189ZM149.397 138.302C149.397 136.254 148.165 134.59 145.813 134.59C143.685 134.59 142.037 136.27 142.037 138.526C142.037 140.782 143.685 142.462 145.909 142.462C147.141 142.462 148.245 141.998 149.125 140.878L148.309 140.238C147.893 140.91 147.029 141.534 145.909 141.534C144.373 141.534 143.205 140.318 143.173 138.814H149.381C149.397 138.622 149.397 138.446 149.397 138.302ZM151.673 134.782C151.721 135.294 151.737 136.03 151.737 136.43V142.27H152.825V138.43C152.825 136.43 153.945 135.502 155.097 135.502C156.665 135.502 157.129 136.558 157.129 138.126V142.27H158.217V137.678C158.217 135.822 157.273 134.59 155.369 134.59C154.313 134.59 153.225 135.198 152.809 136.062H152.777C152.777 135.742 152.745 135.182 152.713 134.782H151.673ZM167.274 135.886C166.634 135.022 165.498 134.59 164.49 134.59C162.074 134.59 160.49 136.27 160.49 138.526C160.49 140.782 162.074 142.462 164.49 142.462C165.786 142.462 166.698 141.95 167.338 141.166L166.522 140.558C166.09 141.134 165.434 141.534 164.49 141.534C162.746 141.534 161.642 140.222 161.642 138.526C161.642 136.814 162.762 135.502 164.506 135.502C165.322 135.502 166.074 135.918 166.426 136.494L167.274 135.886ZM169.066 134.782H167.85L171.05 142.254L170.442 143.822C170.122 144.67 169.738 145.15 169.002 145.15C168.714 145.15 168.442 145.102 168.202 145.022L168.09 146.014C168.41 146.078 168.746 146.11 169.066 146.11C170.362 146.11 170.97 145.358 171.418 144.206L175.146 134.782H173.962L171.642 141.102H171.61L169.066 134.782Z" fill="#35435E"/>
<path d="M30.7326 162.213C31.7726 162.213 32.0606 163.045 32.0606 163.861C32.0606 164.917 31.5166 166.549 30.0446 166.549C29.0046 166.549 28.7646 165.509 28.7646 164.901C28.7646 163.653 29.4686 162.213 30.7326 162.213ZM35.2446 167.685C34.1566 168.741 32.8126 169.365 30.9246 169.365C27.9486 169.365 25.9006 167.461 25.9006 164.437C25.9006 161.589 27.8686 159.413 30.7966 159.413C33.4686 159.413 35.4046 160.901 35.4046 163.669C35.4046 165.285 34.6846 166.549 33.6286 166.549C32.9406 166.549 32.8446 166.117 32.8446 165.749C32.8446 165.429 32.9566 164.757 33.0206 164.469L33.6606 161.493H32.6686L32.5086 162.213H32.4446C32.2206 161.685 31.5966 161.253 30.7806 161.253C28.8126 161.253 27.5966 163.029 27.5966 164.837C27.5966 166.373 28.4766 167.477 29.9166 167.477C30.9726 167.477 31.7086 166.757 31.9166 166.309H31.9806C31.9806 166.917 32.4286 167.477 33.3726 167.477C35.0206 167.477 36.4766 166.133 36.4766 163.557C36.4766 160.117 33.7246 158.421 30.8126 158.421C27.4366 158.421 24.7006 160.981 24.7006 164.389C24.7006 167.861 27.1486 170.325 30.8126 170.325C32.8446 170.325 34.5886 169.701 35.8366 168.421L35.2446 167.685ZM37.3375 168.021C37.6095 169.365 38.7455 170.325 40.3775 170.325C42.8575 170.325 43.4015 168.245 43.4015 166.773V158.709H42.2495V166.693C42.2495 168.053 41.8335 169.317 40.2495 169.317C39.2415 169.317 38.5855 168.613 38.4095 167.733L37.3375 168.021ZM53.6925 166.293C53.6925 164.037 52.0285 162.357 49.6925 162.357C47.3725 162.357 45.7085 164.037 45.7085 166.293C45.7085 168.549 47.3725 170.229 49.6925 170.229C52.0285 170.229 53.6925 168.549 53.6925 166.293ZM52.5405 166.293C52.5405 167.973 51.4365 169.301 49.6925 169.301C47.9645 169.301 46.8605 167.973 46.8605 166.293C46.8605 164.613 47.9645 163.269 49.6925 163.269C51.4365 163.269 52.5405 164.613 52.5405 166.293ZM57.1858 168.773C57.8258 169.717 58.9458 170.229 60.0178 170.229C62.3538 170.229 63.8898 168.501 63.8898 166.293C63.8898 164.085 62.3538 162.357 60.0178 162.357C58.9458 162.357 57.8258 162.869 57.1858 163.845H57.1538V157.941H56.0658V170.037H57.1538V168.773H57.1858ZM62.7378 166.293C62.7378 167.957 61.7138 169.301 59.9058 169.301C58.2258 169.301 57.0258 168.005 57.0258 166.293C57.0258 164.581 58.2258 163.269 59.9058 163.269C61.7138 163.269 62.7378 164.629 62.7378 166.293ZM71.0373 163.701C70.5573 162.853 69.4533 162.357 68.4133 162.357C67.0533 162.357 65.7413 163.013 65.7413 164.533C65.7413 165.957 67.0053 166.341 67.8853 166.549C69.3093 166.885 70.0933 167.205 70.0933 167.989C70.0933 168.965 69.2613 169.301 68.3333 169.301C67.4533 169.301 66.6373 168.789 66.2533 168.133L65.3893 168.773C66.0773 169.781 67.2133 170.229 68.3493 170.229C69.7253 170.229 71.1653 169.621 71.1653 167.909C71.1653 166.741 70.3333 166.085 68.5733 165.717C67.3413 165.461 66.7812 165.141 66.7812 164.437C66.7812 163.605 67.5813 163.269 68.3653 163.269C69.1973 163.269 69.8853 163.701 70.2053 164.325L71.0373 163.701ZM73.3946 170.037H74.5466V164.773H76.5626C78.8666 164.773 80.4186 163.765 80.4186 161.733C80.4186 159.701 78.8986 158.709 76.5946 158.709H73.3946V170.037ZM74.5466 159.701H76.4986C78.2426 159.701 79.2666 160.341 79.2666 161.733C79.2666 163.077 78.2906 163.797 76.4986 163.797H74.5466V159.701ZM86.3788 165.445C83.6428 165.445 81.0988 165.653 81.0988 167.957C81.0988 169.621 82.5548 170.229 83.6908 170.229C84.8908 170.229 85.7228 169.813 86.4108 168.821H86.4428C86.4428 169.221 86.4908 169.669 86.5548 170.037H87.5308C87.4508 169.621 87.4028 168.933 87.4028 168.357V165.077C87.4028 163.253 86.1068 162.357 84.4908 162.357C83.2108 162.357 82.1548 162.821 81.5468 163.429L82.1548 164.149C82.6828 163.621 83.4988 163.269 84.3788 163.269C85.6748 163.269 86.3788 163.909 86.3788 165.205V165.445ZM86.3788 166.293V166.853C86.3788 168.181 85.5148 169.333 83.9788 169.333C83.1308 169.333 82.2188 168.981 82.2188 167.909C82.2188 166.485 84.2828 166.293 86.0588 166.293H86.3788ZM90.2056 164.197V170.037H91.2936V166.197C91.2936 164.197 92.3336 163.365 93.4856 163.365C93.7736 163.365 94.1256 163.413 94.2536 163.461L94.3976 162.437C94.1736 162.373 93.9496 162.357 93.6776 162.357C92.6216 162.357 91.6936 162.965 91.2776 163.829H91.2456C91.2456 163.509 91.2136 162.949 91.1816 162.549H90.1416C90.1896 163.061 90.2056 163.797 90.2056 164.197ZM99.1598 162.549H97.0478V160.437H95.9598V162.549H94.4078V163.461H95.9598V168.133C95.9598 169.781 97.0798 170.133 97.8798 170.133C98.3758 170.133 98.7758 170.053 99.1598 169.909L99.1118 168.965C98.8238 169.109 98.4718 169.205 98.1678 169.205C97.5118 169.205 97.0478 168.949 97.0478 167.829V163.461H99.1598V162.549ZM104.558 159.733H108.35V158.709H99.6139V159.733H103.406V170.037H104.558V159.733ZM110.903 162.549H109.815V170.037H110.903V162.549ZM111.127 159.669C111.127 159.221 110.743 158.901 110.359 158.901C109.975 158.901 109.591 159.221 109.591 159.669C109.591 160.117 109.975 160.437 110.359 160.437C110.743 160.437 111.127 160.117 111.127 159.669ZM114.871 163.829H114.839C114.839 163.509 114.807 162.949 114.775 162.549H113.735C113.783 163.061 113.799 163.797 113.799 164.197V170.037H114.887V166.197C114.887 164.197 116.023 163.269 117.063 163.269C118.519 163.269 118.871 164.213 118.871 165.669V170.037H119.959V166.053C119.959 164.661 120.519 163.269 122.087 163.269C123.495 163.269 124.023 164.325 124.023 165.893V170.037H125.111V165.445C125.111 163.589 124.167 162.357 122.263 162.357C121.063 162.357 120.151 162.917 119.639 163.941C119.143 162.661 118.151 162.357 117.335 162.357C116.263 162.357 115.303 162.965 114.871 163.829ZM128.532 165.717C128.628 164.437 129.7 163.269 131.156 163.269C132.708 163.269 133.572 164.309 133.636 165.717H128.532ZM134.74 166.069C134.74 164.021 133.508 162.357 131.156 162.357C129.028 162.357 127.38 164.037 127.38 166.293C127.38 168.549 129.028 170.229 131.252 170.229C132.484 170.229 133.588 169.765 134.468 168.645L133.652 168.005C133.236 168.677 132.372 169.301 131.252 169.301C129.716 169.301 128.548 168.085 128.516 166.581H134.724C134.74 166.389 134.74 166.213 134.74 166.069ZM137.081 164.197V170.037H138.169V166.197C138.169 164.197 139.209 163.365 140.361 163.365C140.649 163.365 141.001 163.413 141.129 163.461L141.273 162.437C141.049 162.373 140.825 162.357 140.553 162.357C139.497 162.357 138.569 162.965 138.153 163.829H138.121C138.121 163.509 138.089 162.949 138.057 162.549H137.017C137.065 163.061 137.081 163.797 137.081 164.197Z" fill="#35435E"/>
<path d="M9.52309 143.472C14.2745 143.472 18.1243 139.622 18.1243 134.871C18.1243 130.119 14.2745 126.27 9.52309 126.27C4.77164 126.27 0.921875 130.119 0.921875 134.871C0.921875 139.622 4.77164 143.472 9.52309 143.472ZM4.85765 134.684L13.1507 131.487C13.5356 131.348 13.8717 131.581 13.747 132.163L13.7477 132.162L12.3357 138.814C12.231 139.286 11.9508 139.401 11.5587 139.179L9.40841 137.594L8.37124 138.593C8.25656 138.708 8.1598 138.804 7.9376 138.804L8.09027 136.616L12.0755 133.016C12.249 132.863 12.0368 132.777 11.8081 132.929L6.88323 136.03L4.76017 135.367C4.29929 135.221 4.28925 134.907 4.85765 134.684Z" fill="#0CB6EC"/>
<path d="M9.52309 172.638C14.2745 172.638 18.1243 168.788 18.1243 164.037C18.1243 159.285 14.2745 155.436 9.52309 155.436C4.77164 155.436 0.921875 159.285 0.921875 164.037C0.921875 168.788 4.77164 172.638 9.52309 172.638ZM4.85765 163.85L13.1507 160.653C13.5356 160.514 13.8717 160.747 13.747 161.329L13.7477 161.328L12.3357 167.98C12.231 168.452 11.9508 168.567 11.5587 168.345L9.40841 166.76L8.37124 167.759C8.25656 167.874 8.1598 167.97 7.9376 167.97L8.09027 165.782L12.0755 162.182C12.249 162.029 12.0368 161.943 11.8081 162.095L6.88323 165.196L4.76017 164.533C4.29929 164.387 4.28925 164.073 4.85765 163.85Z" fill="#0CB6EC"/>
<path d="M2.51363 221.157H4.52963V216.389H9.52163V214.693H4.52963V211.589H9.82563V209.829H2.51363V221.157ZM17.9256 213.477H16.0056V217.701C16.0056 218.725 15.4296 219.781 14.2136 219.781C12.9816 219.781 12.7736 218.645 12.7736 217.733V213.477H10.8536V218.277C10.8536 219.845 11.6856 221.381 13.6856 221.381C14.8216 221.381 15.7336 220.693 16.0696 219.925H16.1016V221.157H17.9256V213.477ZM20.2621 221.157H22.1821V209.061H20.2621V221.157ZM24.5434 221.157H26.4634V209.061H24.5434V221.157ZM33.0326 215.013V218.597C33.0326 220.069 33.4966 221.317 35.5286 221.317C35.9606 221.317 36.4726 221.237 36.8086 221.109L36.7446 219.605C36.5206 219.717 36.1846 219.765 35.9286 219.765C35.0806 219.765 34.9206 219.269 34.9206 218.581V215.013H36.8406V213.477H34.9206V211.253H33.0326V213.477H31.6886V215.013H33.0326ZM38.2621 221.157H40.1821V213.477H38.2621V221.157ZM37.9901 210.869C37.9901 211.477 38.5021 212.021 39.2061 212.021C39.9101 212.021 40.4541 211.525 40.4541 210.869C40.4541 210.213 39.9101 209.717 39.2061 209.717C38.5021 209.717 37.9901 210.261 37.9901 210.869ZM51.6794 213.253C50.5274 213.253 49.6634 213.781 49.1514 214.709C48.7194 213.845 47.9354 213.253 46.7514 213.253C45.5194 213.253 44.7034 213.957 44.3674 214.709H44.3354V213.477H42.5114V221.157H44.4314V216.933C44.4314 215.909 44.9594 214.853 46.1114 214.853C47.0874 214.853 47.5354 215.573 47.5354 216.517V221.157H49.4554V216.965C49.4554 215.973 49.9514 214.853 51.1514 214.853C52.3834 214.853 52.5914 215.989 52.5914 216.901V221.157H54.5114V216.357C54.5114 214.789 53.6794 213.253 51.6794 213.253ZM58.2178 216.549C58.2978 215.477 59.2098 214.693 60.3458 214.693C61.5938 214.693 62.1538 215.557 62.1538 216.549H58.2178ZM64.0738 217.413C64.0738 214.645 62.5058 213.253 60.3618 213.253C58.0418 213.253 56.2978 214.885 56.2978 217.365C56.2978 219.861 58.0578 221.381 60.4258 221.381C61.8818 221.381 62.9698 220.869 63.7218 219.845L62.4418 218.821C62.0098 219.429 61.3698 219.813 60.4098 219.813C59.2898 219.813 58.2978 219.013 58.2178 217.925H64.0578C64.0738 217.749 64.0738 217.589 64.0738 217.413ZM69.9013 220.037C69.9013 220.725 70.5093 221.253 71.1813 221.253C71.8853 221.253 72.4613 220.693 72.4613 220.005C72.4613 219.317 71.8693 218.789 71.1813 218.789C70.4773 218.789 69.9013 219.349 69.9013 220.037ZM69.9013 214.629C69.9013 215.317 70.5093 215.845 71.1813 215.845C71.8853 215.845 72.4613 215.285 72.4613 214.597C72.4613 213.909 71.8693 213.381 71.1813 213.381C70.4773 213.381 69.9013 213.941 69.9013 214.629Z" fill="#35435E"/>
<path d="M30.6623 251.415C31.7023 251.415 31.9903 252.247 31.9903 253.063C31.9903 254.119 31.4463 255.751 29.9743 255.751C28.9343 255.751 28.6943 254.711 28.6943 254.103C28.6943 252.855 29.3983 251.415 30.6623 251.415ZM35.1743 256.887C34.0863 257.943 32.7423 258.567 30.8543 258.567C27.8783 258.567 25.8303 256.663 25.8303 253.639C25.8303 250.791 27.7983 248.615 30.7263 248.615C33.3983 248.615 35.3343 250.103 35.3343 252.871C35.3343 254.487 34.6143 255.751 33.5583 255.751C32.8703 255.751 32.7743 255.319 32.7743 254.951C32.7743 254.631 32.8863 253.959 32.9503 253.671L33.5903 250.695H32.5983L32.4383 251.415H32.3743C32.1503 250.887 31.5263 250.455 30.7103 250.455C28.7423 250.455 27.5263 252.231 27.5263 254.039C27.5263 255.575 28.4063 256.679 29.8463 256.679C30.9023 256.679 31.6383 255.959 31.8463 255.511H31.9103C31.9103 256.119 32.3583 256.679 33.3023 256.679C34.9503 256.679 36.4063 255.335 36.4063 252.759C36.4063 249.319 33.6543 247.623 30.7423 247.623C27.3663 247.623 24.6303 250.183 24.6303 253.591C24.6303 257.063 27.0783 259.527 30.7423 259.527C32.7743 259.527 34.5183 258.903 35.7663 257.623L35.1743 256.887ZM44.7712 248.999C44.2272 248.263 43.0912 247.623 41.5712 247.623C39.9072 247.623 37.9552 248.551 37.9552 250.743C37.9552 252.791 39.4912 253.447 40.9952 253.911C42.4352 254.359 43.7632 254.759 43.7632 256.343C43.7632 257.799 42.4192 258.535 41.2512 258.535C40.0672 258.535 39.1552 257.911 38.6592 257.111L37.6672 257.847C38.4832 258.967 39.8592 259.527 41.2352 259.527C43.0272 259.527 44.9312 258.535 44.9312 256.263C44.9312 253.991 43.1712 253.479 41.5712 252.951C40.3072 252.535 39.1072 252.167 39.1072 250.727C39.1072 249.271 40.4032 248.599 41.5232 248.599C42.5952 248.599 43.3792 249.047 43.8592 249.735L44.7712 248.999ZM46.9544 261.575C47.8344 262.503 49.1784 263.079 50.5544 263.079C53.8664 263.079 54.6184 260.807 54.6184 259.175V251.751H53.5304V253.047H53.4984C52.9064 252.087 51.7544 251.559 50.6664 251.559C48.3304 251.559 46.7944 253.303 46.7944 255.431C46.7944 257.623 48.3304 259.239 50.6664 259.239C51.7544 259.239 52.9224 258.695 53.4984 257.767H53.5304V259.175C53.5304 260.791 52.7464 262.119 50.6024 262.119C49.4664 262.119 48.3304 261.511 47.7384 260.743L46.9544 261.575ZM47.9464 255.399C47.9464 253.831 48.9704 252.471 50.7784 252.471C52.4584 252.471 53.6584 253.831 53.6584 255.399C53.6584 257.127 52.4584 258.311 50.7784 258.311C48.9704 258.311 47.9464 256.967 47.9464 255.399ZM58.6638 253.879H63.9438V252.871H58.6638V248.935H64.3438V247.911H57.5118V259.239H58.6638V253.879ZM72.2403 259.239C72.1923 258.727 72.1763 257.991 72.1763 257.591V251.751H71.0883V255.591C71.0883 257.591 69.9683 258.519 68.8163 258.519C67.2483 258.519 66.7843 257.463 66.7843 255.895V251.751H65.6963V256.343C65.6963 258.199 66.6403 259.431 68.5443 259.431C69.6003 259.431 70.6883 258.823 71.1043 257.959H71.1363C71.1363 258.279 71.1683 258.839 71.2003 259.239H72.2403ZM76.1772 247.143H75.0892V259.239H76.1772V247.143ZM80.2084 247.143H79.1204V259.239H80.2084V247.143ZM86.8157 248.935H90.6077V247.911H81.8717V248.935H85.6637V259.239H86.8157V248.935ZM93.1612 251.751H92.0732V259.239H93.1612V251.751ZM93.3852 248.871C93.3852 248.423 93.0012 248.103 92.6172 248.103C92.2332 248.103 91.8492 248.423 91.8492 248.871C91.8492 249.319 92.2332 249.639 92.6172 249.639C93.0012 249.639 93.3852 249.319 93.3852 248.871ZM97.1292 253.031H97.0972C97.0972 252.711 97.0652 252.151 97.0332 251.751H95.9932C96.0412 252.263 96.0572 252.999 96.0572 253.399V259.239H97.1452V255.399C97.1452 253.399 98.2812 252.471 99.3212 252.471C100.777 252.471 101.129 253.415 101.129 254.871V259.239H102.217V255.255C102.217 253.863 102.777 252.471 104.345 252.471C105.753 252.471 106.281 253.527 106.281 255.095V259.239H107.369V254.647C107.369 252.791 106.425 251.559 104.521 251.559C103.321 251.559 102.409 252.119 101.897 253.143C101.401 251.863 100.409 251.559 99.5932 251.559C98.5212 251.559 97.5612 252.167 97.1292 253.031ZM110.79 254.919C110.886 253.639 111.958 252.471 113.414 252.471C114.966 252.471 115.83 253.511 115.894 254.919H110.79ZM116.998 255.271C116.998 253.223 115.766 251.559 113.414 251.559C111.286 251.559 109.638 253.239 109.638 255.495C109.638 257.751 111.286 259.431 113.51 259.431C114.742 259.431 115.846 258.967 116.726 257.847L115.91 257.207C115.494 257.879 114.63 258.503 113.51 258.503C111.974 258.503 110.806 257.287 110.774 255.783H116.982C116.998 255.591 116.998 255.415 116.998 255.271ZM120.554 256.263H126.41L127.658 259.239H128.938L124.074 247.911H122.954L118.058 259.239H119.322L120.554 256.263ZM123.482 249.191L125.978 255.207H120.986L123.482 249.191ZM130.158 261.575C131.038 262.503 132.382 263.079 133.758 263.079C137.07 263.079 137.822 260.807 137.822 259.175V251.751H136.734V253.047H136.702C136.11 252.087 134.958 251.559 133.87 251.559C131.534 251.559 129.998 253.303 129.998 255.431C129.998 257.623 131.534 259.239 133.87 259.239C134.958 259.239 136.126 258.695 136.702 257.767H136.734V259.175C136.734 260.791 135.95 262.119 133.806 262.119C132.67 262.119 131.534 261.511 130.942 260.743L130.158 261.575ZM131.15 255.399C131.15 253.831 132.174 252.471 133.982 252.471C135.662 252.471 136.862 253.831 136.862 255.399C136.862 257.127 135.662 258.311 133.982 258.311C132.174 258.311 131.15 256.967 131.15 255.399ZM141.259 254.919C141.355 253.639 142.427 252.471 143.883 252.471C145.435 252.471 146.299 253.511 146.363 254.919H141.259ZM147.467 255.271C147.467 253.223 146.235 251.559 143.883 251.559C141.755 251.559 140.107 253.239 140.107 255.495C140.107 257.751 141.755 259.431 143.979 259.431C145.211 259.431 146.315 258.967 147.195 257.847L146.379 257.207C145.963 257.879 145.099 258.503 143.979 258.503C142.443 258.503 141.275 257.287 141.243 255.783H147.451C147.467 255.591 147.467 255.415 147.467 255.271ZM149.743 251.751C149.791 252.263 149.807 252.999 149.807 253.399V259.239H150.895V255.399C150.895 253.399 152.015 252.471 153.167 252.471C154.735 252.471 155.199 253.527 155.199 255.095V259.239H156.287V254.647C156.287 252.791 155.343 251.559 153.439 251.559C152.383 251.559 151.295 252.167 150.879 253.031H150.847C150.847 252.711 150.815 252.151 150.783 251.751H149.743ZM165.344 252.855C164.704 251.991 163.568 251.559 162.56 251.559C160.144 251.559 158.56 253.239 158.56 255.495C158.56 257.751 160.144 259.431 162.56 259.431C163.856 259.431 164.768 258.919 165.408 258.135L164.592 257.527C164.16 258.103 163.504 258.503 162.56 258.503C160.816 258.503 159.712 257.191 159.712 255.495C159.712 253.783 160.832 252.471 162.576 252.471C163.392 252.471 164.144 252.887 164.496 253.463L165.344 252.855ZM167.136 251.751H165.92L169.12 259.223L168.512 260.791C168.192 261.639 167.808 262.119 167.072 262.119C166.784 262.119 166.512 262.071 166.272 261.991L166.16 262.983C166.48 263.047 166.816 263.079 167.136 263.079C168.432 263.079 169.04 262.327 169.488 261.175L173.216 251.751H172.032L169.712 258.071H169.68L167.136 251.751Z" fill="#35435E"/>
<path d="M30.717 279.183C31.757 279.183 32.045 280.015 32.045 280.831C32.045 281.887 31.501 283.519 30.029 283.519C28.989 283.519 28.749 282.479 28.749 281.871C28.749 280.623 29.453 279.183 30.717 279.183ZM35.229 284.655C34.141 285.711 32.797 286.335 30.909 286.335C27.933 286.335 25.885 284.431 25.885 281.407C25.885 278.559 27.853 276.383 30.781 276.383C33.453 276.383 35.389 277.871 35.389 280.639C35.389 282.255 34.669 283.519 33.613 283.519C32.925 283.519 32.829 283.087 32.829 282.719C32.829 282.399 32.941 281.727 33.005 281.439L33.645 278.463H32.653L32.493 279.183H32.429C32.205 278.655 31.581 278.223 30.765 278.223C28.797 278.223 27.581 279.999 27.581 281.807C27.581 283.343 28.461 284.447 29.901 284.447C30.957 284.447 31.693 283.727 31.901 283.279H31.965C31.965 283.887 32.413 284.447 33.357 284.447C35.005 284.447 36.461 283.103 36.461 280.527C36.461 277.087 33.709 275.391 30.797 275.391C27.421 275.391 24.685 277.951 24.685 281.359C24.685 284.831 27.133 287.295 30.797 287.295C32.829 287.295 34.573 286.671 35.821 285.391L35.229 284.655ZM37.3219 284.991C37.5939 286.335 38.7299 287.295 40.3619 287.295C42.8419 287.295 43.3859 285.215 43.3859 283.743V275.679H42.2339V283.663C42.2339 285.023 41.8179 286.287 40.2339 286.287C39.2259 286.287 38.5699 285.583 38.3939 284.703L37.3219 284.991ZM53.6769 283.263C53.6769 281.007 52.0129 279.327 49.6769 279.327C47.3569 279.327 45.6929 281.007 45.6929 283.263C45.6929 285.519 47.3569 287.199 49.6769 287.199C52.0129 287.199 53.6769 285.519 53.6769 283.263ZM52.5249 283.263C52.5249 284.943 51.4209 286.271 49.6769 286.271C47.9489 286.271 46.8449 284.943 46.8449 283.263C46.8449 281.583 47.9489 280.239 49.6769 280.239C51.4209 280.239 52.5249 281.583 52.5249 283.263ZM57.1701 285.743C57.8101 286.687 58.9301 287.199 60.0021 287.199C62.3381 287.199 63.8741 285.471 63.8741 283.263C63.8741 281.055 62.3381 279.327 60.0021 279.327C58.9301 279.327 57.8101 279.839 57.1701 280.815H57.1381V274.911H56.0501V287.007H57.1381V285.743H57.1701ZM62.7221 283.263C62.7221 284.927 61.6981 286.271 59.8901 286.271C58.2101 286.271 57.0101 284.975 57.0101 283.263C57.0101 281.551 58.2101 280.239 59.8901 280.239C61.6981 280.239 62.7221 281.599 62.7221 283.263ZM67.4216 281.647H72.7016V280.639H67.4216V276.703H73.1016V275.679H66.2696V287.007H67.4216V281.647ZM80.9981 287.007C80.9501 286.495 80.9341 285.759 80.9341 285.359V279.519H79.8461V283.359C79.8461 285.359 78.7261 286.287 77.5741 286.287C76.0061 286.287 75.5421 285.231 75.5421 283.663V279.519H74.4541V284.111C74.4541 285.967 75.3981 287.199 77.3021 287.199C78.3581 287.199 79.4461 286.591 79.8621 285.727H79.8941C79.8941 286.047 79.9261 286.607 79.9581 287.007H80.9981ZM84.935 274.911H83.847V287.007H84.935V274.911ZM88.9663 274.911H87.8783V287.007H88.9663V274.911ZM95.5735 276.703H99.3655V275.679H90.6295V276.703H94.4215V287.007H95.5735V276.703ZM101.919 279.519H100.831V287.007H101.919V279.519ZM102.143 276.639C102.143 276.191 101.759 275.871 101.375 275.871C100.991 275.871 100.607 276.191 100.607 276.639C100.607 277.087 100.991 277.407 101.375 277.407C101.759 277.407 102.143 277.087 102.143 276.639ZM105.887 280.799H105.855C105.855 280.479 105.823 279.919 105.791 279.519H104.751C104.799 280.031 104.815 280.767 104.815 281.167V287.007H105.903V283.167C105.903 281.167 107.039 280.239 108.079 280.239C109.535 280.239 109.887 281.183 109.887 282.639V287.007H110.975V283.023C110.975 281.631 111.535 280.239 113.103 280.239C114.511 280.239 115.039 281.295 115.039 282.863V287.007H116.127V282.415C116.127 280.559 115.183 279.327 113.279 279.327C112.079 279.327 111.167 279.887 110.655 280.911C110.159 279.631 109.167 279.327 108.351 279.327C107.279 279.327 106.319 279.935 105.887 280.799ZM119.548 282.687C119.644 281.407 120.716 280.239 122.172 280.239C123.724 280.239 124.588 281.279 124.652 282.687H119.548ZM125.756 283.039C125.756 280.991 124.524 279.327 122.172 279.327C120.044 279.327 118.396 281.007 118.396 283.263C118.396 285.519 120.044 287.199 122.268 287.199C123.5 287.199 124.604 286.735 125.484 285.615L124.668 284.975C124.252 285.647 123.388 286.271 122.268 286.271C120.732 286.271 119.564 285.055 119.532 283.551H125.74C125.756 283.359 125.756 283.183 125.756 283.039ZM128.096 281.167V287.007H129.184V283.167C129.184 281.167 130.224 280.335 131.376 280.335C131.664 280.335 132.016 280.383 132.144 280.431L132.288 279.407C132.064 279.343 131.84 279.327 131.568 279.327C130.512 279.327 129.584 279.935 129.168 280.799H129.136C129.136 280.479 129.104 279.919 129.072 279.519H128.032C128.08 280.031 128.096 280.767 128.096 281.167Z" fill="#35435E"/>
<path d="M9.52309 260.442C14.2745 260.442 18.1243 256.592 18.1243 251.84C18.1243 247.089 14.2745 243.239 9.52309 243.239C4.77164 243.239 0.921875 247.089 0.921875 251.84C0.921875 256.592 4.77164 260.442 9.52309 260.442ZM4.85765 251.654L13.1507 248.457C13.5356 248.318 13.8717 248.551 13.747 249.133L13.7477 249.132L12.3357 255.784C12.231 256.256 11.9508 256.37 11.5587 256.148L9.40841 254.563L8.37124 255.563C8.25656 255.677 8.1598 255.774 7.9376 255.774L8.09027 253.586L12.0755 249.985C12.249 249.833 12.0368 249.747 11.8081 249.899L6.88323 252.999L4.76017 252.337C4.29929 252.191 4.28925 251.876 4.85765 251.654Z" fill="#0CB6EC"/>
<path d="M9.52309 291.007C14.2745 291.007 18.1243 287.157 18.1243 282.406C18.1243 277.654 14.2745 273.805 9.52309 273.805C4.77164 273.805 0.921875 277.654 0.921875 282.406C0.921875 287.157 4.77164 291.007 9.52309 291.007ZM4.85765 282.22L13.1507 279.022C13.5356 278.883 13.8717 279.116 13.747 279.698L13.7477 279.697L12.3357 286.35C12.231 286.821 11.9508 286.936 11.5587 286.714L9.40841 285.129L8.37124 286.128C8.25656 286.243 8.1598 286.34 7.9376 286.34L8.09027 284.151L12.0755 280.551C12.249 280.398 12.0368 280.312 11.8081 280.464L6.88323 283.565L4.76017 282.903C4.29929 282.756 4.28925 282.442 4.85765 282.22Z" fill="#0CB6EC"/>
</svg>
