<svg width="15" height="15" viewBox="0 0 15 15" fill="none" xmlns="http://www.w3.org/2000/svg">
<path d="M7.47352 0.710938C3.6524 0.710938 0.554688 3.80874 0.554688 7.62986C0.554688 11.4509 3.6524 14.5489 7.47352 14.5489C11.2946 14.5489 14.3926 11.4509 14.3926 7.62986C14.3926 3.80874 11.2946 0.710938 7.47352 0.710938ZM7.47366 3.14119L11.568 5.69432H3.37928L7.47366 3.14119ZM11.6191 9.77136H11.6186C11.6186 10.1809 11.2868 10.5127 10.8773 10.5127H4.07003C3.66052 10.5127 3.32868 10.1808 3.32868 9.77136V5.85678C3.32868 5.81347 3.33311 5.77136 3.3403 5.72998L7.25225 8.16932C7.25705 8.17232 7.26217 8.17435 7.2671 8.17711C7.27227 8.17997 7.27753 8.18274 7.28278 8.18537C7.31041 8.19962 7.33887 8.21111 7.36798 8.21863C7.37098 8.21946 7.37398 8.21983 7.37698 8.22052C7.4089 8.22804 7.44123 8.23274 7.47352 8.23274H7.47375C7.47398 8.23274 7.47421 8.23274 7.47421 8.23274C7.5065 8.23274 7.53884 8.22818 7.57076 8.22052C7.57375 8.21978 7.57675 8.21946 7.57975 8.21863C7.60881 8.21111 7.63718 8.19962 7.66495 8.18537C7.67021 8.18274 7.67546 8.17997 7.68063 8.17711C7.68552 8.17435 7.69069 8.17232 7.69548 8.16932L11.6074 5.72998C11.6146 5.77136 11.6191 5.81338 11.6191 5.85678V9.77136Z" fill="white"/>
</svg>
