<svg width="980" height="618" viewBox="0 0 980 618" fill="none" xmlns="http://www.w3.org/2000/svg">
<g opacity="0.4">
<circle r="33.4159" transform="matrix(-0.993095 -0.11731 -0.11731 0.993095 514.215 60.2388)" fill="#A4E7FC"/>
<circle r="13.6666" transform="matrix(-0.993095 -0.11731 -0.11731 0.993095 555.082 22.3177)" fill="#A4E7FC"/>
</g>
<path d="M22.8842 240.592L27.1242 234.144H25.7802L22.3402 239.632L18.9322 234.144H17.4922L21.7322 240.592V245.472H22.8842V240.592ZM34.5597 241.728C34.5597 239.472 32.8957 237.792 30.5597 237.792C28.2397 237.792 26.5757 239.472 26.5757 241.728C26.5757 243.984 28.2397 245.664 30.5597 245.664C32.8957 245.664 34.5597 243.984 34.5597 241.728ZM33.4077 241.728C33.4077 243.408 32.3037 244.736 30.5597 244.736C28.8317 244.736 27.7277 243.408 27.7277 241.728C27.7277 240.048 28.8317 238.704 30.5597 238.704C32.3037 238.704 33.4077 240.048 33.4077 241.728ZM43.3809 245.472C43.3329 244.96 43.3169 244.224 43.3169 243.824V237.984H42.2289V241.824C42.2289 243.824 41.1089 244.752 39.9569 244.752C38.3889 244.752 37.9249 243.696 37.9249 242.128V237.984H36.8369V242.576C36.8369 244.432 37.7809 245.664 39.6849 245.664C40.7409 245.664 41.8289 245.056 42.2449 244.192H42.2769C42.2769 244.512 42.3089 245.072 42.3409 245.472H43.3809ZM56.4378 239.088C55.7978 238.224 54.6618 237.792 53.6538 237.792C51.2378 237.792 49.6538 239.472 49.6538 241.728C49.6538 243.984 51.2378 245.664 53.6538 245.664C54.9498 245.664 55.8618 245.152 56.5018 244.368L55.6858 243.76C55.2538 244.336 54.5978 244.736 53.6538 244.736C51.9098 244.736 50.8058 243.424 50.8058 241.728C50.8058 240.016 51.9258 238.704 53.6698 238.704C54.4858 238.704 55.2378 239.12 55.5898 239.696L56.4378 239.088ZM62.9178 240.88C60.1818 240.88 57.6378 241.088 57.6378 243.392C57.6378 245.056 59.0938 245.664 60.2298 245.664C61.4298 245.664 62.2618 245.248 62.9498 244.256H62.9818C62.9818 244.656 63.0298 245.104 63.0938 245.472H64.0698C63.9898 245.056 63.9418 244.368 63.9418 243.792V240.512C63.9418 238.688 62.6458 237.792 61.0298 237.792C59.7498 237.792 58.6938 238.256 58.0858 238.864L58.6938 239.584C59.2218 239.056 60.0378 238.704 60.9178 238.704C62.2138 238.704 62.9178 239.344 62.9178 240.64V240.88ZM62.9178 241.728V242.288C62.9178 243.616 62.0538 244.768 60.5178 244.768C59.6698 244.768 58.7578 244.416 58.7578 243.344C58.7578 241.92 60.8218 241.728 62.5978 241.728H62.9178ZM66.6807 237.984C66.7287 238.496 66.7447 239.232 66.7447 239.632V245.472H67.8327V241.632C67.8327 239.632 68.9527 238.704 70.1047 238.704C71.6727 238.704 72.1367 239.76 72.1367 241.328V245.472H73.2247V240.88C73.2247 239.024 72.2807 237.792 70.3767 237.792C69.3207 237.792 68.2327 238.4 67.8167 239.264H67.7847C67.7847 238.944 67.7527 238.384 67.7207 237.984H66.6807ZM81.1296 244.208H81.1776C81.8016 245.136 82.9216 245.664 83.9936 245.664C86.3296 245.664 87.8656 243.936 87.8656 241.728C87.8656 239.52 86.3296 237.792 83.9936 237.792C82.9216 237.792 81.8016 238.304 81.1776 239.28H81.1296V237.984H80.0416V249.312H81.1296V244.208ZM86.7136 241.728C86.7136 243.392 85.6896 244.736 83.8816 244.736C82.2016 244.736 81.0016 243.44 81.0016 241.728C81.0016 240.016 82.2016 238.704 83.8816 238.704C85.6896 238.704 86.7136 240.064 86.7136 241.728ZM97.6378 241.728C97.6378 239.472 95.9738 237.792 93.6378 237.792C91.3178 237.792 89.6538 239.472 89.6538 241.728C89.6538 243.984 91.3178 245.664 93.6378 245.664C95.9738 245.664 97.6378 243.984 97.6378 241.728ZM96.4858 241.728C96.4858 243.408 95.3818 244.736 93.6378 244.736C91.9098 244.736 90.8058 243.408 90.8058 241.728C90.8058 240.048 91.9098 238.704 93.6378 238.704C95.3818 238.704 96.4858 240.048 96.4858 241.728ZM104.795 239.136C104.315 238.288 103.211 237.792 102.171 237.792C100.811 237.792 99.4991 238.448 99.4991 239.968C99.4991 241.392 100.763 241.776 101.643 241.984C103.067 242.32 103.851 242.64 103.851 243.424C103.851 244.4 103.019 244.736 102.091 244.736C101.211 244.736 100.395 244.224 100.011 243.568L99.1471 244.208C99.8351 245.216 100.971 245.664 102.107 245.664C103.483 245.664 104.923 245.056 104.923 243.344C104.923 242.176 104.091 241.52 102.331 241.152C101.099 240.896 100.539 240.576 100.539 239.872C100.539 239.04 101.339 238.704 102.123 238.704C102.955 238.704 103.643 239.136 103.963 239.76L104.795 239.136ZM110.464 237.984H108.352V235.872H107.264V237.984H105.712V238.896H107.264V243.568C107.264 245.216 108.384 245.568 109.184 245.568C109.68 245.568 110.08 245.488 110.464 245.344L110.416 244.4C110.128 244.544 109.776 244.64 109.472 244.64C108.816 244.64 108.352 244.384 108.352 243.264V238.896H110.464V237.984ZM114.295 249.2C114.567 249.28 114.935 249.312 115.159 249.312C116.855 249.312 117.287 248.16 117.287 246.96V237.984H116.199V246.784C116.199 247.728 116.055 248.384 115.143 248.384C114.935 248.384 114.663 248.352 114.455 248.288L114.295 249.2ZM117.511 235.104C117.511 234.656 117.127 234.336 116.743 234.336C116.359 234.336 115.975 234.656 115.975 235.104C115.975 235.552 116.359 235.872 116.743 235.872C117.127 235.872 117.511 235.552 117.511 235.104ZM127.622 241.728C127.622 239.472 125.958 237.792 123.622 237.792C121.302 237.792 119.638 239.472 119.638 241.728C119.638 243.984 121.302 245.664 123.622 245.664C125.958 245.664 127.622 243.984 127.622 241.728ZM126.47 241.728C126.47 243.408 125.366 244.736 123.622 244.736C121.894 244.736 120.79 243.408 120.79 241.728C120.79 240.048 121.894 238.704 123.622 238.704C125.366 238.704 126.47 240.048 126.47 241.728ZM131.115 244.208C131.755 245.152 132.875 245.664 133.947 245.664C136.283 245.664 137.819 243.936 137.819 241.728C137.819 239.52 136.283 237.792 133.947 237.792C132.875 237.792 131.755 238.304 131.115 239.28H131.083V233.376H129.995V245.472H131.083V244.208H131.115ZM136.667 241.728C136.667 243.392 135.643 244.736 133.835 244.736C132.155 244.736 130.955 243.44 130.955 241.728C130.955 240.016 132.155 238.704 133.835 238.704C135.643 238.704 136.667 240.064 136.667 241.728ZM144.967 239.136C144.487 238.288 143.383 237.792 142.343 237.792C140.983 237.792 139.671 238.448 139.671 239.968C139.671 241.392 140.935 241.776 141.815 241.984C143.239 242.32 144.023 242.64 144.023 243.424C144.023 244.4 143.191 244.736 142.263 244.736C141.383 244.736 140.567 244.224 140.183 243.568L139.319 244.208C140.007 245.216 141.143 245.664 142.279 245.664C143.655 245.664 145.095 245.056 145.095 243.344C145.095 242.176 144.263 241.52 142.503 241.152C141.271 240.896 140.711 240.576 140.711 239.872C140.711 239.04 141.511 238.704 142.295 238.704C143.127 238.704 143.815 239.136 144.135 239.76L144.967 239.136ZM158.7 241.728C158.7 239.472 157.036 237.792 154.7 237.792C152.38 237.792 150.716 239.472 150.716 241.728C150.716 243.984 152.38 245.664 154.7 245.664C157.036 245.664 158.7 243.984 158.7 241.728ZM157.548 241.728C157.548 243.408 156.444 244.736 154.7 244.736C152.972 244.736 151.868 243.408 151.868 241.728C151.868 240.048 152.972 238.704 154.7 238.704C156.444 238.704 157.548 240.048 157.548 241.728ZM160.978 237.984C161.026 238.496 161.042 239.232 161.042 239.632V245.472H162.13V241.632C162.13 239.632 163.25 238.704 164.402 238.704C165.97 238.704 166.434 239.76 166.434 241.328V245.472H167.522V240.88C167.522 239.024 166.578 237.792 164.674 237.792C163.618 237.792 162.53 238.4 162.114 239.264H162.082C162.082 238.944 162.05 238.384 162.018 237.984H160.978ZM181.778 241.728C181.778 239.472 180.114 237.792 177.778 237.792C175.458 237.792 173.794 239.472 173.794 241.728C173.794 243.984 175.458 245.664 177.778 245.664C180.114 245.664 181.778 243.984 181.778 241.728ZM180.626 241.728C180.626 243.408 179.522 244.736 177.778 244.736C176.05 244.736 174.946 243.408 174.946 241.728C174.946 240.048 176.05 238.704 177.778 238.704C179.522 238.704 180.626 240.048 180.626 241.728ZM190.6 245.472C190.552 244.96 190.536 244.224 190.536 243.824V237.984H189.448V241.824C189.448 243.824 188.328 244.752 187.176 244.752C185.608 244.752 185.144 243.696 185.144 242.128V237.984H184.056V242.576C184.056 244.432 185 245.664 186.904 245.664C187.96 245.664 189.048 245.056 189.464 244.192H189.496C189.496 244.512 189.528 245.072 189.56 245.472H190.6ZM193.417 239.632V245.472H194.505V241.632C194.505 239.632 195.545 238.8 196.697 238.8C196.985 238.8 197.337 238.848 197.465 238.896L197.609 237.872C197.385 237.808 197.161 237.792 196.889 237.792C195.833 237.792 194.905 238.4 194.489 239.264H194.457C194.457 238.944 194.425 238.384 194.393 237.984H193.353C193.401 238.496 193.417 239.232 193.417 239.632ZM202.158 237.984L204.526 245.472H205.71L207.678 239.408H207.71L209.71 245.472H210.894L213.262 237.984H212.11L210.318 244.064H210.286L208.238 237.984H207.182L205.166 244.064H205.134L203.326 237.984H202.158ZM215.728 241.152C215.824 239.872 216.896 238.704 218.352 238.704C219.904 238.704 220.768 239.744 220.832 241.152H215.728ZM221.936 241.504C221.936 239.456 220.704 237.792 218.352 237.792C216.224 237.792 214.576 239.472 214.576 241.728C214.576 243.984 216.224 245.664 218.448 245.664C219.68 245.664 220.784 245.2 221.664 244.08L220.848 243.44C220.432 244.112 219.568 244.736 218.448 244.736C216.912 244.736 215.744 243.52 215.712 242.016H221.92C221.936 241.824 221.936 241.648 221.936 241.504ZM225.428 244.208C226.068 245.152 227.188 245.664 228.26 245.664C230.596 245.664 232.132 243.936 232.132 241.728C232.132 239.52 230.596 237.792 228.26 237.792C227.188 237.792 226.068 238.304 225.428 239.28H225.396V233.376H224.308V245.472H225.396V244.208H225.428ZM230.98 241.728C230.98 243.392 229.956 244.736 228.148 244.736C226.468 244.736 225.268 243.44 225.268 241.728C225.268 240.016 226.468 238.704 228.148 238.704C229.956 238.704 230.98 240.064 230.98 241.728ZM239.279 239.136C238.799 238.288 237.695 237.792 236.655 237.792C235.295 237.792 233.983 238.448 233.983 239.968C233.983 241.392 235.247 241.776 236.127 241.984C237.551 242.32 238.335 242.64 238.335 243.424C238.335 244.4 237.503 244.736 236.575 244.736C235.695 244.736 234.879 244.224 234.495 243.568L233.631 244.208C234.319 245.216 235.455 245.664 236.591 245.664C237.967 245.664 239.407 245.056 239.407 243.344C239.407 242.176 238.575 241.52 236.815 241.152C235.583 240.896 235.023 240.576 235.023 239.872C235.023 239.04 235.823 238.704 236.607 238.704C237.439 238.704 238.127 239.136 238.447 239.76L239.279 239.136ZM242.677 237.984H241.589V245.472H242.677V237.984ZM242.901 235.104C242.901 234.656 242.517 234.336 242.133 234.336C241.749 234.336 241.365 234.656 241.365 235.104C241.365 235.552 241.749 235.872 242.133 235.872C242.517 235.872 242.901 235.552 242.901 235.104ZM248.949 237.984H246.837V235.872H245.749V237.984H244.197V238.896H245.749V243.568C245.749 245.216 246.869 245.568 247.669 245.568C248.165 245.568 248.565 245.488 248.949 245.344L248.901 244.4C248.613 244.544 248.261 244.64 247.957 244.64C247.301 244.64 246.837 244.384 246.837 243.264V238.896H248.949V237.984ZM251.259 241.152C251.355 239.872 252.427 238.704 253.883 238.704C255.435 238.704 256.299 239.744 256.363 241.152H251.259ZM257.467 241.504C257.467 239.456 256.235 237.792 253.883 237.792C251.755 237.792 250.107 239.472 250.107 241.728C250.107 243.984 251.755 245.664 253.979 245.664C255.211 245.664 256.315 245.2 257.195 244.08L256.379 243.44C255.963 244.112 255.099 244.736 253.979 244.736C252.443 244.736 251.275 243.52 251.243 242.016H257.451C257.467 241.824 257.467 241.648 257.467 241.504ZM271.247 241.728C271.247 239.472 269.583 237.792 267.247 237.792C264.927 237.792 263.263 239.472 263.263 241.728C263.263 243.984 264.927 245.664 267.247 245.664C269.583 245.664 271.247 243.984 271.247 241.728ZM270.095 241.728C270.095 243.408 268.991 244.736 267.247 244.736C265.519 244.736 264.415 243.408 264.415 241.728C264.415 240.048 265.519 238.704 267.247 238.704C268.991 238.704 270.095 240.048 270.095 241.728ZM273.588 239.632V245.472H274.676V241.632C274.676 239.632 275.716 238.8 276.868 238.8C277.156 238.8 277.508 238.848 277.636 238.896L277.78 237.872C277.556 237.808 277.332 237.792 277.06 237.792C276.004 237.792 275.076 238.4 274.66 239.264H274.628C274.628 238.944 274.596 238.384 274.564 237.984H273.524C273.572 238.496 273.588 239.232 273.588 239.632ZM289.834 245.472C289.786 244.96 289.77 244.224 289.77 243.824V237.984H288.682V241.824C288.682 243.824 287.562 244.752 286.41 244.752C284.842 244.752 284.378 243.696 284.378 242.128V237.984H283.29V242.576C283.29 244.432 284.234 245.664 286.138 245.664C287.194 245.664 288.282 245.056 288.698 244.192H288.73C288.73 244.512 288.762 245.072 288.794 245.472H289.834ZM297.467 239.136C296.987 238.288 295.883 237.792 294.843 237.792C293.483 237.792 292.171 238.448 292.171 239.968C292.171 241.392 293.435 241.776 294.315 241.984C295.739 242.32 296.523 242.64 296.523 243.424C296.523 244.4 295.691 244.736 294.763 244.736C293.883 244.736 293.067 244.224 292.683 243.568L291.819 244.208C292.507 245.216 293.643 245.664 294.779 245.664C296.155 245.664 297.595 245.056 297.595 243.344C297.595 242.176 296.763 241.52 295.003 241.152C293.771 240.896 293.211 240.576 293.211 239.872C293.211 239.04 294.011 238.704 294.795 238.704C295.627 238.704 296.315 239.136 296.635 239.76L297.467 239.136ZM300.864 237.984H299.776V245.472H300.864V237.984ZM301.088 235.104C301.088 234.656 300.704 234.336 300.32 234.336C299.936 234.336 299.552 234.656 299.552 235.104C299.552 235.552 299.936 235.872 300.32 235.872C300.704 235.872 301.088 235.552 301.088 235.104ZM303.696 237.984C303.744 238.496 303.76 239.232 303.76 239.632V245.472H304.848V241.632C304.848 239.632 305.968 238.704 307.12 238.704C308.688 238.704 309.152 239.76 309.152 241.328V245.472H310.24V240.88C310.24 239.024 309.296 237.792 307.392 237.792C306.336 237.792 305.248 238.4 304.832 239.264H304.8C304.8 238.944 304.768 238.384 304.736 237.984H303.696ZM312.673 247.808C313.553 248.736 314.897 249.312 316.273 249.312C319.585 249.312 320.337 247.04 320.337 245.408V237.984H319.249V239.28H319.217C318.625 238.32 317.473 237.792 316.385 237.792C314.049 237.792 312.513 239.536 312.513 241.664C312.513 243.856 314.049 245.472 316.385 245.472C317.473 245.472 318.641 244.928 319.217 244H319.249V245.408C319.249 247.024 318.465 248.352 316.321 248.352C315.185 248.352 314.049 247.744 313.457 246.976L312.673 247.808ZM313.665 241.632C313.665 240.064 314.689 238.704 316.497 238.704C318.177 238.704 319.377 240.064 319.377 241.632C319.377 243.36 318.177 244.544 316.497 244.544C314.689 244.544 313.665 243.2 313.665 241.632ZM334.607 241.728C334.607 239.472 332.943 237.792 330.607 237.792C328.287 237.792 326.623 239.472 326.623 241.728C326.623 243.984 328.287 245.664 330.607 245.664C332.943 245.664 334.607 243.984 334.607 241.728ZM333.455 241.728C333.455 243.408 332.351 244.736 330.607 244.736C328.879 244.736 327.775 243.408 327.775 241.728C327.775 240.048 328.879 238.704 330.607 238.704C332.351 238.704 333.455 240.048 333.455 241.728ZM343.428 245.472C343.38 244.96 343.364 244.224 343.364 243.824V237.984H342.276V241.824C342.276 243.824 341.156 244.752 340.004 244.752C338.436 244.752 337.972 243.696 337.972 242.128V237.984H336.884V242.576C336.884 244.432 337.828 245.664 339.732 245.664C340.788 245.664 341.876 245.056 342.292 244.192H342.324C342.324 244.512 342.356 245.072 342.388 245.472H343.428ZM346.245 239.632V245.472H347.333V241.632C347.333 239.632 348.373 238.8 349.525 238.8C349.813 238.8 350.165 238.848 350.293 238.896L350.437 237.872C350.213 237.808 349.989 237.792 349.717 237.792C348.661 237.792 347.733 238.4 347.317 239.264H347.285C347.285 238.944 347.253 238.384 347.221 237.984H346.181C346.229 238.496 346.245 239.232 346.245 239.632ZM359.386 237.984H357.274V235.872H356.186V237.984H354.634V238.896H356.186V243.568C356.186 245.216 357.306 245.568 358.106 245.568C358.602 245.568 359.002 245.488 359.386 245.344L359.338 244.4C359.05 244.544 358.698 244.64 358.394 244.64C357.738 244.64 357.274 244.384 357.274 243.264V238.896H359.386V237.984ZM361.696 241.152C361.792 239.872 362.864 238.704 364.32 238.704C365.872 238.704 366.736 239.744 366.8 241.152H361.696ZM367.904 241.504C367.904 239.456 366.672 237.792 364.32 237.792C362.192 237.792 360.544 239.472 360.544 241.728C360.544 243.984 362.192 245.664 364.416 245.664C365.648 245.664 366.752 245.2 367.632 244.08L366.816 243.44C366.4 244.112 365.536 244.736 364.416 244.736C362.88 244.736 361.712 243.52 361.68 242.016H367.888C367.904 241.824 367.904 241.648 367.904 241.504ZM371.365 233.376H370.277V245.472H371.365V233.376ZM374.884 241.152C374.98 239.872 376.052 238.704 377.508 238.704C379.06 238.704 379.924 239.744 379.988 241.152H374.884ZM381.092 241.504C381.092 239.456 379.86 237.792 377.508 237.792C375.38 237.792 373.732 239.472 373.732 241.728C373.732 243.984 375.38 245.664 377.604 245.664C378.836 245.664 379.94 245.2 380.82 244.08L380.004 243.44C379.588 244.112 378.724 244.736 377.604 244.736C376.068 244.736 374.9 243.52 374.868 242.016H381.076C381.092 241.824 381.092 241.648 381.092 241.504ZM383.048 247.808C383.928 248.736 385.272 249.312 386.648 249.312C389.96 249.312 390.712 247.04 390.712 245.408V237.984H389.624V239.28H389.592C389 238.32 387.848 237.792 386.76 237.792C384.424 237.792 382.888 239.536 382.888 241.664C382.888 243.856 384.424 245.472 386.76 245.472C387.848 245.472 389.016 244.928 389.592 244H389.624V245.408C389.624 247.024 388.84 248.352 386.696 248.352C385.56 248.352 384.424 247.744 383.832 246.976L383.048 247.808ZM384.04 241.632C384.04 240.064 385.064 238.704 386.872 238.704C388.552 238.704 389.752 240.064 389.752 241.632C389.752 243.36 388.552 244.544 386.872 244.544C385.064 244.544 384.04 243.2 384.04 241.632ZM393.542 239.632V245.472H394.63V241.632C394.63 239.632 395.67 238.8 396.822 238.8C397.11 238.8 397.462 238.848 397.59 238.896L397.734 237.872C397.51 237.808 397.286 237.792 397.014 237.792C395.958 237.792 395.03 238.4 394.614 239.264H394.582C394.582 238.944 394.55 238.384 394.518 237.984H393.478C393.526 238.496 393.542 239.232 393.542 239.632ZM403.84 240.88C401.104 240.88 398.56 241.088 398.56 243.392C398.56 245.056 400.016 245.664 401.152 245.664C402.352 245.664 403.184 245.248 403.872 244.256H403.904C403.904 244.656 403.952 245.104 404.016 245.472H404.992C404.912 245.056 404.864 244.368 404.864 243.792V240.512C404.864 238.688 403.568 237.792 401.952 237.792C400.672 237.792 399.616 238.256 399.008 238.864L399.616 239.584C400.144 239.056 400.96 238.704 401.84 238.704C403.136 238.704 403.84 239.344 403.84 240.64V240.88ZM403.84 241.728V242.288C403.84 243.616 402.976 244.768 401.44 244.768C400.592 244.768 399.68 244.416 399.68 243.344C399.68 241.92 401.744 241.728 403.52 241.728H403.84ZM408.739 239.264H408.707C408.707 238.944 408.675 238.384 408.643 237.984H407.603C407.651 238.496 407.667 239.232 407.667 239.632V245.472H408.755V241.632C408.755 239.632 409.891 238.704 410.931 238.704C412.387 238.704 412.739 239.648 412.739 241.104V245.472H413.827V241.488C413.827 240.096 414.387 238.704 415.955 238.704C417.363 238.704 417.891 239.76 417.891 241.328V245.472H418.979V240.88C418.979 239.024 418.035 237.792 416.131 237.792C414.931 237.792 414.019 238.352 413.507 239.376C413.011 238.096 412.019 237.792 411.203 237.792C410.131 237.792 409.171 238.4 408.739 239.264ZM426.944 244.208C427.584 245.152 428.704 245.664 429.776 245.664C432.112 245.664 433.648 243.936 433.648 241.728C433.648 239.52 432.112 237.792 429.776 237.792C428.704 237.792 427.584 238.304 426.944 239.28H426.912V233.376H425.824V245.472H426.912V244.208H426.944ZM432.496 241.728C432.496 243.392 431.472 244.736 429.664 244.736C427.984 244.736 426.784 243.44 426.784 241.728C426.784 240.016 427.984 238.704 429.664 238.704C431.472 238.704 432.496 240.064 432.496 241.728ZM443.419 241.728C443.419 239.472 441.755 237.792 439.419 237.792C437.099 237.792 435.435 239.472 435.435 241.728C435.435 243.984 437.099 245.664 439.419 245.664C441.755 245.664 443.419 243.984 443.419 241.728ZM442.267 241.728C442.267 243.408 441.163 244.736 439.419 244.736C437.691 244.736 436.587 243.408 436.587 241.728C436.587 240.048 437.691 238.704 439.419 238.704C441.163 238.704 442.267 240.048 442.267 241.728ZM449.136 237.984H447.024V235.872H445.936V237.984H444.384V238.896H445.936V243.568C445.936 245.216 447.056 245.568 447.856 245.568C448.352 245.568 448.752 245.488 449.136 245.344L449.088 244.4C448.8 244.544 448.448 244.64 448.144 244.64C447.488 244.64 447.024 244.384 447.024 243.264V238.896H449.136V237.984ZM459.99 237.648C461.03 237.648 461.318 238.48 461.318 239.296C461.318 240.352 460.774 241.984 459.302 241.984C458.262 241.984 458.022 240.944 458.022 240.336C458.022 239.088 458.726 237.648 459.99 237.648ZM464.502 243.12C463.414 244.176 462.07 244.8 460.182 244.8C457.206 244.8 455.158 242.896 455.158 239.872C455.158 237.024 457.126 234.848 460.054 234.848C462.726 234.848 464.662 236.336 464.662 239.104C464.662 240.72 463.942 241.984 462.886 241.984C462.198 241.984 462.102 241.552 462.102 241.184C462.102 240.864 462.214 240.192 462.278 239.904L462.918 236.928H461.926L461.766 237.648H461.702C461.478 237.12 460.854 236.688 460.038 236.688C458.07 236.688 456.854 238.464 456.854 240.272C456.854 241.808 457.734 242.912 459.174 242.912C460.23 242.912 460.966 242.192 461.174 241.744H461.238C461.238 242.352 461.686 242.912 462.63 242.912C464.278 242.912 465.734 241.568 465.734 238.992C465.734 235.552 462.982 233.856 460.07 233.856C456.694 233.856 453.958 236.416 453.958 239.824C453.958 243.296 456.406 245.76 460.07 245.76C462.102 245.76 463.846 245.136 465.094 243.856L464.502 243.12ZM474.099 235.232C473.555 234.496 472.419 233.856 470.899 233.856C469.235 233.856 467.283 234.784 467.283 236.976C467.283 239.024 468.819 239.68 470.323 240.144C471.763 240.592 473.091 240.992 473.091 242.576C473.091 244.032 471.747 244.768 470.579 244.768C469.395 244.768 468.483 244.144 467.987 243.344L466.995 244.08C467.811 245.2 469.187 245.76 470.563 245.76C472.355 245.76 474.259 244.768 474.259 242.496C474.259 240.224 472.499 239.712 470.899 239.184C469.635 238.768 468.435 238.4 468.435 236.96C468.435 235.504 469.731 234.832 470.851 234.832C471.923 234.832 472.707 235.28 473.187 235.968L474.099 235.232ZM476.283 247.808C477.163 248.736 478.507 249.312 479.883 249.312C483.195 249.312 483.947 247.04 483.947 245.408V237.984H482.859V239.28H482.827C482.235 238.32 481.083 237.792 479.995 237.792C477.659 237.792 476.123 239.536 476.123 241.664C476.123 243.856 477.659 245.472 479.995 245.472C481.083 245.472 482.251 244.928 482.827 244H482.859V245.408C482.859 247.024 482.075 248.352 479.931 248.352C478.795 248.352 477.659 247.744 477.067 246.976L476.283 247.808ZM477.275 241.632C477.275 240.064 478.299 238.704 480.107 238.704C481.787 238.704 482.987 240.064 482.987 241.632C482.987 243.36 481.787 244.544 480.107 244.544C478.299 244.544 477.275 243.2 477.275 241.632ZM485.736 243.456C486.008 244.8 487.144 245.76 488.776 245.76C491.256 245.76 491.8 243.68 491.8 242.208V234.144H490.648V242.128C490.648 243.488 490.232 244.752 488.648 244.752C487.64 244.752 486.984 244.048 486.808 243.168L485.736 243.456ZM502.091 241.728C502.091 239.472 500.427 237.792 498.091 237.792C495.771 237.792 494.107 239.472 494.107 241.728C494.107 243.984 495.771 245.664 498.091 245.664C500.427 245.664 502.091 243.984 502.091 241.728ZM500.939 241.728C500.939 243.408 499.835 244.736 498.091 244.736C496.363 244.736 495.259 243.408 495.259 241.728C495.259 240.048 496.363 238.704 498.091 238.704C499.835 238.704 500.939 240.048 500.939 241.728ZM505.584 244.208C506.224 245.152 507.344 245.664 508.416 245.664C510.752 245.664 512.288 243.936 512.288 241.728C512.288 239.52 510.752 237.792 508.416 237.792C507.344 237.792 506.224 238.304 505.584 239.28H505.552V233.376H504.464V245.472H505.552V244.208H505.584ZM511.136 241.728C511.136 243.392 510.112 244.736 508.304 244.736C506.624 244.736 505.424 243.44 505.424 241.728C505.424 240.016 506.624 238.704 508.304 238.704C510.112 238.704 511.136 240.064 511.136 241.728ZM514.684 245.472H518.044C520.652 245.472 522.268 244.224 522.268 242.336C522.268 240.688 521.18 239.664 519.708 239.504V239.472C520.908 239.2 521.708 238.224 521.708 237.04C521.708 234.768 519.788 234.144 518.06 234.144H514.684V245.472ZM515.836 235.136H517.836C519.324 235.136 520.556 235.68 520.556 237.12C520.556 238.624 519.26 239.104 518.156 239.104H515.836V235.136ZM515.836 240.048H518.188C520.028 240.048 521.1 240.784 521.1 242.272C521.1 243.856 519.644 244.48 517.98 244.48H515.836V240.048ZM532.232 241.728C532.232 239.472 530.568 237.792 528.232 237.792C525.912 237.792 524.248 239.472 524.248 241.728C524.248 243.984 525.912 245.664 528.232 245.664C530.568 245.664 532.232 243.984 532.232 241.728ZM531.08 241.728C531.08 243.408 529.976 244.736 528.232 244.736C526.504 244.736 525.4 243.408 525.4 241.728C525.4 240.048 526.504 238.704 528.232 238.704C529.976 238.704 531.08 240.048 531.08 241.728ZM537.949 237.984H535.837V235.872H534.749V237.984H533.197V238.896H534.749V243.568C534.749 245.216 535.869 245.568 536.669 245.568C537.165 245.568 537.565 245.488 537.949 245.344L537.901 244.4C537.613 244.544 537.261 244.64 536.957 244.64C536.301 244.64 535.837 244.384 535.837 243.264V238.896H537.949V237.984ZM541.155 244.704C541.155 244.256 540.803 243.84 540.291 243.84C539.779 243.84 539.427 244.256 539.427 244.704C539.427 245.152 539.779 245.568 540.291 245.568C540.803 245.568 541.155 245.152 541.155 244.704Z" fill="white"/>
<path d="M13.4004 192.823H16.0404V177.247H13.6424L8.78044 181.163L10.3204 182.989L13.4004 180.459V192.823ZM21.7902 191.283C21.7902 192.229 22.6262 192.955 23.5502 192.955C24.5182 192.955 25.3102 192.185 25.3102 191.239C25.3102 190.293 24.4962 189.567 23.5502 189.567C22.5822 189.567 21.7902 190.337 21.7902 191.283ZM35.4543 192.823H38.2263V185.915H45.5083V192.823H48.2803V177.247H45.5083V183.539H38.2263V177.247H35.4543V192.823ZM50.97 187.499C50.97 190.821 53.522 193.131 56.712 193.131C59.902 193.131 62.454 190.821 62.454 187.499C62.454 184.177 59.902 181.955 56.712 181.955C53.522 181.955 50.97 184.177 50.97 187.499ZM53.654 187.499C53.654 185.849 54.622 184.111 56.712 184.111C58.802 184.111 59.77 185.849 59.77 187.499C59.77 189.149 58.802 190.931 56.712 190.931C54.622 190.931 53.654 189.149 53.654 187.499ZM67.1917 192.823H69.8757L72.2517 185.431H72.2957L74.6937 192.823H77.3777L81.0297 182.263H78.2797L76.0357 189.831H75.9917L73.7037 182.263H70.8877L68.6217 189.831H68.5777L66.3777 182.263H63.5177L67.1917 192.823ZM98.9313 176.191H96.2913V183.605H96.2253C95.6753 182.923 94.6193 181.955 92.6833 181.955C89.6693 181.955 87.5573 184.375 87.5573 187.499C87.5573 190.579 89.5373 193.131 92.7493 193.131C94.2233 193.131 95.6533 192.449 96.3793 191.239H96.4233V192.823H98.9313V176.191ZM90.2413 187.499C90.2413 185.849 91.2313 184.111 93.2773 184.111C95.2133 184.111 96.3793 185.893 96.3793 187.543C96.3793 189.193 95.2133 190.931 93.2773 190.931C91.2313 190.931 90.2413 189.149 90.2413 187.499ZM101.523 187.499C101.523 190.821 104.075 193.131 107.265 193.131C110.455 193.131 113.007 190.821 113.007 187.499C113.007 184.177 110.455 181.955 107.265 181.955C104.075 181.955 101.523 184.177 101.523 187.499ZM104.207 187.499C104.207 185.849 105.175 184.111 107.265 184.111C109.355 184.111 110.323 185.849 110.323 187.499C110.323 189.149 109.355 190.931 107.265 190.931C105.175 190.931 104.207 189.149 104.207 187.499ZM121.198 192.823H123.97V177.247H121.198V192.823ZM132.775 182.263V198.103H135.415V191.415H135.459C136.141 192.471 137.483 193.131 138.957 193.131C142.169 193.131 144.149 190.579 144.149 187.499C144.149 184.375 142.037 181.955 139.023 181.955C137.087 181.955 135.899 182.901 135.371 183.737H135.305V182.263H132.775ZM141.465 187.499C141.465 189.149 140.475 190.931 138.429 190.931C136.493 190.931 135.327 189.193 135.327 187.543C135.327 185.893 136.493 184.111 138.429 184.111C140.475 184.111 141.465 185.849 141.465 187.499ZM146.081 187.499C146.081 190.821 148.633 193.131 151.823 193.131C155.013 193.131 157.565 190.821 157.565 187.499C157.565 184.177 155.013 181.955 151.823 181.955C148.633 181.955 146.081 184.177 146.081 187.499ZM148.765 187.499C148.765 185.849 149.733 184.111 151.823 184.111C153.913 184.111 154.881 185.849 154.881 187.499C154.881 189.149 153.913 190.931 151.823 190.931C149.733 190.931 148.765 189.149 148.765 187.499ZM167.627 183.561C166.769 182.483 165.185 181.955 163.667 181.955C161.577 181.955 159.465 182.967 159.465 185.321C159.465 187.301 161.027 187.939 162.589 188.313C164.195 188.687 165.009 188.951 165.009 189.831C165.009 190.777 164.085 191.085 163.315 191.085C162.171 191.085 161.181 190.513 160.609 189.765L158.871 191.393C159.883 192.515 161.577 193.131 163.205 193.131C165.515 193.131 167.605 192.185 167.605 189.611C167.605 187.543 165.757 186.839 164.195 186.465C162.721 186.113 161.907 185.893 161.907 185.079C161.907 184.243 162.765 183.935 163.601 183.935C164.569 183.935 165.449 184.463 165.911 185.079L167.627 183.561ZM170.23 184.375V189.303C170.23 191.327 170.868 193.043 173.662 193.043C174.256 193.043 174.96 192.933 175.422 192.757L175.334 190.689C175.026 190.843 174.564 190.909 174.212 190.909C173.046 190.909 172.826 190.227 172.826 189.281V184.375H175.466V182.263H172.826V179.205H170.23V182.263H168.382V184.375H170.23ZM182.921 182.263V193.571C182.921 194.781 182.745 195.815 181.491 195.815C181.293 195.815 181.007 195.793 180.765 195.727L180.545 197.971C180.809 198.037 181.293 198.103 181.733 198.103C184.879 198.103 185.561 195.991 185.561 193.461V182.263H182.921ZM182.547 178.677C182.547 179.513 183.251 180.261 184.219 180.261C185.187 180.261 185.935 179.579 185.935 178.677C185.935 177.775 185.187 177.093 184.219 177.093C183.251 177.093 182.547 177.841 182.547 178.677ZM188.148 187.499C188.148 190.821 190.7 193.131 193.89 193.131C197.08 193.131 199.632 190.821 199.632 187.499C199.632 184.177 197.08 181.955 193.89 181.955C190.7 181.955 188.148 184.177 188.148 187.499ZM190.832 187.499C190.832 185.849 191.8 184.111 193.89 184.111C195.98 184.111 196.948 185.849 196.948 187.499C196.948 189.149 195.98 190.931 193.89 190.931C191.8 190.931 190.832 189.149 190.832 187.499ZM202.235 176.191V192.823H204.743V191.239H204.787C205.513 192.449 206.943 193.131 208.417 193.131C211.629 193.131 213.609 190.579 213.609 187.499C213.609 184.375 211.497 181.955 208.483 181.955C206.547 181.955 205.491 182.923 204.941 183.605H204.875V176.191H202.235ZM210.925 187.499C210.925 189.149 209.935 190.931 207.889 190.931C205.953 190.931 204.787 189.193 204.787 187.543C204.787 185.893 205.953 184.111 207.889 184.111C209.935 184.111 210.925 185.849 210.925 187.499ZM223.658 183.561C222.8 182.483 221.216 181.955 219.698 181.955C217.608 181.955 215.496 182.967 215.496 185.321C215.496 187.301 217.058 187.939 218.62 188.313C220.226 188.687 221.04 188.951 221.04 189.831C221.04 190.777 220.116 191.085 219.346 191.085C218.202 191.085 217.212 190.513 216.64 189.765L214.902 191.393C215.914 192.515 217.608 193.131 219.236 193.131C221.546 193.131 223.636 192.185 223.636 189.611C223.636 187.543 221.788 186.839 220.226 186.465C218.752 186.113 217.938 185.893 217.938 185.079C217.938 184.243 218.796 183.935 219.632 183.935C220.6 183.935 221.48 184.463 221.942 185.079L223.658 183.561ZM231.564 188.225V187.653C231.564 186.377 231.872 186.003 233.016 184.991C234.38 183.803 235.216 182.967 235.216 181.097C235.216 178.325 233.06 176.851 230.53 176.851C227.824 176.851 225.734 178.501 225.404 181.295L228.11 181.537C228.154 180.349 228.99 179.249 230.354 179.249C231.652 179.249 232.422 180.129 232.422 181.273C232.422 182.153 231.96 182.725 231.41 183.231L230.42 184.177C229.32 185.233 228.968 185.981 228.968 187.389V188.225H231.564ZM228.528 191.283C228.528 192.229 229.364 192.955 230.288 192.955C231.256 192.955 232.048 192.185 232.048 191.239C232.048 190.293 231.234 189.567 230.288 189.567C229.32 189.567 228.528 190.337 228.528 191.283Z" fill="white"/>
<path d="M952.308 183.686L945.348 176.726C944.895 176.273 944.163 176.273 943.711 176.726C943.258 177.179 943.258 177.911 943.711 178.363L950.671 185.324L943.711 192.284C943.258 192.737 943.258 193.468 943.711 193.921C944.163 194.374 944.895 194.374 945.348 193.921L952.308 186.961L959.268 193.921C959.721 194.374 960.453 194.374 960.906 193.921C961.132 193.695 961.245 193.399 961.245 193.102C961.245 192.806 961.132 192.509 960.906 192.284L953.946 185.324L960.906 178.363C961.132 178.138 961.245 177.841 961.245 177.545C961.245 177.248 961.132 176.952 960.906 176.726C960.453 176.273 959.721 176.273 959.268 176.726L952.308 183.686Z" fill="white"/>
<path d="M2.25628 337.254H12.6183V334.834H5.60028L10.0883 330.544C11.4743 329.224 12.5963 327.838 12.5963 325.836C12.5963 322.844 10.1103 321.282 7.40428 321.282C4.54428 321.282 2.45428 323.174 2.14628 325.748L4.72028 326.144C4.91828 324.626 5.86428 323.482 7.36028 323.482C8.76828 323.482 9.84628 324.428 9.84628 325.88C9.84628 327.09 9.23028 327.992 8.26228 328.938L2.25628 334.834V337.254ZM15.266 335.714C15.266 336.66 16.102 337.386 17.026 337.386C17.994 337.386 18.786 336.616 18.786 335.67C18.786 334.724 17.972 333.998 17.026 333.998C16.058 333.998 15.266 334.768 15.266 335.714ZM31.9308 337.254H34.7028V330.346H41.9848V337.254H44.7568V321.678H41.9848V327.97H34.7028V321.678H31.9308V337.254ZM47.4465 331.93C47.4465 335.252 49.9985 337.562 53.1885 337.562C56.3785 337.562 58.9305 335.252 58.9305 331.93C58.9305 328.608 56.3785 326.386 53.1885 326.386C49.9985 326.386 47.4465 328.608 47.4465 331.93ZM50.1305 331.93C50.1305 330.28 51.0985 328.542 53.1885 328.542C55.2785 328.542 56.2465 330.28 56.2465 331.93C56.2465 333.58 55.2785 335.362 53.1885 335.362C51.0985 335.362 50.1305 333.58 50.1305 331.93ZM63.6683 337.254H66.3523L68.7283 329.862H68.7723L71.1703 337.254H73.8543L77.5063 326.694H74.7563L72.5123 334.262H72.4683L70.1803 326.694H67.3643L65.0983 334.262H65.0543L62.8543 326.694H59.9943L63.6683 337.254ZM95.4079 320.622H92.7679V328.036H92.7019C92.1519 327.354 91.0959 326.386 89.1599 326.386C86.1459 326.386 84.0339 328.806 84.0339 331.93C84.0339 335.01 86.0139 337.562 89.2259 337.562C90.6999 337.562 92.1299 336.88 92.8559 335.67H92.8999V337.254H95.4079V320.622ZM86.7179 331.93C86.7179 330.28 87.7079 328.542 89.7539 328.542C91.6899 328.542 92.8559 330.324 92.8559 331.974C92.8559 333.624 91.6899 335.362 89.7539 335.362C87.7079 335.362 86.7179 333.58 86.7179 331.93ZM97.9993 331.93C97.9993 335.252 100.551 337.562 103.741 337.562C106.931 337.562 109.483 335.252 109.483 331.93C109.483 328.608 106.931 326.386 103.741 326.386C100.551 326.386 97.9993 328.608 97.9993 331.93ZM100.683 331.93C100.683 330.28 101.651 328.542 103.741 328.542C105.831 328.542 106.799 330.28 106.799 331.93C106.799 333.58 105.831 335.362 103.741 335.362C101.651 335.362 100.683 333.58 100.683 331.93ZM117.675 337.254H120.447V321.678H117.675V337.254ZM129.252 337.254H131.892V331.6C131.892 330.83 132.354 328.762 134.73 328.762C134.972 328.762 135.192 328.784 135.544 328.872V326.452C135.368 326.408 135.104 326.386 134.906 326.386C133.52 326.386 132.398 327.244 131.826 328.454H131.782V326.694H129.252V337.254ZM138.903 330.918C139.013 329.444 140.267 328.366 141.829 328.366C143.545 328.366 144.315 329.554 144.315 330.918H138.903ZM146.955 332.106C146.955 328.3 144.799 326.386 141.851 326.386C138.661 326.386 136.263 328.63 136.263 332.04C136.263 335.472 138.683 337.562 141.939 337.562C143.941 337.562 145.437 336.858 146.471 335.45L144.711 334.042C144.117 334.878 143.237 335.406 141.917 335.406C140.377 335.406 139.013 334.306 138.903 332.81H146.933C146.955 332.568 146.955 332.348 146.955 332.106ZM158.532 328.036C157.696 327.002 156.09 326.386 154.55 326.386C151.448 326.386 148.896 328.542 148.896 331.974C148.896 335.494 151.492 337.562 154.616 337.562C156.178 337.562 157.63 337.034 158.51 336.088L156.86 334.416C156.354 335.032 155.452 335.362 154.638 335.362C152.636 335.362 151.646 333.624 151.646 331.974C151.646 330.324 152.614 328.586 154.55 328.586C155.408 328.586 156.31 329.026 156.728 329.62L158.532 328.036ZM162.278 330.918C162.388 329.444 163.642 328.366 165.204 328.366C166.92 328.366 167.69 329.554 167.69 330.918H162.278ZM170.33 332.106C170.33 328.3 168.174 326.386 165.226 326.386C162.036 326.386 159.638 328.63 159.638 332.04C159.638 335.472 162.058 337.562 165.314 337.562C167.316 337.562 168.812 336.858 169.846 335.45L168.086 334.042C167.492 334.878 166.612 335.406 165.292 335.406C163.752 335.406 162.388 334.306 162.278 332.81H170.308C170.33 332.568 170.33 332.348 170.33 332.106ZM172.931 337.254H175.571V326.694H172.931V337.254ZM172.557 323.108C172.557 323.944 173.261 324.692 174.229 324.692C175.197 324.692 175.945 324.01 175.945 323.108C175.945 322.206 175.197 321.524 174.229 321.524C173.261 321.524 172.557 322.272 172.557 323.108ZM181.457 337.254H184.273L188.475 326.694H185.681L182.887 334.394H182.843L180.071 326.694H177.189L181.457 337.254ZM192.077 330.918C192.187 329.444 193.441 328.366 195.003 328.366C196.719 328.366 197.489 329.554 197.489 330.918H192.077ZM200.129 332.106C200.129 328.3 197.973 326.386 195.025 326.386C191.835 326.386 189.437 328.63 189.437 332.04C189.437 335.472 191.857 337.562 195.113 337.562C197.115 337.562 198.611 336.858 199.645 335.45L197.885 334.042C197.291 334.878 196.411 335.406 195.091 335.406C193.551 335.406 192.187 334.306 192.077 332.81H200.107C200.129 332.568 200.129 332.348 200.129 332.106ZM208.23 326.694V338.002C208.23 339.212 208.054 340.246 206.8 340.246C206.602 340.246 206.316 340.224 206.074 340.158L205.854 342.402C206.118 342.468 206.602 342.534 207.042 342.534C210.188 342.534 210.87 340.422 210.87 337.892V326.694H208.23ZM207.856 323.108C207.856 323.944 208.56 324.692 209.528 324.692C210.496 324.692 211.244 324.01 211.244 323.108C211.244 322.206 210.496 321.524 209.528 321.524C208.56 321.524 207.856 322.272 207.856 323.108ZM213.456 331.93C213.456 335.252 216.008 337.562 219.198 337.562C222.388 337.562 224.94 335.252 224.94 331.93C224.94 328.608 222.388 326.386 219.198 326.386C216.008 326.386 213.456 328.608 213.456 331.93ZM216.14 331.93C216.14 330.28 217.108 328.542 219.198 328.542C221.288 328.542 222.256 330.28 222.256 331.93C222.256 333.58 221.288 335.362 219.198 335.362C217.108 335.362 216.14 333.58 216.14 331.93ZM227.544 320.622V337.254H230.052V335.67H230.096C230.822 336.88 232.252 337.562 233.726 337.562C236.938 337.562 238.918 335.01 238.918 331.93C238.918 328.806 236.806 326.386 233.792 326.386C231.856 326.386 230.8 327.354 230.25 328.036H230.184V320.622H227.544ZM236.234 331.93C236.234 333.58 235.244 335.362 233.198 335.362C231.262 335.362 230.096 333.624 230.096 331.974C230.096 330.324 231.262 328.542 233.198 328.542C235.244 328.542 236.234 330.28 236.234 331.93ZM253.521 337.254H255.985V330.83C255.985 328.718 255.061 326.386 251.277 326.386C249.671 326.386 247.999 326.958 246.811 328.058L248.175 329.664C248.857 328.982 249.935 328.454 251.057 328.454C252.377 328.454 253.477 329.092 253.477 330.39V330.654C250.177 330.654 246.217 331.094 246.217 334.24C246.217 336.704 248.483 337.518 250.177 337.518C251.673 337.518 252.927 336.836 253.455 335.912H253.521V337.254ZM253.477 332.81C253.477 334.482 252.509 335.516 250.705 335.516C249.803 335.516 248.857 335.208 248.857 334.196C248.857 332.634 251.211 332.436 252.883 332.436H253.477V332.81ZM259.061 326.694V342.534H261.701V335.846H261.745C262.427 336.902 263.769 337.562 265.243 337.562C268.455 337.562 270.435 335.01 270.435 331.93C270.435 328.806 268.323 326.386 265.309 326.386C263.373 326.386 262.185 327.332 261.657 328.168H261.591V326.694H259.061ZM267.751 331.93C267.751 333.58 266.761 335.362 264.715 335.362C262.779 335.362 261.613 333.624 261.613 331.974C261.613 330.324 262.779 328.542 264.715 328.542C266.761 328.542 267.751 330.28 267.751 331.93ZM272.982 326.694V342.534H275.622V335.846H275.666C276.348 336.902 277.69 337.562 279.164 337.562C282.376 337.562 284.356 335.01 284.356 331.93C284.356 328.806 282.244 326.386 279.23 326.386C277.294 326.386 276.106 327.332 275.578 328.168H275.512V326.694H272.982ZM281.672 331.93C281.672 333.58 280.682 335.362 278.636 335.362C276.7 335.362 275.534 333.624 275.534 331.974C275.534 330.324 276.7 328.542 278.636 328.542C280.682 328.542 281.672 330.28 281.672 331.93ZM286.948 337.254H289.588V320.622H286.948V337.254ZM292.835 337.254H295.475V326.694H292.835V337.254ZM292.461 323.108C292.461 323.944 293.165 324.692 294.133 324.692C295.101 324.692 295.849 324.01 295.849 323.108C295.849 322.206 295.101 321.524 294.133 321.524C293.165 321.524 292.461 322.272 292.461 323.108ZM307.698 328.036C306.862 327.002 305.256 326.386 303.716 326.386C300.614 326.386 298.062 328.542 298.062 331.974C298.062 335.494 300.658 337.562 303.782 337.562C305.344 337.562 306.796 337.034 307.676 336.088L306.026 334.416C305.52 335.032 304.618 335.362 303.804 335.362C301.802 335.362 300.812 333.624 300.812 331.974C300.812 330.324 301.78 328.586 303.716 328.586C304.574 328.586 305.476 329.026 305.894 329.62L307.698 328.036ZM315.976 337.254H318.44V330.83C318.44 328.718 317.516 326.386 313.732 326.386C312.126 326.386 310.454 326.958 309.266 328.058L310.63 329.664C311.312 328.982 312.39 328.454 313.512 328.454C314.832 328.454 315.932 329.092 315.932 330.39V330.654C312.632 330.654 308.672 331.094 308.672 334.24C308.672 336.704 310.938 337.518 312.632 337.518C314.128 337.518 315.382 336.836 315.91 335.912H315.976V337.254ZM315.932 332.81C315.932 334.482 314.964 335.516 313.16 335.516C312.258 335.516 311.312 335.208 311.312 334.196C311.312 332.634 313.666 332.436 315.338 332.436H315.932V332.81ZM321.631 328.806V333.734C321.631 335.758 322.269 337.474 325.063 337.474C325.657 337.474 326.361 337.364 326.823 337.188L326.735 335.12C326.427 335.274 325.965 335.34 325.613 335.34C324.447 335.34 324.227 334.658 324.227 333.712V328.806H326.867V326.694H324.227V323.636H321.631V326.694H319.783V328.806H321.631ZM328.821 337.254H331.461V326.694H328.821V337.254ZM328.447 323.108C328.447 323.944 329.151 324.692 330.119 324.692C331.087 324.692 331.835 324.01 331.835 323.108C331.835 322.206 331.087 321.524 330.119 321.524C329.151 321.524 328.447 322.272 328.447 323.108ZM334.048 331.93C334.048 335.252 336.6 337.562 339.79 337.562C342.98 337.562 345.532 335.252 345.532 331.93C345.532 328.608 342.98 326.386 339.79 326.386C336.6 326.386 334.048 328.608 334.048 331.93ZM336.732 331.93C336.732 330.28 337.7 328.542 339.79 328.542C341.88 328.542 342.848 330.28 342.848 331.93C342.848 333.58 341.88 335.362 339.79 335.362C337.7 335.362 336.732 333.58 336.732 331.93ZM348.092 337.254H350.732V331.446C350.732 330.038 351.524 328.586 353.196 328.586C354.89 328.586 355.176 330.148 355.176 331.402V337.254H357.816V330.654C357.816 328.498 356.672 326.386 353.922 326.386C352.36 326.386 351.106 327.332 350.644 328.388H350.6V326.694H348.092V337.254ZM366.529 332.656V332.084C366.529 330.808 366.837 330.434 367.981 329.422C369.345 328.234 370.181 327.398 370.181 325.528C370.181 322.756 368.025 321.282 365.495 321.282C362.789 321.282 360.699 322.932 360.369 325.726L363.075 325.968C363.119 324.78 363.955 323.68 365.319 323.68C366.617 323.68 367.387 324.56 367.387 325.704C367.387 326.584 366.925 327.156 366.375 327.662L365.385 328.608C364.285 329.664 363.933 330.412 363.933 331.82V332.656H366.529ZM363.493 335.714C363.493 336.66 364.329 337.386 365.253 337.386C366.221 337.386 367.013 336.616 367.013 335.67C367.013 334.724 366.199 333.998 365.253 333.998C364.285 333.998 363.493 334.768 363.493 335.714Z" fill="white"/>
<path d="M953.465 328.596L953.465 318.753C953.465 318.113 952.947 317.595 952.307 317.595C951.667 317.595 951.149 318.113 951.149 318.753L951.149 328.596L941.306 328.596C940.666 328.596 940.148 329.114 940.148 329.754C940.148 330.394 940.666 330.912 941.306 330.912L951.149 330.912L951.149 340.755C951.149 341.395 951.667 341.913 952.307 341.913C952.626 341.913 952.916 341.783 953.126 341.574C953.336 341.364 953.465 341.074 953.465 340.755L953.465 330.912L963.308 330.912C963.627 330.912 963.917 330.782 964.127 330.573C964.336 330.363 964.466 330.073 964.466 329.754C964.466 329.114 963.948 328.596 963.308 328.596L953.465 328.596Z" fill="white"/>
<path d="M5.40228 412.649H6.06228C7.71228 412.649 9.84628 413.265 9.84628 415.289C9.84628 417.159 8.35028 417.863 6.98628 417.863C5.33628 417.863 4.25828 416.895 3.88428 415.663L1.42028 416.433C2.25628 419.029 4.45628 420.107 7.07428 420.107C9.71428 420.107 12.5083 418.545 12.5083 415.311C12.5083 413.397 11.1883 411.945 9.29628 411.571V411.527C10.9903 411.109 12.0903 409.679 12.0903 408.007C12.0903 405.213 9.80228 403.739 7.07428 403.739C4.58828 403.739 2.54228 405.213 1.99228 407.303L4.47828 407.941C4.78628 406.753 5.68828 405.939 6.96428 405.939C8.28428 405.939 9.42828 406.775 9.42828 408.183C9.42828 410.097 7.66828 410.537 6.10628 410.537H5.40228V412.649ZM15.266 418.171C15.266 419.117 16.102 419.843 17.026 419.843C17.994 419.843 18.786 419.073 18.786 418.127C18.786 417.181 17.972 416.455 17.026 416.455C16.058 416.455 15.266 417.225 15.266 418.171ZM34.643 419.711H37.327L40.979 408.029H41.023L44.675 419.711H47.359L51.913 404.135H48.965L45.885 415.575H45.841L42.475 404.135H39.615L36.183 415.575H36.139L33.125 404.135H30.089L34.643 419.711ZM59.501 408.843C57.939 408.843 56.773 409.745 56.355 410.625H56.311V403.079H53.671V419.711H56.311V413.947C56.311 412.539 57.125 411.109 58.797 411.109C60.491 411.109 60.755 412.649 60.755 413.903V419.711H63.395V413.111C63.395 410.955 62.251 408.843 59.501 408.843ZM69.4226 419.711L68.8946 421.053C68.4546 422.153 68.1466 422.703 67.0246 422.703C66.7386 422.703 66.3866 422.659 66.0346 422.549L65.8146 424.837C66.2766 424.947 66.7386 424.991 67.1786 424.991C69.5106 424.991 70.4346 423.891 71.1826 421.977L76.1766 409.151H73.4266L70.8086 416.829H70.7646L67.8166 409.151H64.8906L69.4226 419.711ZM90.7559 410.449C89.8979 409.371 88.3139 408.843 86.7959 408.843C84.7059 408.843 82.5939 409.855 82.5939 412.209C82.5939 414.189 84.1559 414.827 85.7179 415.201C87.3239 415.575 88.1379 415.839 88.1379 416.719C88.1379 417.665 87.2139 417.973 86.4439 417.973C85.2999 417.973 84.3099 417.401 83.7379 416.653L81.9999 418.281C83.0119 419.403 84.7059 420.019 86.3339 420.019C88.6439 420.019 90.7339 419.073 90.7339 416.499C90.7339 414.431 88.8859 413.727 87.3239 413.353C85.8499 413.001 85.0359 412.781 85.0359 411.967C85.0359 411.131 85.8939 410.823 86.7299 410.823C87.6979 410.823 88.5779 411.351 89.0399 411.967L90.7559 410.449ZM98.9033 408.843C97.3413 408.843 96.1753 409.745 95.7573 410.625H95.7133V403.079H93.0733V419.711H95.7133V413.947C95.7133 412.539 96.5273 411.109 98.1993 411.109C99.8933 411.109 100.157 412.649 100.157 413.903V419.711H102.797V413.111C102.797 410.955 101.653 408.843 98.9033 408.843ZM105.261 414.387C105.261 417.709 107.813 420.019 111.003 420.019C114.193 420.019 116.745 417.709 116.745 414.387C116.745 411.065 114.193 408.843 111.003 408.843C107.813 408.843 105.261 411.065 105.261 414.387ZM107.945 414.387C107.945 412.737 108.913 410.999 111.003 410.999C113.093 410.999 114.061 412.737 114.061 414.387C114.061 416.037 113.093 417.819 111.003 417.819C108.913 417.819 107.945 416.037 107.945 414.387ZM128.941 409.151H126.301V414.959C126.301 416.367 125.509 417.819 123.837 417.819C122.143 417.819 121.857 416.257 121.857 415.003V409.151H119.217V415.751C119.217 417.907 120.361 420.019 123.111 420.019C124.673 420.019 125.927 419.073 126.389 418.017H126.433V419.711H128.941V409.151ZM132.153 419.711H134.793V403.079H132.153V419.711ZM148.732 403.079H146.092V410.493H146.026C145.476 409.811 144.42 408.843 142.484 408.843C139.47 408.843 137.358 411.263 137.358 414.387C137.358 417.467 139.338 420.019 142.55 420.019C144.024 420.019 145.454 419.337 146.18 418.127H146.224V419.711H148.732V403.079ZM140.042 414.387C140.042 412.737 141.032 410.999 143.078 410.999C145.014 410.999 146.18 412.781 146.18 414.431C146.18 416.081 145.014 417.819 143.078 417.819C141.032 417.819 140.042 416.037 140.042 414.387ZM160.387 419.711L159.859 421.053C159.419 422.153 159.111 422.703 157.989 422.703C157.703 422.703 157.351 422.659 156.999 422.549L156.779 424.837C157.241 424.947 157.703 424.991 158.143 424.991C160.475 424.991 161.399 423.891 162.147 421.977L167.141 409.151H164.391L161.773 416.829H161.729L158.781 409.151H155.855L160.387 419.711ZM168.103 414.387C168.103 417.709 170.655 420.019 173.845 420.019C177.035 420.019 179.587 417.709 179.587 414.387C179.587 411.065 177.035 408.843 173.845 408.843C170.655 408.843 168.103 411.065 168.103 414.387ZM170.787 414.387C170.787 412.737 171.755 410.999 173.845 410.999C175.935 410.999 176.903 412.737 176.903 414.387C176.903 416.037 175.935 417.819 173.845 417.819C171.755 417.819 170.787 416.037 170.787 414.387ZM191.783 409.151H189.143V414.959C189.143 416.367 188.351 417.819 186.679 417.819C184.985 417.819 184.699 416.257 184.699 415.003V409.151H182.059V415.751C182.059 417.907 183.203 420.019 185.953 420.019C187.515 420.019 188.769 419.073 189.231 418.017H189.275V419.711H191.783V409.151ZM210.087 409.151H207.447V414.959C207.447 416.367 206.655 417.819 204.983 417.819C203.289 417.819 203.003 416.257 203.003 415.003V409.151H200.363V415.751C200.363 417.907 201.507 420.019 204.257 420.019C205.819 420.019 207.073 419.073 207.535 418.017H207.579V419.711H210.087V409.151ZM220.758 410.449C219.9 409.371 218.316 408.843 216.798 408.843C214.708 408.843 212.596 409.855 212.596 412.209C212.596 414.189 214.158 414.827 215.72 415.201C217.326 415.575 218.14 415.839 218.14 416.719C218.14 417.665 217.216 417.973 216.446 417.973C215.302 417.973 214.312 417.401 213.74 416.653L212.002 418.281C213.014 419.403 214.708 420.019 216.336 420.019C218.646 420.019 220.736 419.073 220.736 416.499C220.736 414.431 218.888 413.727 217.326 413.353C215.852 413.001 215.038 412.781 215.038 411.967C215.038 411.131 215.896 410.823 216.732 410.823C217.7 410.823 218.58 411.351 219.042 411.967L220.758 410.449ZM225.055 413.375C225.165 411.901 226.419 410.823 227.981 410.823C229.697 410.823 230.467 412.011 230.467 413.375H225.055ZM233.107 414.563C233.107 410.757 230.951 408.843 228.003 408.843C224.813 408.843 222.415 411.087 222.415 414.497C222.415 417.929 224.835 420.019 228.091 420.019C230.093 420.019 231.589 419.315 232.623 417.907L230.863 416.499C230.269 417.335 229.389 417.863 228.069 417.863C226.529 417.863 225.165 416.763 225.055 415.267H233.085C233.107 415.025 233.107 414.805 233.107 414.563ZM250.8 409.151H248.16V414.959C248.16 416.367 247.368 417.819 245.696 417.819C244.002 417.819 243.716 416.257 243.716 415.003V409.151H241.076V415.751C241.076 417.907 242.22 420.019 244.97 420.019C246.532 420.019 247.786 419.073 248.248 418.017H248.292V419.711H250.8V409.151ZM261.471 410.449C260.613 409.371 259.029 408.843 257.511 408.843C255.421 408.843 253.309 409.855 253.309 412.209C253.309 414.189 254.871 414.827 256.433 415.201C258.039 415.575 258.853 415.839 258.853 416.719C258.853 417.665 257.929 417.973 257.159 417.973C256.015 417.973 255.025 417.401 254.453 416.653L252.715 418.281C253.727 419.403 255.421 420.019 257.049 420.019C259.359 420.019 261.449 419.073 261.449 416.499C261.449 414.431 259.601 413.727 258.039 413.353C256.565 413.001 255.751 412.781 255.751 411.967C255.751 411.131 256.609 410.823 257.445 410.823C258.413 410.823 259.293 411.351 259.755 411.967L261.471 410.449ZM269.376 415.113V414.541C269.376 413.265 269.684 412.891 270.828 411.879C272.192 410.691 273.028 409.855 273.028 407.985C273.028 405.213 270.872 403.739 268.342 403.739C265.636 403.739 263.546 405.389 263.216 408.183L265.922 408.425C265.966 407.237 266.802 406.137 268.166 406.137C269.464 406.137 270.234 407.017 270.234 408.161C270.234 409.041 269.772 409.613 269.222 410.119L268.232 411.065C267.132 412.121 266.78 412.869 266.78 414.277V415.113H269.376ZM266.34 418.171C266.34 419.117 267.176 419.843 268.1 419.843C269.068 419.843 269.86 419.073 269.86 418.127C269.86 417.181 269.046 416.455 268.1 416.455C267.132 416.455 266.34 417.225 266.34 418.171Z" fill="white"/>
<path d="M953.465 411.053L953.465 401.21C953.465 400.57 952.947 400.052 952.307 400.052C951.667 400.052 951.149 400.57 951.149 401.21L951.149 411.053L941.306 411.053C940.666 411.053 940.148 411.571 940.148 412.211C940.148 412.851 940.666 413.369 941.306 413.369L951.149 413.369L951.149 423.212C951.149 423.852 951.667 424.37 952.307 424.37C952.626 424.37 952.916 424.24 953.126 424.031C953.336 423.821 953.465 423.531 953.465 423.212L953.465 413.369L963.308 413.369C963.627 413.369 963.917 413.239 964.127 413.03C964.336 412.82 964.466 412.53 964.466 412.211C964.466 411.571 963.948 411.053 963.308 411.053L953.465 411.053Z" fill="white"/>
<path d="M8.39428 502.167H10.9903V498.933H13.1683V496.667H10.9903V486.591H7.82228L1.20028 496.601V498.933H8.39428V502.167ZM8.39428 496.667H3.92828L8.35028 489.693H8.39428V496.667ZM15.266 500.627C15.266 501.573 16.102 502.299 17.026 502.299C17.994 502.299 18.786 501.529 18.786 500.583C18.786 499.637 17.972 498.911 17.026 498.911C16.058 498.911 15.266 499.681 15.266 500.627ZM31.9308 502.167H34.7028V495.259H41.9848V502.167H44.7568V486.591H41.9848V492.883H34.7028V486.591H31.9308V502.167ZM47.4465 496.843C47.4465 500.165 49.9985 502.475 53.1885 502.475C56.3785 502.475 58.9305 500.165 58.9305 496.843C58.9305 493.521 56.3785 491.299 53.1885 491.299C49.9985 491.299 47.4465 493.521 47.4465 496.843ZM50.1305 496.843C50.1305 495.193 51.0985 493.455 53.1885 493.455C55.2785 493.455 56.2465 495.193 56.2465 496.843C56.2465 498.493 55.2785 500.275 53.1885 500.275C51.0985 500.275 50.1305 498.493 50.1305 496.843ZM63.6683 502.167H66.3523L68.7283 494.775H68.7723L71.1703 502.167H73.8543L77.5063 491.607H74.7563L72.5123 499.175H72.4683L70.1803 491.607H67.3643L65.0983 499.175H65.0543L62.8543 491.607H59.9943L63.6683 502.167ZM84.7159 502.167H87.3559V485.535H84.7159V502.167ZM89.9426 496.843C89.9426 500.165 92.4946 502.475 95.6846 502.475C98.8746 502.475 101.427 500.165 101.427 496.843C101.427 493.521 98.8746 491.299 95.6846 491.299C92.4946 491.299 89.9426 493.521 89.9426 496.843ZM92.6266 496.843C92.6266 495.193 93.5946 493.455 95.6846 493.455C97.7746 493.455 98.7426 495.193 98.7426 496.843C98.7426 498.493 97.7746 500.275 95.6846 500.275C93.5946 500.275 92.6266 498.493 92.6266 496.843ZM103.986 502.167H106.626V496.359C106.626 494.951 107.418 493.499 109.09 493.499C110.784 493.499 111.07 495.061 111.07 496.315V502.167H113.71V495.567C113.71 493.411 112.566 491.299 109.816 491.299C108.254 491.299 107 492.245 106.538 493.301H106.494V491.607H103.986V502.167ZM125.019 491.607V493.191H124.975C124.205 491.915 122.819 491.299 121.345 491.299C118.155 491.299 116.175 493.785 116.175 496.843C116.175 499.835 118.221 502.343 121.389 502.343C122.841 502.343 124.073 501.793 124.843 500.759H124.887V501.529C124.887 503.619 124.095 505.159 121.543 505.159C120.223 505.159 118.859 504.631 117.847 503.663L116.329 505.709C117.693 506.831 119.849 507.447 121.565 507.447C125.679 507.447 127.527 505.027 127.527 501.221V491.607H125.019ZM121.895 493.455C123.809 493.455 125.019 494.995 125.019 496.821C125.019 498.581 123.831 500.165 121.873 500.165C119.981 500.165 118.859 498.493 118.859 496.821C118.859 494.951 119.981 493.455 121.895 493.455ZM138.369 502.167H141.053L143.429 494.775H143.473L145.871 502.167H148.555L152.207 491.607H149.457L147.213 499.175H147.169L144.881 491.607H142.065L139.799 499.175H139.755L137.555 491.607H134.695L138.369 502.167ZM153.917 502.167H156.557V491.607H153.917V502.167ZM153.543 488.021C153.543 488.857 154.247 489.605 155.215 489.605C156.183 489.605 156.931 488.923 156.931 488.021C156.931 487.119 156.183 486.437 155.215 486.437C154.247 486.437 153.543 487.185 153.543 488.021ZM159.804 502.167H162.444V485.535H159.804V502.167ZM165.691 502.167H168.331V485.535H165.691V502.167ZM183.589 502.167H186.053V495.743C186.053 493.631 185.129 491.299 181.345 491.299C179.739 491.299 178.067 491.871 176.879 492.971L178.243 494.577C178.925 493.895 180.003 493.367 181.125 493.367C182.445 493.367 183.545 494.005 183.545 495.303V495.567C180.245 495.567 176.285 496.007 176.285 499.153C176.285 501.617 178.551 502.431 180.245 502.431C181.741 502.431 182.995 501.749 183.523 500.825H183.589V502.167ZM183.545 497.723C183.545 499.395 182.577 500.429 180.773 500.429C179.871 500.429 178.925 500.121 178.925 499.109C178.925 497.547 181.279 497.349 182.951 497.349H183.545V497.723ZM194.673 491.607V502.915C194.673 504.125 194.497 505.159 193.243 505.159C193.045 505.159 192.759 505.137 192.517 505.071L192.297 507.315C192.561 507.381 193.045 507.447 193.485 507.447C196.631 507.447 197.313 505.335 197.313 502.805V491.607H194.673ZM194.299 488.021C194.299 488.857 195.003 489.605 195.971 489.605C196.939 489.605 197.687 488.923 197.687 488.021C197.687 487.119 196.939 486.437 195.971 486.437C195.003 486.437 194.299 487.185 194.299 488.021ZM199.9 496.843C199.9 500.165 202.452 502.475 205.642 502.475C208.832 502.475 211.384 500.165 211.384 496.843C211.384 493.521 208.832 491.299 205.642 491.299C202.452 491.299 199.9 493.521 199.9 496.843ZM202.584 496.843C202.584 495.193 203.552 493.455 205.642 493.455C207.732 493.455 208.7 495.193 208.7 496.843C208.7 498.493 207.732 500.275 205.642 500.275C203.552 500.275 202.584 498.493 202.584 496.843ZM213.987 485.535V502.167H216.495V500.583H216.539C217.265 501.793 218.695 502.475 220.169 502.475C223.381 502.475 225.361 499.923 225.361 496.843C225.361 493.719 223.249 491.299 220.235 491.299C218.299 491.299 217.243 492.267 216.693 492.949H216.627V485.535H213.987ZM222.677 496.843C222.677 498.493 221.687 500.275 219.641 500.275C217.705 500.275 216.539 498.537 216.539 496.887C216.539 495.237 217.705 493.455 219.641 493.455C221.687 493.455 222.677 495.193 222.677 496.843ZM239.964 502.167H242.428V495.743C242.428 493.631 241.504 491.299 237.72 491.299C236.114 491.299 234.442 491.871 233.254 492.971L234.618 494.577C235.3 493.895 236.378 493.367 237.5 493.367C238.82 493.367 239.92 494.005 239.92 495.303V495.567C236.62 495.567 232.66 496.007 232.66 499.153C232.66 501.617 234.926 502.431 236.62 502.431C238.116 502.431 239.37 501.749 239.898 500.825H239.964V502.167ZM239.92 497.723C239.92 499.395 238.952 500.429 237.148 500.429C236.246 500.429 235.3 500.121 235.3 499.109C235.3 497.547 237.654 497.349 239.326 497.349H239.92V497.723ZM256.24 485.535H253.6V492.949H253.534C252.984 492.267 251.928 491.299 249.992 491.299C246.978 491.299 244.866 493.719 244.866 496.843C244.866 499.923 246.846 502.475 250.058 502.475C251.532 502.475 252.962 501.793 253.688 500.583H253.732V502.167H256.24V485.535ZM247.55 496.843C247.55 495.193 248.54 493.455 250.586 493.455C252.522 493.455 253.688 495.237 253.688 496.887C253.688 498.537 252.522 500.275 250.586 500.275C248.54 500.275 247.55 498.493 247.55 496.843ZM262.131 502.167H264.947L269.149 491.607H266.355L263.561 499.307H263.517L260.745 491.607H257.863L262.131 502.167ZM272.751 495.831C272.861 494.357 274.115 493.279 275.677 493.279C277.393 493.279 278.163 494.467 278.163 495.831H272.751ZM280.803 497.019C280.803 493.213 278.647 491.299 275.699 491.299C272.509 491.299 270.111 493.543 270.111 496.953C270.111 500.385 272.531 502.475 275.787 502.475C277.789 502.475 279.285 501.771 280.319 500.363L278.559 498.955C277.965 499.791 277.085 500.319 275.765 500.319C274.225 500.319 272.861 499.219 272.751 497.723H280.781C280.803 497.481 280.803 497.261 280.803 497.019ZM283.359 502.167H285.999V496.513C285.999 495.743 286.461 493.675 288.837 493.675C289.079 493.675 289.299 493.697 289.651 493.785V491.365C289.475 491.321 289.211 491.299 289.013 491.299C287.627 491.299 286.505 492.157 285.933 493.367H285.889V491.607H283.359V502.167ZM291.445 493.719V498.647C291.445 500.671 292.083 502.387 294.877 502.387C295.471 502.387 296.175 502.277 296.637 502.101L296.549 500.033C296.241 500.187 295.779 500.253 295.427 500.253C294.261 500.253 294.041 499.571 294.041 498.625V493.719H296.681V491.607H294.041V488.549H291.445V491.607H289.597V493.719H291.445ZM298.636 502.167H301.276V491.607H298.636V502.167ZM298.262 488.021C298.262 488.857 298.966 489.605 299.934 489.605C300.902 489.605 301.65 488.923 301.65 488.021C301.65 487.119 300.902 486.437 299.934 486.437C298.966 486.437 298.262 487.185 298.262 488.021ZM311.981 492.905C311.123 491.827 309.539 491.299 308.021 491.299C305.931 491.299 303.819 492.311 303.819 494.665C303.819 496.645 305.381 497.283 306.943 497.657C308.549 498.031 309.363 498.295 309.363 499.175C309.363 500.121 308.439 500.429 307.669 500.429C306.525 500.429 305.535 499.857 304.963 499.109L303.225 500.737C304.237 501.859 305.931 502.475 307.559 502.475C309.869 502.475 311.959 501.529 311.959 498.955C311.959 496.887 310.111 496.183 308.549 495.809C307.075 495.457 306.261 495.237 306.261 494.423C306.261 493.587 307.119 493.279 307.955 493.279C308.923 493.279 309.803 493.807 310.265 494.423L311.981 492.905ZM316.278 495.831C316.388 494.357 317.642 493.279 319.204 493.279C320.92 493.279 321.69 494.467 321.69 495.831H316.278ZM324.33 497.019C324.33 493.213 322.174 491.299 319.226 491.299C316.036 491.299 313.638 493.543 313.638 496.953C313.638 500.385 316.058 502.475 319.314 502.475C321.316 502.475 322.812 501.771 323.846 500.363L322.086 498.955C321.492 499.791 320.612 500.319 319.292 500.319C317.752 500.319 316.388 499.219 316.278 497.723H324.308C324.33 497.481 324.33 497.261 324.33 497.019ZM339.493 491.299C337.909 491.299 336.721 492.025 336.017 493.301C335.423 492.113 334.345 491.299 332.717 491.299C331.023 491.299 329.901 492.267 329.439 493.301H329.395V491.607H326.887V502.167H329.527V496.359C329.527 494.951 330.253 493.499 331.837 493.499C333.179 493.499 333.795 494.489 333.795 495.787V502.167H336.435V496.403C336.435 495.039 337.117 493.499 338.767 493.499C340.461 493.499 340.747 495.061 340.747 496.315V502.167H343.387V495.567C343.387 493.411 342.243 491.299 339.493 491.299ZM348.483 495.831C348.593 494.357 349.847 493.279 351.409 493.279C353.125 493.279 353.895 494.467 353.895 495.831H348.483ZM356.535 497.019C356.535 493.213 354.379 491.299 351.431 491.299C348.241 491.299 345.843 493.543 345.843 496.953C345.843 500.385 348.263 502.475 351.519 502.475C353.521 502.475 355.017 501.771 356.051 500.363L354.291 498.955C353.697 499.791 352.817 500.319 351.497 500.319C349.957 500.319 348.593 499.219 348.483 497.723H356.513C356.535 497.481 356.535 497.261 356.535 497.019ZM359.092 502.167H361.732V496.359C361.732 494.951 362.524 493.499 364.196 493.499C365.89 493.499 366.176 495.061 366.176 496.315V502.167H368.816V495.567C368.816 493.411 367.672 491.299 364.922 491.299C363.36 491.299 362.106 492.245 361.644 493.301H361.6V491.607H359.092V502.167ZM372.227 493.719V498.647C372.227 500.671 372.865 502.387 375.659 502.387C376.253 502.387 376.957 502.277 377.419 502.101L377.331 500.033C377.023 500.187 376.561 500.253 376.209 500.253C375.043 500.253 374.823 499.571 374.823 498.625V493.719H377.463V491.607H374.823V488.549H372.227V491.607H370.379V493.719H372.227ZM384.917 485.535V502.167H387.425V500.583H387.469C388.195 501.793 389.625 502.475 391.099 502.475C394.311 502.475 396.291 499.923 396.291 496.843C396.291 493.719 394.179 491.299 391.165 491.299C389.229 491.299 388.173 492.267 387.623 492.949H387.557V485.535H384.917ZM393.607 496.843C393.607 498.493 392.617 500.275 390.571 500.275C388.635 500.275 387.469 498.537 387.469 496.887C387.469 495.237 388.635 493.455 390.571 493.455C392.617 493.455 393.607 495.193 393.607 496.843ZM400.862 495.831C400.972 494.357 402.226 493.279 403.788 493.279C405.504 493.279 406.274 494.467 406.274 495.831H400.862ZM408.914 497.019C408.914 493.213 406.758 491.299 403.81 491.299C400.62 491.299 398.222 493.543 398.222 496.953C398.222 500.385 400.642 502.475 403.898 502.475C405.9 502.475 407.396 501.771 408.43 500.363L406.67 498.955C406.076 499.791 405.196 500.319 403.876 500.319C402.336 500.319 400.972 499.219 400.862 497.723H408.892C408.914 497.481 408.914 497.261 408.914 497.019ZM416.355 496.843C416.355 500.165 418.907 502.475 422.097 502.475C425.287 502.475 427.839 500.165 427.839 496.843C427.839 493.521 425.287 491.299 422.097 491.299C418.907 491.299 416.355 493.521 416.355 496.843ZM419.039 496.843C419.039 495.193 420.007 493.455 422.097 493.455C424.187 493.455 425.155 495.193 425.155 496.843C425.155 498.493 424.187 500.275 422.097 500.275C420.007 500.275 419.039 498.493 419.039 496.843ZM430.398 491.607V507.447H433.038V500.759H433.082C433.764 501.815 435.106 502.475 436.58 502.475C439.792 502.475 441.772 499.923 441.772 496.843C441.772 493.719 439.66 491.299 436.646 491.299C434.71 491.299 433.522 492.245 432.994 493.081H432.928V491.607H430.398ZM439.088 496.843C439.088 498.493 438.098 500.275 436.052 500.275C434.116 500.275 432.95 498.537 432.95 496.887C432.95 495.237 434.116 493.455 436.052 493.455C438.098 493.455 439.088 495.193 439.088 496.843ZM446.344 495.831C446.454 494.357 447.708 493.279 449.27 493.279C450.986 493.279 451.756 494.467 451.756 495.831H446.344ZM454.396 497.019C454.396 493.213 452.24 491.299 449.292 491.299C446.102 491.299 443.704 493.543 443.704 496.953C443.704 500.385 446.124 502.475 449.38 502.475C451.382 502.475 452.878 501.771 453.912 500.363L452.152 498.955C451.558 499.791 450.678 500.319 449.358 500.319C447.818 500.319 446.454 499.219 446.344 497.723H454.374C454.396 497.481 454.396 497.261 454.396 497.019ZM456.953 502.167H459.593V496.359C459.593 494.951 460.385 493.499 462.057 493.499C463.751 493.499 464.037 495.061 464.037 496.315V502.167H466.677V495.567C466.677 493.411 465.533 491.299 462.783 491.299C461.221 491.299 459.967 492.245 459.505 493.301H459.461V491.607H456.953V502.167ZM475.588 493.719V498.647C475.588 500.671 476.226 502.387 479.02 502.387C479.614 502.387 480.318 502.277 480.78 502.101L480.692 500.033C480.384 500.187 479.922 500.253 479.57 500.253C478.404 500.253 478.184 499.571 478.184 498.625V493.719H480.824V491.607H478.184V488.549H475.588V491.607H473.74V493.719H475.588ZM482.118 496.843C482.118 500.165 484.67 502.475 487.86 502.475C491.05 502.475 493.602 500.165 493.602 496.843C493.602 493.521 491.05 491.299 487.86 491.299C484.67 491.299 482.118 493.521 482.118 496.843ZM484.802 496.843C484.802 495.193 485.77 493.455 487.86 493.455C489.95 493.455 490.918 495.193 490.918 496.843C490.918 498.493 489.95 500.275 487.86 500.275C485.77 500.275 484.802 498.493 484.802 496.843ZM501.662 502.167H504.302V496.513C504.302 495.743 504.764 493.675 507.14 493.675C507.382 493.675 507.602 493.697 507.954 493.785V491.365C507.778 491.321 507.514 491.299 507.316 491.299C505.93 491.299 504.808 492.157 504.236 493.367H504.192V491.607H501.662V502.167ZM511.313 495.831C511.423 494.357 512.677 493.279 514.239 493.279C515.955 493.279 516.725 494.467 516.725 495.831H511.313ZM519.365 497.019C519.365 493.213 517.209 491.299 514.261 491.299C511.071 491.299 508.673 493.543 508.673 496.953C508.673 500.385 511.093 502.475 514.349 502.475C516.351 502.475 517.847 501.771 518.881 500.363L517.121 498.955C516.527 499.791 515.647 500.319 514.327 500.319C512.787 500.319 511.423 499.219 511.313 497.723H519.343C519.365 497.481 519.365 497.261 519.365 497.019ZM530.942 492.949C530.106 491.915 528.5 491.299 526.96 491.299C523.858 491.299 521.306 493.455 521.306 496.887C521.306 500.407 523.902 502.475 527.026 502.475C528.588 502.475 530.04 501.947 530.92 501.001L529.27 499.329C528.764 499.945 527.862 500.275 527.048 500.275C525.046 500.275 524.056 498.537 524.056 496.887C524.056 495.237 525.024 493.499 526.96 493.499C527.818 493.499 528.72 493.939 529.138 494.533L530.942 492.949ZM534.688 495.831C534.798 494.357 536.052 493.279 537.614 493.279C539.33 493.279 540.1 494.467 540.1 495.831H534.688ZM542.74 497.019C542.74 493.213 540.584 491.299 537.636 491.299C534.446 491.299 532.048 493.543 532.048 496.953C532.048 500.385 534.468 502.475 537.724 502.475C539.726 502.475 541.222 501.771 542.256 500.363L540.496 498.955C539.902 499.791 539.022 500.319 537.702 500.319C536.162 500.319 534.798 499.219 534.688 497.723H542.718C542.74 497.481 542.74 497.261 542.74 497.019ZM545.341 502.167H547.981V491.607H545.341V502.167ZM544.967 488.021C544.967 488.857 545.671 489.605 546.639 489.605C547.607 489.605 548.355 488.923 548.355 488.021C548.355 487.119 547.607 486.437 546.639 486.437C545.671 486.437 544.967 487.185 544.967 488.021ZM553.868 502.167H556.684L560.886 491.607H558.092L555.298 499.307H555.254L552.482 491.607H549.6L553.868 502.167ZM564.487 495.831C564.597 494.357 565.851 493.279 567.413 493.279C569.129 493.279 569.899 494.467 569.899 495.831H564.487ZM572.539 497.019C572.539 493.213 570.383 491.299 567.435 491.299C564.245 491.299 561.847 493.543 561.847 496.953C561.847 500.385 564.267 502.475 567.523 502.475C569.525 502.475 571.021 501.771 572.055 500.363L570.295 498.955C569.701 499.791 568.821 500.319 567.501 500.319C565.961 500.319 564.597 499.219 564.487 497.723H572.517C572.539 497.481 572.539 497.261 572.539 497.019ZM587.152 502.167H589.616V495.743C589.616 493.631 588.692 491.299 584.908 491.299C583.302 491.299 581.63 491.871 580.442 492.971L581.806 494.577C582.488 493.895 583.566 493.367 584.688 493.367C586.008 493.367 587.108 494.005 587.108 495.303V495.567C583.808 495.567 579.848 496.007 579.848 499.153C579.848 501.617 582.114 502.431 583.808 502.431C585.304 502.431 586.558 501.749 587.086 500.825H587.152V502.167ZM587.108 497.723C587.108 499.395 586.14 500.429 584.336 500.429C583.434 500.429 582.488 500.121 582.488 499.109C582.488 497.547 584.842 497.349 586.514 497.349H587.108V497.723ZM592.691 491.607V507.447H595.331V500.759H595.375C596.057 501.815 597.399 502.475 598.873 502.475C602.085 502.475 604.065 499.923 604.065 496.843C604.065 493.719 601.953 491.299 598.939 491.299C597.003 491.299 595.815 492.245 595.287 493.081H595.221V491.607H592.691ZM601.381 496.843C601.381 498.493 600.391 500.275 598.345 500.275C596.409 500.275 595.243 498.537 595.243 496.887C595.243 495.237 596.409 493.455 598.345 493.455C600.391 493.455 601.381 495.193 601.381 496.843ZM606.613 491.607V507.447H609.253V500.759H609.297C609.979 501.815 611.321 502.475 612.795 502.475C616.007 502.475 617.987 499.923 617.987 496.843C617.987 493.719 615.875 491.299 612.861 491.299C610.925 491.299 609.737 492.245 609.209 493.081H609.143V491.607H606.613ZM615.303 496.843C615.303 498.493 614.313 500.275 612.267 500.275C610.331 500.275 609.165 498.537 609.165 496.887C609.165 495.237 610.331 493.455 612.267 493.455C614.313 493.455 615.303 495.193 615.303 496.843ZM620.579 502.167H623.219V485.535H620.579V502.167ZM626.466 502.167H629.106V491.607H626.466V502.167ZM626.092 488.021C626.092 488.857 626.796 489.605 627.764 489.605C628.732 489.605 629.48 488.923 629.48 488.021C629.48 487.119 628.732 486.437 627.764 486.437C626.796 486.437 626.092 487.185 626.092 488.021ZM641.329 492.949C640.493 491.915 638.887 491.299 637.347 491.299C634.245 491.299 631.693 493.455 631.693 496.887C631.693 500.407 634.289 502.475 637.413 502.475C638.975 502.475 640.427 501.947 641.307 501.001L639.657 499.329C639.151 499.945 638.249 500.275 637.435 500.275C635.433 500.275 634.443 498.537 634.443 496.887C634.443 495.237 635.411 493.499 637.347 493.499C638.205 493.499 639.107 493.939 639.525 494.533L641.329 492.949ZM649.607 502.167H652.071V495.743C652.071 493.631 651.147 491.299 647.363 491.299C645.757 491.299 644.085 491.871 642.897 492.971L644.261 494.577C644.943 493.895 646.021 493.367 647.143 493.367C648.463 493.367 649.563 494.005 649.563 495.303V495.567C646.263 495.567 642.303 496.007 642.303 499.153C642.303 501.617 644.569 502.431 646.263 502.431C647.759 502.431 649.013 501.749 649.541 500.825H649.607V502.167ZM649.563 497.723C649.563 499.395 648.595 500.429 646.791 500.429C645.889 500.429 644.943 500.121 644.943 499.109C644.943 497.547 647.297 497.349 648.969 497.349H649.563V497.723ZM655.262 493.719V498.647C655.262 500.671 655.9 502.387 658.694 502.387C659.288 502.387 659.992 502.277 660.454 502.101L660.366 500.033C660.058 500.187 659.596 500.253 659.244 500.253C658.078 500.253 657.858 499.571 657.858 498.625V493.719H660.498V491.607H657.858V488.549H655.262V491.607H653.414V493.719H655.262ZM662.452 502.167H665.092V491.607H662.452V502.167ZM662.078 488.021C662.078 488.857 662.782 489.605 663.75 489.605C664.718 489.605 665.466 488.923 665.466 488.021C665.466 487.119 664.718 486.437 663.75 486.437C662.782 486.437 662.078 487.185 662.078 488.021ZM667.679 496.843C667.679 500.165 670.231 502.475 673.421 502.475C676.611 502.475 679.163 500.165 679.163 496.843C679.163 493.521 676.611 491.299 673.421 491.299C670.231 491.299 667.679 493.521 667.679 496.843ZM670.363 496.843C670.363 495.193 671.331 493.455 673.421 493.455C675.511 493.455 676.479 495.193 676.479 496.843C676.479 498.493 675.511 500.275 673.421 500.275C671.331 500.275 670.363 498.493 670.363 496.843ZM681.723 502.167H684.363V496.359C684.363 494.951 685.155 493.499 686.827 493.499C688.521 493.499 688.807 495.061 688.807 496.315V502.167H691.447V495.567C691.447 493.411 690.303 491.299 687.553 491.299C685.991 491.299 684.737 492.245 684.275 493.301H684.231V491.607H681.723V502.167ZM700.159 497.569V496.997C700.159 495.721 700.467 495.347 701.611 494.335C702.975 493.147 703.811 492.311 703.811 490.441C703.811 487.669 701.655 486.195 699.125 486.195C696.419 486.195 694.329 487.845 693.999 490.639L696.705 490.881C696.749 489.693 697.585 488.593 698.949 488.593C700.247 488.593 701.017 489.473 701.017 490.617C701.017 491.497 700.555 492.069 700.005 492.575L699.015 493.521C697.915 494.577 697.563 495.325 697.563 496.733V497.569H700.159ZM697.123 500.627C697.123 501.573 697.959 502.299 698.883 502.299C699.851 502.299 700.643 501.529 700.643 500.583C700.643 499.637 699.829 498.911 698.883 498.911C697.915 498.911 697.123 499.681 697.123 500.627Z" fill="white"/>
<path d="M953.465 493.509L953.465 483.666C953.465 483.026 952.947 482.508 952.307 482.508C951.667 482.508 951.149 483.026 951.149 483.666L951.149 493.509L941.306 493.509C940.666 493.509 940.148 494.027 940.148 494.667C940.148 495.307 940.666 495.825 941.306 495.825L951.149 495.825L951.149 505.668C951.149 506.308 951.667 506.826 952.307 506.826C952.626 506.826 952.916 506.696 953.126 506.487C953.336 506.277 953.465 505.987 953.465 505.668L953.465 495.825L963.308 495.825C963.627 495.825 963.917 495.695 964.127 495.486C964.336 495.276 964.466 494.986 964.466 494.667C964.466 494.027 963.948 493.509 963.308 493.509L953.465 493.509Z" fill="white"/>
<path d="M11.8483 569.048H2.98228L2.71828 577.562C3.66428 577.078 5.16028 576.704 6.34828 576.704C8.04228 576.704 9.82428 577.408 9.82428 579.806C9.82428 581.698 8.48228 582.776 6.92028 582.776C5.53428 582.776 4.43428 581.962 3.99428 580.73L1.59628 581.61C2.41028 583.7 4.25828 585.02 6.85428 585.02C9.95628 585.02 12.5303 582.974 12.5303 579.52C12.5303 576.374 10.2203 574.592 7.16228 574.592C6.61228 574.592 5.82028 574.658 5.33628 574.79L5.49028 571.424H11.8483V569.048ZM15.266 583.084C15.266 584.03 16.102 584.756 17.026 584.756C17.994 584.756 18.786 583.986 18.786 583.04C18.786 582.094 17.972 581.368 17.026 581.368C16.058 581.368 15.266 582.138 15.266 583.084ZM31.9308 584.624H34.7028V577.716H41.9848V584.624H44.7568V569.048H41.9848V575.34H34.7028V569.048H31.9308V584.624ZM47.4465 579.3C47.4465 582.622 49.9985 584.932 53.1885 584.932C56.3785 584.932 58.9305 582.622 58.9305 579.3C58.9305 575.978 56.3785 573.756 53.1885 573.756C49.9985 573.756 47.4465 575.978 47.4465 579.3ZM50.1305 579.3C50.1305 577.65 51.0985 575.912 53.1885 575.912C55.2785 575.912 56.2465 577.65 56.2465 579.3C56.2465 580.95 55.2785 582.732 53.1885 582.732C51.0985 582.732 50.1305 580.95 50.1305 579.3ZM63.6683 584.624H66.3523L68.7283 577.232H68.7723L71.1703 584.624H73.8543L77.5063 574.064H74.7563L72.5123 581.632H72.4683L70.1803 574.064H67.3643L65.0983 581.632H65.0543L62.8543 574.064H59.9943L63.6683 584.624ZM84.7159 584.624H87.3559V567.992H84.7159V584.624ZM89.9426 579.3C89.9426 582.622 92.4946 584.932 95.6846 584.932C98.8746 584.932 101.427 582.622 101.427 579.3C101.427 575.978 98.8746 573.756 95.6846 573.756C92.4946 573.756 89.9426 575.978 89.9426 579.3ZM92.6266 579.3C92.6266 577.65 93.5946 575.912 95.6846 575.912C97.7746 575.912 98.7426 577.65 98.7426 579.3C98.7426 580.95 97.7746 582.732 95.6846 582.732C93.5946 582.732 92.6266 580.95 92.6266 579.3ZM103.986 584.624H106.626V578.816C106.626 577.408 107.418 575.956 109.09 575.956C110.784 575.956 111.07 577.518 111.07 578.772V584.624H113.71V578.024C113.71 575.868 112.566 573.756 109.816 573.756C108.254 573.756 107 574.702 106.538 575.758H106.494V574.064H103.986V584.624ZM125.019 574.064V575.648H124.975C124.205 574.372 122.819 573.756 121.345 573.756C118.155 573.756 116.175 576.242 116.175 579.3C116.175 582.292 118.221 584.8 121.389 584.8C122.841 584.8 124.073 584.25 124.843 583.216H124.887V583.986C124.887 586.076 124.095 587.616 121.543 587.616C120.223 587.616 118.859 587.088 117.847 586.12L116.329 588.166C117.693 589.288 119.849 589.904 121.565 589.904C125.679 589.904 127.527 587.484 127.527 583.678V574.064H125.019ZM121.895 575.912C123.809 575.912 125.019 577.452 125.019 579.278C125.019 581.038 123.831 582.622 121.873 582.622C119.981 582.622 118.859 580.95 118.859 579.278C118.859 577.408 119.981 575.912 121.895 575.912ZM146.927 567.992H144.287V575.406H144.221C143.671 574.724 142.615 573.756 140.679 573.756C137.665 573.756 135.553 576.176 135.553 579.3C135.553 582.38 137.533 584.932 140.745 584.932C142.219 584.932 143.649 584.25 144.375 583.04H144.419V584.624H146.927V567.992ZM138.237 579.3C138.237 577.65 139.227 575.912 141.273 575.912C143.209 575.912 144.375 577.694 144.375 579.344C144.375 580.994 143.209 582.732 141.273 582.732C139.227 582.732 138.237 580.95 138.237 579.3ZM149.519 579.3C149.519 582.622 152.071 584.932 155.261 584.932C158.451 584.932 161.003 582.622 161.003 579.3C161.003 575.978 158.451 573.756 155.261 573.756C152.071 573.756 149.519 575.978 149.519 579.3ZM152.203 579.3C152.203 577.65 153.171 575.912 155.261 575.912C157.351 575.912 158.319 577.65 158.319 579.3C158.319 580.95 157.351 582.732 155.261 582.732C153.171 582.732 152.203 580.95 152.203 579.3ZM165.587 578.288C165.697 576.814 166.951 575.736 168.513 575.736C170.229 575.736 170.999 576.924 170.999 578.288H165.587ZM173.639 579.476C173.639 575.67 171.483 573.756 168.535 573.756C165.345 573.756 162.947 576 162.947 579.41C162.947 582.842 165.367 584.932 168.623 584.932C170.625 584.932 172.121 584.228 173.155 582.82L171.395 581.412C170.801 582.248 169.921 582.776 168.601 582.776C167.061 582.776 165.697 581.676 165.587 580.18H173.617C173.639 579.938 173.639 579.718 173.639 579.476ZM183.697 575.362C182.839 574.284 181.255 573.756 179.737 573.756C177.647 573.756 175.535 574.768 175.535 577.122C175.535 579.102 177.097 579.74 178.659 580.114C180.265 580.488 181.079 580.752 181.079 581.632C181.079 582.578 180.155 582.886 179.385 582.886C178.241 582.886 177.251 582.314 176.679 581.566L174.941 583.194C175.953 584.316 177.647 584.932 179.275 584.932C181.585 584.932 183.675 583.986 183.675 581.412C183.675 579.344 181.827 578.64 180.265 578.266C178.791 577.914 177.977 577.694 177.977 576.88C177.977 576.044 178.835 575.736 179.671 575.736C180.639 575.736 181.519 576.264 181.981 576.88L183.697 575.362ZM191.515 584.624H194.155V574.064H191.515V584.624ZM191.141 570.478C191.141 571.314 191.845 572.062 192.813 572.062C193.781 572.062 194.529 571.38 194.529 570.478C194.529 569.576 193.781 568.894 192.813 568.894C191.845 568.894 191.141 569.642 191.141 570.478ZM197.687 576.176V581.104C197.687 583.128 198.325 584.844 201.119 584.844C201.713 584.844 202.417 584.734 202.879 584.558L202.791 582.49C202.483 582.644 202.021 582.71 201.669 582.71C200.503 582.71 200.283 582.028 200.283 581.082V576.176H202.923V574.064H200.283V571.006H197.687V574.064H195.839V576.176H197.687ZM210.664 576.176V581.104C210.664 583.128 211.302 584.844 214.096 584.844C214.69 584.844 215.394 584.734 215.856 584.558L215.768 582.49C215.46 582.644 214.998 582.71 214.646 582.71C213.48 582.71 213.26 582.028 213.26 581.082V576.176H215.9V574.064H213.26V571.006H210.664V574.064H208.816V576.176H210.664ZM224.367 584.624H226.831V578.2C226.831 576.088 225.907 573.756 222.123 573.756C220.517 573.756 218.845 574.328 217.657 575.428L219.021 577.034C219.703 576.352 220.781 575.824 221.903 575.824C223.223 575.824 224.323 576.462 224.323 577.76V578.024C221.023 578.024 217.063 578.464 217.063 581.61C217.063 584.074 219.329 584.888 221.023 584.888C222.519 584.888 223.773 584.206 224.301 583.282H224.367V584.624ZM224.323 580.18C224.323 581.852 223.355 582.886 221.551 582.886C220.649 582.886 219.703 582.578 219.703 581.566C219.703 580.004 222.057 579.806 223.729 579.806H224.323V580.18ZM229.95 584.624H232.59V579.212H232.656L236.836 584.624H240.334L235.472 578.838L240.048 574.064H236.66L232.656 578.508H232.59V567.992H229.95V584.624ZM243.489 578.288C243.599 576.814 244.853 575.736 246.415 575.736C248.131 575.736 248.901 576.924 248.901 578.288H243.489ZM251.541 579.476C251.541 575.67 249.385 573.756 246.437 573.756C243.247 573.756 240.849 576 240.849 579.41C240.849 582.842 243.269 584.932 246.525 584.932C248.527 584.932 250.023 584.228 251.057 582.82L249.297 581.412C248.703 582.248 247.823 582.776 246.503 582.776C244.963 582.776 243.599 581.676 243.489 580.18H251.519C251.541 579.938 251.541 579.718 251.541 579.476ZM260.016 584.624H262.656V576.176H265.098V574.064H262.656V572.348C262.656 571.292 262.92 569.972 264.438 569.972C264.812 569.972 265.164 570.038 265.45 570.126L265.626 567.882C265.23 567.772 264.856 567.728 264.284 567.728C261.006 567.728 260.016 569.972 260.016 572.502V574.064H258.014V576.176H260.016V584.624ZM266.114 579.3C266.114 582.622 268.666 584.932 271.856 584.932C275.046 584.932 277.598 582.622 277.598 579.3C277.598 575.978 275.046 573.756 271.856 573.756C268.666 573.756 266.114 575.978 266.114 579.3ZM268.798 579.3C268.798 577.65 269.766 575.912 271.856 575.912C273.946 575.912 274.914 577.65 274.914 579.3C274.914 580.95 273.946 582.732 271.856 582.732C269.766 582.732 268.798 580.95 268.798 579.3ZM280.158 584.624H282.798V578.97C282.798 578.2 283.26 576.132 285.636 576.132C285.878 576.132 286.098 576.154 286.45 576.242V573.822C286.274 573.778 286.01 573.756 285.812 573.756C284.426 573.756 283.304 574.614 282.732 575.824H282.688V574.064H280.158V584.624ZM294.002 576.176V581.104C294.002 583.128 294.64 584.844 297.434 584.844C298.028 584.844 298.732 584.734 299.194 584.558L299.106 582.49C298.798 582.644 298.336 582.71 297.984 582.71C296.818 582.71 296.598 582.028 296.598 581.082V576.176H299.238V574.064H296.598V571.006H294.002V574.064H292.154V576.176H294.002ZM307.022 573.756C305.46 573.756 304.294 574.658 303.876 575.538H303.832V567.992H301.192V584.624H303.832V578.86C303.832 577.452 304.646 576.022 306.318 576.022C308.012 576.022 308.276 577.562 308.276 578.816V584.624H310.916V578.024C310.916 575.868 309.772 573.756 307.022 573.756ZM316.02 578.288C316.13 576.814 317.384 575.736 318.946 575.736C320.662 575.736 321.432 576.924 321.432 578.288H316.02ZM324.072 579.476C324.072 575.67 321.916 573.756 318.968 573.756C315.778 573.756 313.38 576 313.38 579.41C313.38 582.842 315.8 584.932 319.056 584.932C321.058 584.932 322.554 584.228 323.588 582.82L321.828 581.412C321.234 582.248 320.354 582.776 319.034 582.776C317.494 582.776 316.13 581.676 316.02 580.18H324.05C324.072 579.938 324.072 579.718 324.072 579.476ZM332.173 574.064V585.372C332.173 586.582 331.997 587.616 330.743 587.616C330.545 587.616 330.259 587.594 330.017 587.528L329.797 589.772C330.061 589.838 330.545 589.904 330.985 589.904C334.131 589.904 334.813 587.792 334.813 585.262V574.064H332.173ZM331.799 570.478C331.799 571.314 332.503 572.062 333.471 572.062C334.439 572.062 335.187 571.38 335.187 570.478C335.187 569.576 334.439 568.894 333.471 568.894C332.503 568.894 331.799 569.642 331.799 570.478ZM337.4 579.3C337.4 582.622 339.952 584.932 343.142 584.932C346.332 584.932 348.884 582.622 348.884 579.3C348.884 575.978 346.332 573.756 343.142 573.756C339.952 573.756 337.4 575.978 337.4 579.3ZM340.084 579.3C340.084 577.65 341.052 575.912 343.142 575.912C345.232 575.912 346.2 577.65 346.2 579.3C346.2 580.95 345.232 582.732 343.142 582.732C341.052 582.732 340.084 580.95 340.084 579.3ZM351.487 567.992V584.624H353.995V583.04H354.039C354.765 584.25 356.195 584.932 357.669 584.932C360.881 584.932 362.861 582.38 362.861 579.3C362.861 576.176 360.749 573.756 357.735 573.756C355.799 573.756 354.743 574.724 354.193 575.406H354.127V567.992H351.487ZM360.177 579.3C360.177 580.95 359.187 582.732 357.141 582.732C355.205 582.732 354.039 580.994 354.039 579.344C354.039 577.694 355.205 575.912 357.141 575.912C359.187 575.912 360.177 577.65 360.177 579.3ZM371.238 576.176V581.104C371.238 583.128 371.876 584.844 374.67 584.844C375.264 584.844 375.968 584.734 376.43 584.558L376.342 582.49C376.034 582.644 375.572 582.71 375.22 582.71C374.054 582.71 373.834 582.028 373.834 581.082V576.176H376.474V574.064H373.834V571.006H371.238V574.064H369.39V576.176H371.238ZM377.769 579.3C377.769 582.622 380.321 584.932 383.511 584.932C386.701 584.932 389.253 582.622 389.253 579.3C389.253 575.978 386.701 573.756 383.511 573.756C380.321 573.756 377.769 575.978 377.769 579.3ZM380.453 579.3C380.453 577.65 381.421 575.912 383.511 575.912C385.601 575.912 386.569 577.65 386.569 579.3C386.569 580.95 385.601 582.732 383.511 582.732C381.421 582.732 380.453 580.95 380.453 579.3ZM403.869 584.624H406.333V578.2C406.333 576.088 405.409 573.756 401.625 573.756C400.019 573.756 398.347 574.328 397.159 575.428L398.523 577.034C399.205 576.352 400.283 575.824 401.405 575.824C402.725 575.824 403.825 576.462 403.825 577.76V578.024C400.525 578.024 396.565 578.464 396.565 581.61C396.565 584.074 398.831 584.888 400.525 584.888C402.021 584.888 403.275 584.206 403.803 583.282H403.869V584.624ZM403.825 580.18C403.825 581.852 402.857 582.886 401.053 582.886C400.151 582.886 399.205 582.578 399.205 581.566C399.205 580.004 401.559 579.806 403.231 579.806H403.825V580.18ZM409.408 574.064V589.904H412.048V583.216H412.092C412.774 584.272 414.116 584.932 415.59 584.932C418.802 584.932 420.782 582.38 420.782 579.3C420.782 576.176 418.67 573.756 415.656 573.756C413.72 573.756 412.532 574.702 412.004 575.538H411.938V574.064H409.408ZM418.098 579.3C418.098 580.95 417.108 582.732 415.062 582.732C413.126 582.732 411.96 580.994 411.96 579.344C411.96 577.694 413.126 575.912 415.062 575.912C417.108 575.912 418.098 577.65 418.098 579.3ZM423.33 574.064V589.904H425.97V583.216H426.014C426.696 584.272 428.038 584.932 429.512 584.932C432.724 584.932 434.704 582.38 434.704 579.3C434.704 576.176 432.592 573.756 429.578 573.756C427.642 573.756 426.454 574.702 425.926 575.538H425.86V574.064H423.33ZM432.02 579.3C432.02 580.95 431.03 582.732 428.984 582.732C427.048 582.732 425.882 580.994 425.882 579.344C425.882 577.694 427.048 575.912 428.984 575.912C431.03 575.912 432.02 577.65 432.02 579.3ZM439.276 578.288C439.386 576.814 440.64 575.736 442.202 575.736C443.918 575.736 444.688 576.924 444.688 578.288H439.276ZM447.328 579.476C447.328 575.67 445.172 573.756 442.224 573.756C439.034 573.756 436.636 576 436.636 579.41C436.636 582.842 439.056 584.932 442.312 584.932C444.314 584.932 445.81 584.228 446.844 582.82L445.084 581.412C444.49 582.248 443.61 582.776 442.29 582.776C440.75 582.776 439.386 581.676 439.276 580.18H447.306C447.328 579.938 447.328 579.718 447.328 579.476ZM456.312 584.624H458.776V578.2C458.776 576.088 457.852 573.756 454.068 573.756C452.462 573.756 450.79 574.328 449.602 575.428L450.966 577.034C451.648 576.352 452.726 575.824 453.848 575.824C455.168 575.824 456.268 576.462 456.268 577.76V578.024C452.968 578.024 449.008 578.464 449.008 581.61C449.008 584.074 451.274 584.888 452.968 584.888C454.464 584.888 455.718 584.206 456.246 583.282H456.312V584.624ZM456.268 580.18C456.268 581.852 455.3 582.886 453.496 582.886C452.594 582.886 451.648 582.578 451.648 581.566C451.648 580.004 454.002 579.806 455.674 579.806H456.268V580.18ZM461.852 584.624H464.492V578.97C464.492 578.2 464.954 576.132 467.33 576.132C467.572 576.132 467.792 576.154 468.144 576.242V573.822C467.968 573.778 467.704 573.756 467.506 573.756C466.12 573.756 464.998 574.614 464.426 575.824H464.382V574.064H461.852V584.624ZM474.749 579.3C474.749 582.622 477.301 584.932 480.491 584.932C483.681 584.932 486.233 582.622 486.233 579.3C486.233 575.978 483.681 573.756 480.491 573.756C477.301 573.756 474.749 575.978 474.749 579.3ZM477.433 579.3C477.433 577.65 478.401 575.912 480.491 575.912C482.581 575.912 483.549 577.65 483.549 579.3C483.549 580.95 482.581 582.732 480.491 582.732C478.401 582.732 477.433 580.95 477.433 579.3ZM488.793 584.624H491.433V578.816C491.433 577.408 492.225 575.956 493.897 575.956C495.591 575.956 495.877 577.518 495.877 578.772V584.624H498.517V578.024C498.517 575.868 497.373 573.756 494.623 573.756C493.061 573.756 491.807 574.702 491.345 575.758H491.301V574.064H488.793V584.624ZM507.428 576.176V581.104C507.428 583.128 508.066 584.844 510.86 584.844C511.454 584.844 512.158 584.734 512.62 584.558L512.532 582.49C512.224 582.644 511.762 582.71 511.41 582.71C510.244 582.71 510.024 582.028 510.024 581.082V576.176H512.664V574.064H510.024V571.006H507.428V574.064H505.58V576.176H507.428ZM520.448 573.756C518.886 573.756 517.72 574.658 517.302 575.538H517.258V567.992H514.618V584.624H517.258V578.86C517.258 577.452 518.072 576.022 519.744 576.022C521.438 576.022 521.702 577.562 521.702 578.816V584.624H524.342V578.024C524.342 575.868 523.198 573.756 520.448 573.756ZM529.446 578.288C529.556 576.814 530.81 575.736 532.372 575.736C534.088 575.736 534.858 576.924 534.858 578.288H529.446ZM537.498 579.476C537.498 575.67 535.342 573.756 532.394 573.756C529.204 573.756 526.806 576 526.806 579.41C526.806 582.842 529.226 584.932 532.482 584.932C534.484 584.932 535.98 584.228 537.014 582.82L535.254 581.412C534.66 582.248 533.78 582.776 532.46 582.776C530.92 582.776 529.556 581.676 529.446 580.18H537.476C537.498 579.938 537.498 579.718 537.498 579.476ZM545.555 574.064V589.904H548.195V583.216H548.239C548.921 584.272 550.263 584.932 551.737 584.932C554.949 584.932 556.929 582.38 556.929 579.3C556.929 576.176 554.817 573.756 551.803 573.756C549.867 573.756 548.679 574.702 548.151 575.538H548.085V574.064H545.555ZM554.245 579.3C554.245 580.95 553.255 582.732 551.209 582.732C549.273 582.732 548.107 580.994 548.107 579.344C548.107 577.694 549.273 575.912 551.209 575.912C553.255 575.912 554.245 577.65 554.245 579.3ZM558.861 579.3C558.861 582.622 561.413 584.932 564.603 584.932C567.793 584.932 570.345 582.622 570.345 579.3C570.345 575.978 567.793 573.756 564.603 573.756C561.413 573.756 558.861 575.978 558.861 579.3ZM561.545 579.3C561.545 577.65 562.513 575.912 564.603 575.912C566.693 575.912 567.661 577.65 567.661 579.3C567.661 580.95 566.693 582.732 564.603 582.732C562.513 582.732 561.545 580.95 561.545 579.3ZM572.904 584.624H575.544V578.97C575.544 578.2 576.006 576.132 578.382 576.132C578.624 576.132 578.844 576.154 579.196 576.242V573.822C579.02 573.778 578.756 573.756 578.558 573.756C577.172 573.756 576.05 574.614 575.478 575.824H575.434V574.064H572.904V584.624ZM580.99 576.176V581.104C580.99 583.128 581.628 584.844 584.422 584.844C585.016 584.844 585.72 584.734 586.182 584.558L586.094 582.49C585.786 582.644 585.324 582.71 584.972 582.71C583.806 582.71 583.586 582.028 583.586 581.082V576.176H586.226V574.064H583.586V571.006H580.99V574.064H579.142V576.176H580.99ZM594.693 584.624H597.157V578.2C597.157 576.088 596.233 573.756 592.449 573.756C590.843 573.756 589.171 574.328 587.983 575.428L589.347 577.034C590.029 576.352 591.107 575.824 592.229 575.824C593.549 575.824 594.649 576.462 594.649 577.76V578.024C591.349 578.024 587.389 578.464 587.389 581.61C587.389 584.074 589.655 584.888 591.349 584.888C592.845 584.888 594.099 584.206 594.627 583.282H594.693V584.624ZM594.649 580.18C594.649 581.852 593.681 582.886 591.877 582.886C590.975 582.886 590.029 582.578 590.029 581.566C590.029 580.004 592.383 579.806 594.055 579.806H594.649V580.18ZM600.276 584.624H602.916V567.992H600.276V584.624ZM611.751 580.026V579.454C611.751 578.178 612.059 577.804 613.203 576.792C614.567 575.604 615.403 574.768 615.403 572.898C615.403 570.126 613.247 568.652 610.717 568.652C608.011 568.652 605.921 570.302 605.591 573.096L608.297 573.338C608.341 572.15 609.177 571.05 610.541 571.05C611.839 571.05 612.609 571.93 612.609 573.074C612.609 573.954 612.147 574.526 611.597 575.032L610.607 575.978C609.507 577.034 609.155 577.782 609.155 579.19V580.026H611.751ZM608.715 583.084C608.715 584.03 609.551 584.756 610.475 584.756C611.443 584.756 612.235 583.986 612.235 583.04C612.235 582.094 611.421 581.368 610.475 581.368C609.507 581.368 608.715 582.138 608.715 583.084Z" fill="white"/>
<path d="M953.465 575.966L953.465 566.123C953.465 565.483 952.947 564.965 952.307 564.965C951.667 564.965 951.149 565.483 951.149 566.123L951.149 575.966L941.306 575.966C940.666 575.966 940.148 576.484 940.148 577.124C940.148 577.764 940.666 578.282 941.306 578.282L951.149 578.282L951.149 588.125C951.149 588.765 951.667 589.283 952.307 589.283C952.626 589.283 952.916 589.153 953.126 588.944C953.336 588.734 953.465 588.444 953.465 588.125L953.465 578.282L963.308 578.282C963.627 578.282 963.917 578.153 964.127 577.943C964.336 577.733 964.466 577.443 964.466 577.124C964.466 576.484 963.948 575.966 963.308 575.966L953.465 575.966Z" fill="white"/>
<line x1="0.738281" y1="287.439" x2="979.263" y2="287.439" stroke="#E2E2E2"/>
<line x1="0.738281" y1="369.791" x2="979.263" y2="369.791" stroke="#E2E2E2"/>
<line x1="0.738281" y1="452.143" x2="979.263" y2="452.143" stroke="#E2E2E2"/>
<line x1="0.738281" y1="534.493" x2="979.263" y2="534.493" stroke="#E2E2E2"/>
<line x1="0.738281" y1="616.845" x2="979.263" y2="616.845" stroke="#E2E2E2"/>
<line x1="0.738281" y1="143.024" x2="979.263" y2="143.024" stroke="#E2E2E2"/>
<path d="M457.902 48.4029V41.1029H434.602V76.5029H443.052V62.7529H456.752V55.7029H443.052V48.4029H457.902ZM494.225 76.5029L479.525 41.1029H471.225L456.375 76.5029H465.675L468.275 69.5529H481.975L484.725 76.5029H494.225ZM479.625 62.7029H470.725L475.225 50.5529L479.625 62.7029ZM534.872 76.5029V69.7029L527.422 69.8529V69.7029C529.972 67.7529 532.672 63.6029 532.672 58.2029C532.672 47.5529 524.622 40.1529 513.622 40.1529C502.672 40.1529 494.422 47.6029 494.422 58.3529C494.422 69.9529 502.072 76.5029 513.322 76.5029H534.872ZM523.622 58.4529C523.622 64.8029 519.372 69.2029 513.572 69.2029C507.722 69.2029 503.622 64.8029 503.622 58.4529C503.622 52.3029 507.922 47.9029 513.622 47.9029C519.522 47.9029 523.622 52.3029 523.622 58.4529Z" fill="#FFC700"/>
</svg>
