<svg width="63" height="63" viewBox="0 0 63 63" fill="none" xmlns="http://www.w3.org/2000/svg">
<circle cx="31.667" cy="31.5146" r="31.0967" fill="#141414"/>
<path fill-rule="evenodd" clip-rule="evenodd" d="M23.2383 18.7521C23.3682 18.5578 23.5429 18.3976 23.7477 18.2851C23.9864 18.1479 24.2573 18.0765 24.5326 18.0782C24.808 18.0798 25.0779 18.1544 25.315 18.2945L41.7096 27.9345C41.7096 27.9345 38.8805 32.6718 37.6345 34.7525C37.5702 34.8599 37.4812 34.9505 37.3749 35.0166C37.2685 35.0827 37.148 35.1225 37.0232 35.1326C36.8973 35.1426 36.7708 35.1217 36.6548 35.0719C36.5387 35.0221 36.4365 34.9447 36.3571 34.8465C33.5358 31.3858 23.2383 18.7521 23.2383 18.7521Z" fill="#00FF64"/>
<path fill-rule="evenodd" clip-rule="evenodd" d="M41.712 27.9336L47.3074 31.2266C47.5435 31.3644 47.7395 31.5616 47.8756 31.7986C48.0118 32.0357 48.0834 32.3043 48.0834 32.5777C48.0834 32.851 48.0118 33.1196 47.8756 33.3567C47.7395 33.5938 47.5435 33.791 47.3074 33.9287L41.712 37.2218H38.9848C38.4473 37.2207 37.9223 37.0605 37.4758 36.7614C37.0293 36.4623 36.6814 36.0376 36.476 35.541C36.2707 35.0444 36.217 34.498 36.3217 33.9709C36.4265 33.4438 36.685 32.9596 37.0647 32.5792L41.712 27.9336Z" fill="#FFC800"/>
<path fill-rule="evenodd" clip-rule="evenodd" d="M41.7096 37.221L25.315 46.861C25.0779 47.0011 24.808 47.0757 24.5326 47.0773C24.2573 47.079 23.9864 47.0076 23.7477 46.8704C23.5429 46.7579 23.3682 46.5977 23.2383 46.4034C23.2383 46.4034 30.9105 36.7665 34.1157 32.7423C34.2893 32.5243 34.5069 32.3454 34.7544 32.2174C35.0018 32.0894 35.2735 32.015 35.5517 31.9993C35.8299 31.9835 36.1082 32.0267 36.3686 32.126C36.6289 32.2252 36.8653 32.3784 37.0624 32.5754V32.5769L41.7096 37.221Z" fill="#FF003C"/>
<path fill-rule="evenodd" clip-rule="evenodd" d="M37.0632 32.5784L23.2392 46.4048C23.0557 46.143 22.9572 45.8311 22.957 45.5114V19.6453C22.9572 19.3257 23.0557 19.0138 23.2392 18.752L37.0632 32.5784Z" fill="#00D2FF"/>
</svg>
