<svg width="101" height="100" viewBox="0 0 101 100" fill="none" xmlns="http://www.w3.org/2000/svg">
<circle cx="7.73928" cy="7.79983" r="7.22366" fill="#DCE4FF"/>
<path d="M56.2134 98.9841L83.0024 88.3841C93.5685 79.7156 100.311 66.557 100.311 51.8233C100.311 25.7178 79.1475 4.55469 53.042 4.55469C26.9365 4.55469 5.77344 25.7178 5.77344 51.8233C5.77344 77.9295 26.9365 99.0919 53.042 99.0919C54.1084 99.0919 55.165 99.0534 56.2134 98.9841Z" fill="#DCE4FF"/>
<path d="M80.7729 61.8456C81.1498 57.2838 80.4549 52.713 78.4351 48.6048C73.2177 37.9913 74.4144 37.221 74.2524 26.6874C74.2524 24.5349 72.5077 22.791 70.3561 22.791C68.2037 22.791 66.4597 24.5349 66.4597 26.6874C66.4597 28.0771 66.4597 66.0133 66.4597 65.8648C66.4597 66.4723 66.3949 67.0654 66.2751 67.6374V73.246C66.2751 77.9721 62.43 81.818 57.7039 81.818C54.565 81.818 43.7404 81.818 36.375 81.818C39.6511 86.3745 44.1338 89.943 49.3362 92.1037C49.3686 92.1165 49.401 92.1301 49.4334 92.1436C52.5633 93.4663 54.9531 95.9601 56.2117 98.9837C66.3474 98.3122 75.6105 94.4483 83.0007 88.3845L80.0969 77.7166C79.6824 76.192 79.5362 74.6071 79.6651 73.0327L80.7729 61.8456Z" fill="#F9CFA9"/>
<path d="M21.9035 22.9279L20.7165 21.8283C18.8874 20.1326 16.0032 20.2427 14.3082 22.0725C12.6133 23.9016 12.7233 26.7858 14.5524 28.4807L21.9035 35.2922V22.9279Z" fill="#F9CFA9"/>
<path d="M60.8811 0.310547H27.5587C24.3255 0.310547 21.6953 2.94152 21.6953 6.17465V76.3985C21.6953 79.6316 24.3255 82.2626 27.5587 82.2626H60.8811C64.1142 82.2626 66.7452 79.6316 66.7452 76.3985V6.17465C66.7452 2.94152 64.1142 0.310547 60.8811 0.310547V0.310547Z" fill="#3D4EC6"/>
<path d="M32.9825 4.65908C32.6652 4.18729 32.4798 3.6198 32.4798 3.00859C32.4798 1.80879 33.1943 0.777806 34.2192 0.310547H27.5555C24.3171 0.310547 21.6914 2.93624 21.6914 6.17465V76.3985C21.6914 79.6369 24.3171 82.2618 27.5555 82.2618H34.6398V9.79818C34.6398 7.95401 34.012 6.18973 32.9825 4.65908Z" fill="#2B3894"/>
<path d="M25.0859 37.3496V76.3989C25.0859 77.763 26.1915 78.8686 27.5549 78.8686H60.8773C62.2406 78.8686 63.3462 77.763 63.3462 76.3989C63.3462 75.059 63.3462 55.4974 63.3462 37.3496H25.0859Z" fill="#E6F7FE"/>
<path d="M25.0859 37.3496V76.3989C25.0859 77.763 26.1915 78.8686 27.5549 78.8686H33.3956V37.3496H25.0859Z" fill="#D5F1FE"/>
<path d="M38.5104 49.129C38.5104 51.2656 36.7785 52.9974 34.6419 52.9974C32.5053 52.9974 30.7734 51.2656 30.7734 49.129C30.7734 46.9924 32.5053 45.2598 34.6419 45.2598C36.7785 45.2598 38.5104 46.9924 38.5104 49.129Z" fill="#3D4EC6"/>
<path d="M38.5104 63.4739C38.5104 65.6105 36.7785 67.3431 34.6419 67.3431C32.5053 67.3431 30.7734 65.6105 30.7734 63.4739C30.7734 61.3373 32.5053 59.6055 34.6419 59.6055C36.7785 59.6055 38.5104 61.3373 38.5104 63.4739Z" fill="#3D4EC6"/>
<path d="M34.2048 45.2852C32.2739 45.503 30.7734 47.1391 30.7734 49.128C30.7734 51.2646 32.5053 52.9964 34.6419 52.9964C35.9743 52.9964 37.1485 52.3227 37.8441 51.2977C34.5085 51.6738 32.3847 47.9659 34.2048 45.2852Z" fill="#2B3894"/>
<path d="M34.2048 59.6309C32.2739 59.8479 30.7734 61.4848 30.7734 63.4729C30.7734 65.6103 32.5053 67.3421 34.6419 67.3421C35.9743 67.3421 37.1485 66.6684 37.8441 65.6434C34.5288 66.0165 32.3727 62.3289 34.2048 59.6309Z" fill="#2B3894"/>
<path d="M50.4513 47.519H44.9587C44.1599 47.519 43.5117 46.8709 43.5117 46.072C43.5117 45.2724 44.1599 44.625 44.9587 44.625H50.4513C51.2501 44.625 51.8983 45.2724 51.8983 46.072C51.8983 46.8709 51.2501 47.519 50.4513 47.519Z" fill="#FFBCBC"/>
<path d="M55.9438 53.6303H44.9587C44.1591 53.6303 43.5117 52.9822 43.5117 52.1833C43.5117 51.3837 44.1591 50.7363 44.9587 50.7363H55.9438C56.7427 50.7363 57.3908 51.3837 57.3908 52.1833C57.3908 52.9822 56.7427 53.6303 55.9438 53.6303Z" fill="#FFBCBC"/>
<path d="M50.4513 61.8647H44.9587C44.1599 61.8647 43.5117 61.2173 43.5117 60.4177C43.5117 59.6181 44.1599 58.9707 44.9587 58.9707H50.4513C51.2501 58.9707 51.8983 59.6181 51.8983 60.4177C51.8983 61.2173 51.2501 61.8647 50.4513 61.8647Z" fill="#FFBCBC"/>
<path d="M55.9438 67.9741H44.9587C44.1591 67.9741 43.5117 67.3267 43.5117 66.5271C43.5117 65.7282 44.1591 65.0801 44.9587 65.0801H55.9438C56.7427 65.0801 57.3908 65.7282 57.3908 66.5271C57.3908 67.3267 56.7427 67.9741 55.9438 67.9741Z" fill="#FFBCBC"/>
<path d="M60.8616 3.70508H55.9094C55.4422 3.70508 55.0639 4.08341 55.0639 4.54991C55.0639 5.67058 54.1474 6.58701 53.0275 6.58701H35.3749C34.2542 6.58701 33.3378 5.67058 33.3378 4.54991C33.3378 4.08341 32.9595 3.70508 32.4922 3.70508H27.54C26.1759 3.70508 25.0703 4.81067 25.0703 6.17402V37.7344H63.3313V6.17402C63.3313 4.81067 62.2257 3.70508 60.8616 3.70508Z" fill="#4DA0ED"/>
<path d="M33.3996 5.03828C33.3604 4.88152 33.3378 4.71873 33.3378 4.55067C33.3378 4.08341 32.9595 3.70508 32.4922 3.70508H27.54C26.1759 3.70508 25.0703 4.81067 25.0703 6.17402V37.7344H33.3996V5.03828Z" fill="#4DA0ED"/>
<path opacity="0.5" d="M60.8595 3.70508H55.9073C55.4401 3.70508 55.0617 4.08341 55.0617 4.54991C55.0617 5.67058 54.1453 6.58701 53.0254 6.58701H43.2891L63.3292 31.7075V6.17402C63.3292 4.81067 62.2236 3.70508 60.8595 3.70508Z" fill="#B5EDFF"/>
<path d="M37.6823 34.0034H31.0095C30.2106 34.0034 29.5625 33.356 29.5625 32.5564C29.5625 31.7568 30.2106 31.1094 31.0095 31.1094H37.6823C38.4811 31.1094 39.1293 31.7568 39.1293 32.5564C39.1293 33.3552 38.4811 34.0034 37.6823 34.0034Z" fill="#FFC700"/>
<path d="M28.5047 46.8452C27.0132 48.4543 24.499 48.5507 22.8893 47.0593L16.2338 40.8922C14.624 39.4007 14.5283 36.8866 16.0198 35.2768C17.5112 33.667 20.0254 33.5713 21.6352 35.0628L28.2906 41.2298C29.8997 42.7213 29.9961 45.2354 28.5047 46.8452Z" fill="#F9CFA9"/>
<path d="M28.2893 41.2281L25.1233 38.2949C25.54 39.8045 25.1941 41.4866 24.0523 42.7188C22.9098 43.9518 21.2586 44.4243 19.7227 44.1244L22.888 47.0575C24.4977 48.549 27.0112 48.4525 28.5034 46.8435C29.9948 45.2337 29.8984 42.7196 28.2893 41.2281Z" fill="#FBBC8D"/>
<path d="M28.5047 57.6824C27.0132 59.2922 24.499 59.3879 22.8893 57.8964L16.2338 51.7293C14.624 50.2379 14.5283 47.7237 16.0198 46.1147C17.5112 44.5049 20.0254 44.4092 21.6352 45.9006L28.2906 52.0677C29.8997 53.5592 29.9961 56.0726 28.5047 57.6824Z" fill="#F9CFA9"/>
<path d="M28.5047 68.5191C27.0132 70.1288 24.499 70.2246 22.8893 68.7331L16.2338 62.566C14.624 61.0746 14.5283 58.5604 16.0198 56.9506C17.5112 55.3408 20.0254 55.2451 21.6352 56.7366L28.2906 62.9037C29.8997 64.3951 29.9961 66.9093 28.5047 68.5191Z" fill="#F9CFA9"/>
<path d="M80.0979 77.7162C79.8922 76.958 79.7528 76.1855 79.6797 75.4062C72.3166 87.4947 58.0214 93.1086 44.5938 89.6177C46.0912 90.5801 47.6777 91.4137 49.3372 92.1032C49.3696 92.1168 49.402 92.1304 49.4344 92.1439C52.5643 93.4658 54.9541 95.9596 56.2127 98.984C66.3484 98.3125 75.6115 94.4478 83.0017 88.384L80.0979 77.7162Z" fill="#FBBC8D"/>
<path d="M28.2893 52.066L25.1233 49.1328C25.54 50.6416 25.1941 52.3237 24.0523 53.5567C22.9098 54.7897 21.2586 55.2622 19.7227 54.9623L22.888 57.8947C24.4977 59.3861 27.0119 59.2904 28.5034 57.6806C29.9948 56.0709 29.8984 53.5575 28.2893 52.066Z" fill="#FBBC8D"/>
<path d="M28.2893 62.9039L25.1233 59.9707C25.54 61.4803 25.1941 63.1624 24.0523 64.3946C22.9098 65.6276 21.2586 66.1008 19.7227 65.8001L22.888 68.7333C24.4977 70.2248 27.0119 70.1291 28.5034 68.5193C29.9948 66.9095 29.8984 64.3953 28.2893 62.9039Z" fill="#FBBC8D"/>
<path d="M57.4242 10.6864C57.1382 9.35799 56.5282 8.51758 55.964 8.51758C55.3999 8.51758 54.7899 9.35799 54.5039 10.6864H57.4242Z" fill="url(#paint0_linear_133_5990)"/>
<path d="M54.3359 12.3129C54.3359 12.6756 54.3601 13.0379 54.4083 13.3973H57.5167C57.565 13.0379 57.5892 12.6756 57.5891 12.3129C57.5892 11.9502 57.565 11.588 57.5167 11.2285H54.4083C54.3601 11.588 54.3359 11.9502 54.3359 12.3129Z" fill="url(#paint1_linear_133_5990)"/>
<path d="M54.5039 13.9395C54.7899 15.2678 55.3999 16.1082 55.964 16.1082C56.5282 16.1082 57.1382 15.2678 57.4242 13.9395H54.5039Z" fill="url(#paint2_linear_133_5990)"/>
<path d="M57.9803 10.6862H59.6882C59.4316 10.1021 59.0416 9.5864 58.5497 9.18029C58.0578 8.77418 57.4775 8.48901 56.8555 8.34766C57.3697 8.80012 57.7731 9.63673 57.9803 10.6862Z" fill="url(#paint3_linear_133_5990)"/>
<path d="M59.883 11.2285H58.0667C58.1114 11.5882 58.1338 11.9504 58.1336 12.3129C58.1337 12.6754 58.1112 13.0376 58.0664 13.3973H59.8828C60.0805 12.6879 60.0805 11.9379 59.8828 11.2285H59.883Z" fill="url(#paint4_linear_133_5990)"/>
<path d="M56.8555 16.278C57.4776 16.1367 58.058 15.8515 58.55 15.4454C59.0421 15.0393 59.4321 14.5235 59.6887 13.9395H57.9808C57.7731 14.9889 57.3697 15.8255 56.8555 16.278Z" fill="url(#paint5_linear_133_5990)"/>
<path d="M53.9501 13.9395H52.2422C52.4989 14.5235 52.8889 15.0393 53.3809 15.4454C53.8729 15.8515 54.4533 16.1367 55.0754 16.278C54.5606 15.8255 54.1572 14.9889 53.9501 13.9395Z" fill="url(#paint6_linear_133_5990)"/>
<path d="M55.0754 8.34766C54.4533 8.48894 53.8729 8.77407 53.3809 9.18019C52.8889 9.5863 52.4989 10.1021 52.2422 10.6862H53.9501C54.1578 9.63673 54.5612 8.80012 55.0754 8.34766Z" fill="url(#paint7_linear_133_5990)"/>
<path d="M53.7958 12.3129C53.7958 11.9504 53.8183 11.5882 53.8631 11.2285H52.0467C51.849 11.9379 51.849 12.6879 52.0467 13.3973H53.8631C53.8183 13.0376 53.7958 12.6754 53.7958 12.3129Z" fill="url(#paint8_linear_133_5990)"/>
<path d="M38.5501 23.1717L38.3854 25.4875C38.621 25.4875 38.723 25.3863 38.8453 25.2648L39.9497 24.2094L42.2382 25.8853C42.6579 26.1192 42.9536 25.996 43.0668 25.4991L44.5689 18.4605L44.5694 18.46C44.7025 17.8396 44.345 17.597 43.9361 17.7492L35.1066 21.1296C34.504 21.3635 34.5131 21.6994 35.0042 21.8517L37.2615 22.5538L42.5049 19.2729C42.7516 19.1095 42.976 19.1999 42.7914 19.3633L38.5501 23.1717Z" fill="white"/>
<defs>
<linearGradient id="paint0_linear_133_5990" x1="51.2076" y1="14.7499" x2="57.3651" y2="8.81606" gradientUnits="userSpaceOnUse">
<stop stop-color="#00A1E2"/>
<stop offset="1" stop-color="#00E0A5"/>
</linearGradient>
<linearGradient id="paint1_linear_133_5990" x1="52.2786" y1="15.8627" x2="58.4363" y2="9.92914" gradientUnits="userSpaceOnUse">
<stop stop-color="#00A1E2"/>
<stop offset="1" stop-color="#00E0A5"/>
</linearGradient>
<linearGradient id="paint2_linear_133_5990" x1="53.3528" y1="16.9758" x2="59.5103" y2="11.0422" gradientUnits="userSpaceOnUse">
<stop stop-color="#00A1E2"/>
<stop offset="1" stop-color="#00E0A5"/>
</linearGradient>
<linearGradient id="paint3_linear_133_5990" x1="51.9949" y1="15.5657" x2="58.1524" y2="9.63212" gradientUnits="userSpaceOnUse">
<stop stop-color="#00A1E2"/>
<stop offset="1" stop-color="#00E0A5"/>
</linearGradient>
<linearGradient id="paint4_linear_133_5990" x1="53.7302" y1="17.3667" x2="59.8879" y2="11.4329" gradientUnits="userSpaceOnUse">
<stop stop-color="#00A1E2"/>
<stop offset="1" stop-color="#00E0A5"/>
</linearGradient>
<linearGradient id="paint5_linear_133_5990" x1="54.5818" y1="18.2502" x2="60.7392" y2="12.3167" gradientUnits="userSpaceOnUse">
<stop stop-color="#00A1E2"/>
<stop offset="1" stop-color="#00E0A5"/>
</linearGradient>
<linearGradient id="paint6_linear_133_5990" x1="52.5678" y1="16.1598" x2="58.7253" y2="10.2259" gradientUnits="userSpaceOnUse">
<stop stop-color="#00A1E2"/>
<stop offset="1" stop-color="#00E0A5"/>
</linearGradient>
<linearGradient id="paint7_linear_133_5990" x1="49.9815" y1="13.4752" x2="56.1392" y2="7.54141" gradientUnits="userSpaceOnUse">
<stop stop-color="#00A1E2"/>
<stop offset="1" stop-color="#00E0A5"/>
</linearGradient>
<linearGradient id="paint8_linear_133_5990" x1="50.8316" y1="14.3589" x2="56.9891" y2="8.42535" gradientUnits="userSpaceOnUse">
<stop stop-color="#00A1E2"/>
<stop offset="1" stop-color="#00E0A5"/>
</linearGradient>
</defs>
</svg>
