<svg width="94" height="99" viewBox="0 0 94 99" fill="none" xmlns="http://www.w3.org/2000/svg">
<circle cx="7.8135" cy="7.79983" r="7.22366" fill="#DCE4FF"/>
<path d="M1.25733 59.5489C0.818411 56.9795 0.589844 54.3383 0.589844 51.6436C0.589844 25.8938 21.4641 5.01953 47.2139 5.01953C72.9637 5.01953 93.838 25.8938 93.838 51.6436C93.838 77.3934 72.9637 98.2677 47.2139 98.2677C33.1127 98.2677 20.4737 92.0076 11.9242 82.115L1.25733 59.5489Z" fill="#DCE4FF"/>
<path d="M93.8395 51.6499C93.8395 50.8072 93.8171 49.9698 93.7731 49.138L75.5669 30.9318L75.2522 31.3877L65.0344 21.1699L45.8918 24.5966L30.1913 64.7718L18.1621 52.7426L11.9258 82.1214L16.7443 86.9399C24.9162 94.0022 35.5671 98.2739 47.2155 98.2739C72.9652 98.2739 93.8395 77.3996 93.8395 51.6499Z" fill="#97A6DB"/>
<path d="M65.0294 37.9591H42.9688V21.1699H65.0294V37.9591ZM48.4325 32.4954H59.5656V26.6337H48.4325V32.4954Z" fill="#555A66"/>
<path d="M65.0299 21.1699H54.0352V26.6337H59.5661V32.4954H54.0352V37.9591H65.0299V21.1699Z" fill="#333940"/>
<path d="M32.4375 43.2031H75.5629V63.4039H32.4375V43.2031Z" fill="#555A66"/>
<path d="M54.0352 43.2031H75.5622V63.4039H54.0352V43.2031Z" fill="#333940"/>
<path d="M32.4375 30.9336H75.5629V52.1865H32.4375V30.9336Z" fill="#414952"/>
<path d="M54.0352 30.9336H75.5622V52.1865H54.0352V30.9336Z" fill="#23272B"/>
<path d="M38.4531 49.7012H45.1539V56.2302H38.4531V49.7012Z" fill="#7E8596"/>
<path d="M62.8516 49.7012H69.5523V56.2302H62.8516V49.7012Z" fill="#636978"/>
<path d="M80.853 60.4082C79.3958 58.0669 76.2979 57.3829 73.9904 58.8929L56.8538 69.604L44.7678 62.9042L58.1779 59.303C59.9274 58.4308 60.8145 56.4416 60.2943 54.5567C59.7492 52.5815 57.8264 51.3154 55.7973 51.5953L38.628 52.0858C36.3258 52.1515 34.0386 52.4813 31.8116 53.0687L11.7656 58.3518L18.97 74.0357C23.5937 72.0206 27.2887 70.4123 27.2887 70.4123L49.5526 78.8183C53.4809 80.2875 57.8797 79.7375 61.3252 77.3462L82.1204 62.5102L80.853 60.4082Z" fill="#FFDECF"/>
<path d="M58.1764 59.303C59.9259 58.4308 60.813 56.4416 60.2929 54.5567C59.7478 52.5815 57.8249 51.3154 55.7958 51.5953L54.0391 51.6454V60.414L58.1764 59.303Z" fill="#FFBEAA"/>
<path d="M80.8517 60.4079C79.3945 58.0667 76.2966 57.3826 73.9891 58.8926L56.8525 69.6038L54.0391 68.0443V79.6278C56.6083 79.6261 59.1551 78.8512 61.3241 77.3459L82.1193 62.51L80.8517 60.4079Z" fill="#FFBEAA"/>
<path d="M1.25781 59.5568C2.71609 68.0952 6.49592 75.8416 11.9249 82.1232C14.642 80.938 17.4016 79.7348 19.9537 78.6226L10.1228 57.2207L1.25781 59.5568Z" fill="#E9EDF5"/>
<path d="M18.1602 52.7422L27.9815 76.4157L15.0786 81.8746L4.54688 57.6166L18.1602 52.7422Z" fill="white"/>
<path d="M21.9756 74.182C22.3441 72.6233 21.3792 71.0611 19.8205 70.6926C18.2619 70.3242 16.6996 71.289 16.3312 72.8477C15.9627 74.4064 16.9276 75.9686 18.4863 76.337C20.0449 76.7055 21.6072 75.7406 21.9756 74.182Z" fill="#DCE1EB"/>
</svg>
