<svg width="12" height="15" viewBox="0 0 12 15" fill="none" xmlns="http://www.w3.org/2000/svg">
<path d="M6.07333 6.97786C6.98214 6.97786 7.7691 6.65367 8.41209 6.01405C9.05509 5.37453 9.38104 4.59204 9.38104 3.68804C9.38104 2.78436 9.05509 2.00177 8.41199 1.36204C7.76889 0.722625 6.98204 0.398438 6.07333 0.398438C5.16442 0.398438 4.37767 0.722625 3.73468 1.36214C3.09168 2.00166 2.76562 2.78426 2.76562 3.68804C2.76562 4.59204 3.09168 5.37463 3.73478 6.01415C4.37788 6.65357 5.16473 6.97786 6.07333 6.97786Z" fill="#35435E"/>
<path d="M11.8594 10.9032C11.8408 10.6371 11.8033 10.3467 11.7481 10.0402C11.6923 9.73129 11.6206 9.4393 11.5347 9.17243C11.4459 8.89659 11.3252 8.6242 11.176 8.36316C11.0212 8.09222 10.8393 7.8563 10.6352 7.66216C10.4218 7.45906 10.1604 7.29577 9.85828 7.17666C9.55716 7.05817 9.22345 6.99815 8.86649 6.99815C8.7263 6.99815 8.59072 7.05536 8.3289 7.22491C8.16775 7.32943 7.97927 7.45031 7.76888 7.584C7.58898 7.69801 7.34528 7.80482 7.04426 7.90152C6.75058 7.99604 6.4524 8.04397 6.15809 8.04397C5.86378 8.04397 5.5657 7.99604 5.2717 7.90152C4.971 7.80492 4.7273 7.69811 4.54761 7.58411C4.33922 7.45166 4.15062 7.33078 3.98707 7.2248C3.72556 7.05526 3.58987 6.99805 3.44969 6.99805C3.09262 6.99805 2.75902 7.05817 2.458 7.17676C2.15604 7.29566 1.89463 7.45895 1.681 7.66226C1.47701 7.8565 1.29501 8.09232 1.14037 8.36316C0.991275 8.6242 0.870575 8.89649 0.781727 9.17253C0.695918 9.43941 0.624148 9.73129 0.568408 10.0402C0.513192 10.3463 0.475683 10.6367 0.457138 10.9035C0.438908 11.1649 0.429688 11.4361 0.429688 11.7101C0.429688 12.4231 0.65757 13.0003 1.10695 13.426C1.55077 13.846 2.13802 14.0591 2.85216 14.0591H9.46464C10.1788 14.0591 10.7658 13.8461 11.2098 13.426C11.6592 13.0006 11.8871 12.4233 11.8871 11.71C11.887 11.4348 11.8777 11.1633 11.8594 10.9032Z" fill="#35435E"/>
</svg>
