<svg width="18" height="19" viewBox="0 0 18 19" fill="none" xmlns="http://www.w3.org/2000/svg">
<path d="M10.1846 8.13281H9.61328V8.73987H10.1846C10.3525 8.73987 10.4882 8.60384 10.4882 8.43641C10.4882 8.26832 10.3525 8.13281 10.1846 8.13281Z" fill="#FFC700"/>
<path d="M6.56697 6.52539C6.32227 6.52539 6.12891 6.7224 6.12891 6.96241V8.30332C6.12891 8.54502 6.32435 8.74034 6.56593 8.74034C6.8105 8.74034 7.00399 8.54333 7.00399 8.30332V6.96241C7.00399 6.72071 6.80841 6.52539 6.56697 6.52539Z" fill="#FFC700"/>
<path d="M10.1846 6.52539H9.61328V7.13245H10.1846C10.3525 7.13245 10.4882 6.99642 10.4882 6.82899C10.4882 6.66051 10.3521 6.52539 10.1846 6.52539Z" fill="#FFC700"/>
<path d="M16.6381 15.2524L14.7619 13.3763C14.246 12.8603 13.4714 12.761 12.8556 13.0777L11.7555 11.9777C14.0118 9.3596 13.8983 5.40399 11.4149 2.92049C8.81259 0.318169 4.59326 0.318169 1.99081 2.92049C-0.611519 5.52295 -0.611519 9.74228 1.99081 12.3446C4.4743 14.828 8.42991 14.9415 11.048 12.6852L12.148 13.7853C11.8312 14.4011 11.9306 15.1757 12.4465 15.6916L14.3227 17.5678C14.962 18.2071 15.9986 18.2071 16.6379 17.5678C17.2774 16.9284 17.2774 15.8917 16.6381 15.2524ZM4.52329 8.43617C4.52329 9.15529 3.93812 9.74046 3.219 9.74046C2.49975 9.74046 1.91471 9.15529 1.91471 8.43617C1.91471 8.1598 2.13883 7.93582 2.41506 7.93582C2.69142 7.93582 2.91541 8.1598 2.91541 8.43617C2.91541 8.6036 3.05157 8.73976 3.219 8.73976C3.38644 8.73976 3.5226 8.6036 3.5226 8.43617V6.52482H2.95111C2.67474 6.52482 2.45076 6.30083 2.45076 6.02447C2.45076 5.74811 2.67474 5.52412 2.95111 5.52412H4.02294C4.29931 5.52412 4.52329 5.74811 4.52329 6.02447V8.43617ZM8.00683 8.30274C8.00683 9.09783 7.36328 9.74046 6.56911 9.74046C5.77129 9.74046 5.13035 9.09574 5.13035 8.30274V6.96184C5.13035 6.16676 5.77377 5.52412 6.56807 5.52412C7.36563 5.52412 8.00683 6.16871 8.00683 6.96184V8.30274ZM11.4904 8.4363C11.4904 9.1575 10.9066 9.74046 10.1861 9.74046H9.11437C8.83774 9.74046 8.61402 9.51634 8.61402 9.24011V6.0246C8.61402 5.74811 8.83774 5.52425 9.11437 5.52425H10.1861C10.9073 5.52425 11.4904 6.10799 11.4904 6.82854C11.4904 7.12367 11.3926 7.40355 11.2128 7.63236C11.3926 7.8609 11.4904 8.14065 11.4904 8.4363Z" fill="#FFC700"/>
</svg>
