<svg width="15" height="15" viewBox="0 0 15 15" fill="none" xmlns="http://www.w3.org/2000/svg">
<path d="M7.73152 0.960938C6.36307 0.960937 5.02535 1.36673 3.88752 2.127C2.74969 2.88727 1.86287 3.96788 1.33918 5.23216C0.815498 6.49645 0.678478 7.88763 0.94545 9.22979C1.21242 10.5719 1.87139 11.8048 2.83904 12.7724C3.80668 13.7401 5.03953 14.3991 6.38169 14.666C7.72385 14.933 9.11503 14.796 10.3793 14.2723C11.6436 13.7486 12.7242 12.8618 13.4845 11.724C14.2447 10.5861 14.6505 9.24841 14.6505 7.87995C14.6505 6.04492 13.9216 4.28504 12.624 2.98747C11.3264 1.6899 9.56656 0.960938 7.73152 0.960938ZM8.02812 5.21106C8.65706 5.21179 9.26004 5.46197 9.70478 5.9067C10.1495 6.35143 10.3997 6.95441 10.4004 7.58336H9.80723C9.80674 7.11166 9.61914 6.65942 9.2856 6.32588C8.95206 5.99234 8.49982 5.80474 8.02812 5.80425V5.21106ZM9.9493 12.0314C9.93131 12.0314 8.15035 12.0009 5.86016 9.75132C3.61055 7.46205 3.58011 5.68017 3.58011 5.66218C3.58011 5.44031 4.96391 3.72854 5.26973 3.72854C5.37583 3.72854 5.45839 3.8005 5.5488 3.90844C5.76652 4.16767 6.72919 5.68709 6.6849 5.94032C6.66369 6.05933 6.56267 6.14974 6.27299 6.39283C6.13026 6.50504 5.99668 6.62843 5.87353 6.76184C5.93251 7.00594 6.02014 7.24222 6.13461 7.46574C6.56107 8.34258 7.26963 9.05081 8.14666 9.47686C8.37018 9.59133 8.60646 9.67897 8.85056 9.73794C8.98397 9.61479 9.10736 9.48122 9.21957 9.33848C9.46266 9.04881 9.55307 8.94779 9.67208 8.92657C9.92531 8.88044 11.4447 9.84496 11.704 10.0627C11.8119 10.1549 11.8839 10.2357 11.8839 10.3417C11.8829 10.6476 10.1712 12.0314 9.9493 12.0314ZM11.2897 7.58336C11.2888 6.71862 10.9448 5.88958 10.3334 5.27812C9.72189 4.66666 8.89285 4.32271 8.02812 4.32173V3.72854C9.0501 3.72977 10.0299 4.13629 10.7525 4.85894C11.4752 5.5816 11.8817 6.56137 11.8829 7.58336H11.2897Z" fill="white"/>
</svg>
