<svg width="470" height="69" viewBox="0 0 470 69" fill="none" xmlns="http://www.w3.org/2000/svg">
<path d="M407.986 11.8877C408.708 11.967 409.229 12.6169 409.15 13.3392C407.346 29.9472 419.326 44.8816 435.93 46.7231L461.547 49.535L449.561 34.5962C449.116 34.0216 449.221 33.1951 449.796 32.7503C450.356 32.3164 451.16 32.4046 451.613 32.9497L465.585 50.3675C466.04 50.9337 465.951 51.762 465.384 52.2174C465.383 52.2181 465.383 52.2188 465.382 52.2195L447.964 66.1916C447.405 66.6561 446.576 66.5795 446.111 66.0207C445.647 65.4618 445.723 64.6324 446.282 64.1678C446.294 64.158 446.305 64.1485 446.318 64.1392L461.26 52.1508L435.643 49.3389C417.595 47.3374 404.573 31.1043 406.534 13.052C406.613 12.3297 407.263 11.8084 407.986 11.8877Z" fill="#3653B7"/>
<path d="M62.0145 11.8877C61.2921 11.967 60.7708 12.6169 60.8501 13.3392C62.6541 29.9472 50.6741 44.8816 34.0702 46.7231L8.45335 49.535L20.4395 34.5962C20.8842 34.0216 20.7789 33.1951 20.2043 32.7503C19.6437 32.3164 18.8402 32.4046 18.3871 32.9497L4.415 50.3675C3.95956 50.9337 4.04948 51.762 4.61571 52.2174C4.61652 52.2181 4.61747 52.2188 4.61829 52.2195L22.036 66.1916C22.5949 66.6561 23.4244 66.5795 23.889 66.0207C24.3534 65.4618 24.2769 64.6324 23.7181 64.1678C23.7063 64.158 23.6945 64.1485 23.6824 64.1392L8.74048 52.1508L34.3572 49.3389C52.4051 47.3374 65.4269 31.1043 63.4659 13.052C63.3866 12.3297 62.7368 11.8084 62.0145 11.8877Z" fill="#3653B7"/>
<path d="M252.099 39.3203C252.099 39.6695 251.961 40.0046 251.715 40.2518L235.925 56.041C235.412 56.5547 234.579 56.5547 234.065 56.041L218.276 40.2518C217.771 39.7292 217.785 38.8962 218.308 38.3913C218.818 37.8989 219.626 37.8989 220.136 38.3913L234.994 53.2489L249.852 38.3913C250.365 37.8768 251.198 37.8758 251.712 38.389C251.96 38.6358 252.099 38.9708 252.099 39.3203Z" fill="#3653B7"/>
<rect x="233.707" y="53.813" width="53.594" height="2.59296" rx="1.29648" transform="rotate(-90 233.707 53.813)" fill="#3653B7"/>
</svg>
