<svg width="63" height="63" viewBox="0 0 63 63" fill="none" xmlns="http://www.w3.org/2000/svg">
<path d="M31.2841 62.6306C48.4774 62.6306 62.408 48.7001 62.408 31.5067C62.408 14.3134 48.4774 0.382812 31.2841 0.382812C14.0907 0.382812 0.160156 14.3134 0.160156 31.5067C0.160156 48.7001 14.0907 62.6306 31.2841 62.6306ZM14.4019 30.8324L44.4106 19.2621C45.8034 18.7589 47.0198 19.6018 46.5685 21.7079L46.5711 21.7053L41.4616 45.777C41.0829 47.4837 40.0688 47.8987 38.6501 47.0946L30.8691 41.36L27.1161 44.9756C26.7011 45.3906 26.3509 45.7407 25.5469 45.7407L26.0993 37.8223L40.5201 24.7943C41.1478 24.2419 40.38 23.9306 39.5527 24.4805L21.7316 35.7007L14.0492 33.3041C12.3815 32.775 12.3452 31.6364 14.4019 30.8324Z" fill="#15A8E7"/>
</svg>
