<svg width="19" height="19" viewBox="0 0 19 19" fill="none" xmlns="http://www.w3.org/2000/svg">
<path d="M9.70239 18.479C14.6004 18.479 18.5688 14.5105 18.5688 9.61255C18.5688 4.71457 14.6004 0.746094 9.70239 0.746094C4.80441 0.746094 0.835938 4.71457 0.835938 9.61255C0.835938 14.5105 4.80441 18.479 9.70239 18.479ZM4.89308 9.42044L13.4418 6.12434C13.8386 5.98099 14.1851 6.22113 14.0566 6.82109L14.0573 6.82035L12.6017 13.6778C12.4938 14.164 12.2049 14.2822 11.8008 14.0532L9.58417 12.4195L8.51502 13.4495C8.3968 13.5677 8.29706 13.6675 8.06801 13.6675L8.22539 11.4117L12.3335 7.70035C12.5123 7.54297 12.2936 7.4543 12.0579 7.61094L6.98113 10.8073L4.79259 10.1246C4.3175 9.97385 4.30715 9.64949 4.89308 9.42044Z" fill="#35435E"/>
</svg>
