<svg width="204" height="47" viewBox="0 0 204 47" fill="none" xmlns="http://www.w3.org/2000/svg">
<rect x="0.828125" y="0.337891" width="202.341" height="46.4535" rx="23.2267" fill="#FFC700"/>
<path d="M26.9422 29.6113H29.2023V18.8848H33.0947V16.9117H23.0497V18.8848H26.9422V29.6113ZM34.3979 24.4454C34.4876 23.2436 35.5101 22.3646 36.7836 22.3646C38.1827 22.3646 38.8105 23.3332 38.8105 24.4454H34.3979ZM40.963 25.414C40.963 22.3108 39.2052 20.7503 36.8016 20.7503C34.2006 20.7503 32.2455 22.5799 32.2455 25.3602C32.2455 28.1584 34.2186 29.8625 36.8733 29.8625C38.5056 29.8625 39.7253 29.2885 40.5684 28.1405L39.1334 26.9925C38.6491 27.6741 37.9316 28.1046 36.8554 28.1046C35.5997 28.1046 34.4876 27.2077 34.3979 25.988H40.9451C40.963 25.7907 40.963 25.6113 40.963 25.414ZM43.0836 29.6113H45.236V16.0507H43.0836V29.6113ZM49.4976 24.4454C49.5873 23.2436 50.6097 22.3646 51.8832 22.3646C53.2824 22.3646 53.9102 23.3332 53.9102 24.4454H49.4976ZM56.0627 25.414C56.0627 22.3108 54.3048 20.7503 51.9012 20.7503C49.3003 20.7503 47.3451 22.5799 47.3451 25.3602C47.3451 28.1584 49.3182 29.8625 51.9729 29.8625C53.6052 29.8625 54.825 29.2885 55.668 28.1405L54.233 26.9925C53.7487 27.6741 53.0312 28.1046 51.955 28.1046C50.6994 28.1046 49.5873 27.2077 49.4976 25.988H56.0447C56.0627 25.7907 56.0627 25.6113 56.0627 25.414ZM64.8559 21.0014V22.2929H64.82C64.1922 21.2525 63.0622 20.7503 61.8604 20.7503C59.2594 20.7503 57.6451 22.7772 57.6451 25.2705C57.6451 27.71 59.3132 29.7548 61.8962 29.7548C63.0801 29.7548 64.0846 29.3064 64.7124 28.4633H64.7483V29.0911C64.7483 30.7952 64.1025 32.0508 62.0218 32.0508C60.9456 32.0508 59.8334 31.6203 59.0083 30.8311L57.7706 32.4992C58.8828 33.4141 60.6406 33.9163 62.0397 33.9163C65.394 33.9163 66.9008 31.9432 66.9008 28.84V21.0014H64.8559ZM62.3088 22.5081C63.8693 22.5081 64.8559 23.7637 64.8559 25.2525C64.8559 26.6875 63.8873 27.979 62.2909 27.979C60.7482 27.979 59.8334 26.6158 59.8334 25.2525C59.8334 23.7279 60.7482 22.5081 62.3088 22.5081ZM69.4808 29.6113H71.6333V25.0014C71.6333 24.3736 72.01 22.6875 73.9472 22.6875C74.1445 22.6875 74.3239 22.7054 74.6109 22.7772V20.8041C74.4674 20.7682 74.2521 20.7503 74.0907 20.7503C72.9607 20.7503 72.0458 21.4498 71.5795 22.4364H71.5436V21.0014H69.4808V29.6113ZM81.1322 29.6113H83.1412V24.3736C83.1412 22.6516 82.3879 20.7503 79.3026 20.7503C77.9932 20.7503 76.63 21.2166 75.6613 22.1135L76.7735 23.4229C77.3295 22.8669 78.2085 22.4364 79.1233 22.4364C80.1995 22.4364 81.0964 22.9566 81.0964 24.0149V24.2301C78.4058 24.2301 75.177 24.5889 75.177 27.1539C75.177 29.1629 77.0246 29.8266 78.4058 29.8266C79.6255 29.8266 80.6479 29.2705 81.0784 28.5171H81.1322V29.6113ZM81.0964 25.988C81.0964 27.3512 80.3071 28.1943 78.8363 28.1943C78.1008 28.1943 77.3295 27.9432 77.3295 27.118C77.3295 25.8445 79.2488 25.683 80.6121 25.683H81.0964V25.988ZM95.9271 20.7503C94.6356 20.7503 93.667 21.3422 93.093 22.3826C92.6087 21.4139 91.7297 20.7503 90.4024 20.7503C89.0212 20.7503 88.1064 21.5395 87.7297 22.3826H87.6938V21.0014H85.649V29.6113H87.8015V24.8759C87.8015 23.7279 88.3934 22.544 89.6849 22.544C90.7791 22.544 91.2813 23.3512 91.2813 24.4095V29.6113H93.4338V24.9117C93.4338 23.7996 93.9898 22.544 95.3352 22.544C96.7163 22.544 96.9495 23.8176 96.9495 24.84V29.6113H99.102V24.2301C99.102 22.4722 98.1693 20.7503 95.9271 20.7503ZM117.087 18.526C116.082 17.1987 114.127 16.5888 112.477 16.5888C108.567 16.5888 105.589 19.1538 105.589 23.2256C105.589 27.1898 108.405 29.9342 112.369 29.9342C114.522 29.9342 116.172 29.1091 117.284 27.71L115.473 26.4364C114.827 27.3153 113.751 27.9073 112.387 27.9073C109.768 27.9073 108.082 25.988 108.082 23.2256C108.082 20.6068 109.858 18.5798 112.477 18.5798C113.499 18.5798 114.701 18.9745 115.365 19.8893L117.087 18.526ZM123.37 20.7503C122.097 20.7503 121.146 21.4857 120.805 22.2032H120.769V16.0507H118.617V29.6113H120.769V24.9117C120.769 23.7637 121.433 22.5978 122.796 22.5978C124.177 22.5978 124.393 23.8534 124.393 24.8759V29.6113H126.545V24.2301C126.545 22.4722 125.612 20.7503 123.37 20.7503ZM134.401 29.6113H136.41V24.3736C136.41 22.6516 135.657 20.7503 132.572 20.7503C131.262 20.7503 129.899 21.2166 128.93 22.1135L130.043 23.4229C130.599 22.8669 131.478 22.4364 132.392 22.4364C133.469 22.4364 134.365 22.9566 134.365 24.0149V24.2301C131.675 24.2301 128.446 24.5889 128.446 27.1539C128.446 29.1629 130.294 29.8266 131.675 29.8266C132.895 29.8266 133.917 29.2705 134.348 28.5171H134.401V29.6113ZM134.365 25.988C134.365 27.3512 133.576 28.1943 132.105 28.1943C131.37 28.1943 130.599 27.9432 130.599 27.118C130.599 25.8445 132.518 25.683 133.881 25.683H134.365V25.988ZM138.918 29.6113H141.071V24.8759C141.071 23.7279 141.716 22.544 143.08 22.544C144.461 22.544 144.694 23.8176 144.694 24.84V29.6113H146.846V24.2301C146.846 22.4722 145.914 20.7503 143.671 20.7503C142.398 20.7503 141.376 21.5216 140.999 22.3826H140.963V21.0014H138.918V29.6113ZM149.358 29.6113H151.511V24.8759C151.511 23.7279 152.156 22.544 153.52 22.544C154.901 22.544 155.134 23.8176 155.134 24.84V29.6113H157.287V24.2301C157.287 22.4722 156.354 20.7503 154.112 20.7503C152.838 20.7503 151.816 21.5216 151.439 22.3826H151.403V21.0014H149.358V29.6113ZM161.449 24.4454C161.538 23.2436 162.561 22.3646 163.834 22.3646C165.233 22.3646 165.861 23.3332 165.861 24.4454H161.449ZM168.014 25.414C168.014 22.3108 166.256 20.7503 163.852 20.7503C161.251 20.7503 159.296 22.5799 159.296 25.3602C159.296 28.1584 161.269 29.8625 163.924 29.8625C165.556 29.8625 166.776 29.2885 167.619 28.1405L166.184 26.9925C165.7 27.6741 164.982 28.1046 163.906 28.1046C162.65 28.1046 161.538 27.2077 161.449 25.988H167.996C168.014 25.7907 168.014 25.6113 168.014 25.414ZM170.134 29.6113H172.287V16.0507H170.134V29.6113ZM181.015 22.0597C180.315 21.1808 179.024 20.7503 177.786 20.7503C176.082 20.7503 174.36 21.5754 174.36 23.4947C174.36 25.109 175.633 25.6292 176.907 25.9342C178.216 26.2391 178.88 26.4543 178.88 27.1718C178.88 27.9432 178.127 28.1943 177.499 28.1943C176.566 28.1943 175.759 27.7279 175.293 27.118L173.876 28.4454C174.701 29.3602 176.082 29.8625 177.409 29.8625C179.293 29.8625 180.997 29.0911 180.997 26.9925C180.997 25.3064 179.49 24.7324 178.216 24.4274C177.015 24.1404 176.351 23.9611 176.351 23.2974C176.351 22.6157 177.05 22.3646 177.732 22.3646C178.521 22.3646 179.239 22.7951 179.615 23.2974L181.015 22.0597Z" fill="#35435E"/>
</svg>
