<svg width="19" height="19" viewBox="0 0 19 19" fill="none" xmlns="http://www.w3.org/2000/svg">
<path d="M9.50708 18.479C14.4051 18.479 18.3735 14.5105 18.3735 9.61255C18.3735 4.71457 14.4051 0.746094 9.50708 0.746094C4.6091 0.746094 0.640625 4.71457 0.640625 9.61255C0.640625 14.5105 4.6091 18.479 9.50708 18.479ZM4.69777 9.42044L13.2465 6.12434C13.6433 5.98099 13.9898 6.22113 13.8612 6.82109L13.862 6.82035L12.4064 13.6778C12.2985 14.164 12.0096 14.2822 11.6055 14.0532L9.38886 12.4195L8.31971 13.4495C8.20149 13.5677 8.10174 13.6675 7.87269 13.6675L8.03007 11.4117L12.1382 7.70035C12.317 7.54297 12.0983 7.4543 11.8626 7.61094L6.78582 10.8073L4.59728 10.1246C4.12219 9.97385 4.11184 9.64949 4.69777 9.42044Z" fill="white"/>
</svg>
