<svg width="15" height="15" viewBox="0 0 15 15" fill="none" xmlns="http://www.w3.org/2000/svg">
<path d="M7.80391 0.765625C4.0522 0.765625 1.00023 3.81759 1.00023 7.5693C1.00023 8.75614 1.31066 9.92222 1.89878 10.9481L0.781362 14.3001C0.754608 14.3806 0.773981 14.4689 0.83187 14.5307C0.876152 14.578 0.9375 14.6036 1.00023 14.6036C1.01984 14.6036 1.03944 14.6011 1.05881 14.596L4.71827 13.6331C5.66894 14.1174 6.73377 14.373 7.80391 14.373C11.5556 14.373 14.6076 11.321 14.6076 7.5693C14.6076 3.81759 11.5556 0.765625 7.80391 0.765625ZM12.0494 10.6586L11.6439 11.0643C11.1319 11.5763 10.5607 11.836 9.94649 11.836C9.11852 11.836 8.22573 11.3632 7.29352 10.4308L4.94244 8.07992C4.20718 7.34466 3.75537 6.63039 3.59947 5.95671C3.41035 5.13866 3.64905 4.38933 4.30912 3.72949L4.71481 3.32381C4.97565 3.06296 5.39748 2.99884 5.72429 3.17182C6.33823 3.49678 6.97432 4.56138 7.04489 4.68177C7.1722 4.9048 7.21118 5.13543 7.15629 5.33308C7.11431 5.48415 7.01975 5.6073 6.8823 5.69102C6.69595 5.84693 6.47754 6.04112 6.43902 6.09048C6.2047 6.4362 6.23145 6.70166 6.53335 7.00379L8.36965 8.84009C8.67408 9.14475 8.93493 9.16989 9.28618 8.93188C9.33254 8.89567 9.5265 8.67726 9.68241 8.49091C9.79888 8.29833 9.98962 8.19293 10.2216 8.19293C10.3736 8.19293 10.5353 8.23906 10.6891 8.3267C10.8118 8.39889 11.8767 9.03497 12.2014 9.64869C12.379 9.98449 12.3181 10.3899 12.0494 10.6586Z" fill="white"/>
</svg>
