<svg width="95" height="99" viewBox="0 0 95 99" fill="none" xmlns="http://www.w3.org/2000/svg">
<circle cx="7.98538" cy="7.79983" r="7.22366" fill="#DCE4FF"/>
<circle cx="47.3867" cy="51.6484" r="46.625" fill="#DCE4FF"/>
<path d="M72.7914 42.413L40.5516 74.6533C39.0944 76.11 36.7323 76.11 35.2756 74.6533L16.3035 55.6812C14.8468 54.2239 14.8468 51.8618 16.3035 50.4051L48.5433 18.1648C50.0005 16.7081 52.3626 16.7081 53.8193 18.1648L72.7914 37.1369C74.2487 38.5936 74.2487 40.9563 72.7914 42.413V42.413Z" fill="#F47A22"/>
<path d="M72.79 37.1355L70.4226 34.7676C71.72 36.065 71.5902 38.2978 70.1335 39.7545L37.8932 71.9948C36.4365 73.4521 34.2036 73.5813 32.9062 72.2839L35.2741 74.6518C36.7309 76.1086 39.0929 76.1086 40.5502 74.6518L72.79 42.4115C74.2472 40.9548 74.2472 38.5922 72.79 37.1355V37.1355Z" fill="#5692D8"/>
<path d="M22.5055 54.3551C22.2459 54.3551 21.9868 54.2559 21.789 54.0581C21.3933 53.6624 21.3933 53.0213 21.789 52.6256L37.5807 36.8339C37.9764 36.4382 38.618 36.4382 39.0131 36.8339C39.4088 37.2296 39.4088 37.8712 39.0131 38.2663L23.2214 54.0586C23.0236 54.2559 22.7645 54.3551 22.5055 54.3551Z" fill="#252D4C"/>
<path d="M27.5211 59.3727C27.2615 59.3727 27.0024 59.2735 26.8046 59.0756C26.4089 58.6799 26.4089 58.0389 26.8046 57.6432L42.5963 41.8515C42.992 41.4558 43.6336 41.4558 44.0288 41.8515C44.4245 42.2472 44.4245 42.8887 44.0288 43.2839L28.237 59.0756C28.0392 59.2735 27.7801 59.3727 27.5211 59.3727Z" fill="#252D4C"/>
<path d="M48.0166 25.5135L44.8573 28.6723C43.6153 29.9143 43.6153 31.9276 44.8573 33.1696C46.0992 34.4116 48.1131 34.4116 49.3551 33.1696L52.5139 30.0108C53.7558 28.7688 53.7558 26.7555 52.5139 25.5135C51.2719 24.2715 49.258 24.2715 48.0166 25.5135V25.5135Z" fill="#FFCD34"/>
<path d="M75.8369 51.9336H30.2424C28.1821 51.9336 26.5117 53.604 26.5117 55.6643V82.4951C26.5117 84.5554 28.1821 86.2258 30.2424 86.2258H75.8369C77.8978 86.2258 79.5676 84.5554 79.5676 82.4951V55.6643C79.5681 53.604 77.8978 51.9336 75.8369 51.9336V51.9336Z" fill="#FFCD34"/>
<path d="M75.8353 51.9336H72.4961C74.5564 51.9336 76.2268 53.604 76.2268 55.6643V82.4951C76.2268 84.5554 74.5564 86.2258 72.4961 86.2258H75.8353C77.8961 86.2258 79.566 84.5554 79.566 82.4951V55.6643C79.5665 53.604 77.8961 51.9336 75.8353 51.9336V51.9336Z" fill="#E69012"/>
<path d="M26.5117 60.3633H79.5681V66.809H26.5117V60.3633Z" fill="#575B7A"/>
<path d="M76.2266 60.3633H79.5658V66.809H76.2266V60.3633Z" fill="#252D4C"/>
<path d="M66.5273 77.1074V81.0829C66.5273 81.3905 66.7764 81.6395 67.084 81.6395H73.4073C73.7149 81.6395 73.9639 81.3905 73.9639 81.0829V77.1074C73.9639 76.7998 73.7149 76.5508 73.4073 76.5508H67.084C66.7764 76.5508 66.5273 76.7998 66.5273 77.1074V77.1074Z" fill="#E9E9EA"/>
<path d="M47.4609 77.1074V81.0829C47.4609 81.3905 47.7105 81.6395 48.0176 81.6395H61.3923C61.6999 81.6395 61.949 81.3905 61.949 81.0829V77.1074C61.949 76.7998 61.6999 76.5508 61.3923 76.5508H48.0176C47.7105 76.5508 47.4609 76.7998 47.4609 77.1074V77.1074Z" fill="#E9E9EA"/>
<path d="M42.0081 82.653H35.345C34.7852 82.653 34.332 82.1992 34.332 81.64C34.332 81.0802 34.7852 80.627 35.345 80.627H42.0081C42.5679 80.627 43.0211 81.0802 43.0211 81.64C43.0211 82.1992 42.5679 82.653 42.0081 82.653Z" fill="#252D4C"/>
</svg>
